<?xml version="1.0" encoding="UTF-8"?><svg id="Ebene_2" xmlns="http://www.w3.org/2000/svg" xmlns:xlink="http://www.w3.org/1999/xlink" viewBox="0 0 561.02 796.08"><defs><style>.cls-1{fill:url(#linear-gradient);}.cls-1,.cls-2,.cls-3,.cls-4,.cls-5,.cls-6,.cls-7,.cls-8,.cls-9,.cls-10{stroke-width:0px;}.cls-2{fill:#0c2f3d;}.cls-3{fill:#fff;}.cls-4{fill:#a0a0a0;}.cls-5{fill:#173a49;}.cls-6{fill:#f9b795;}.cls-7{fill:#123245;}.cls-8{fill:#d86565;}.cls-9{opacity:.1;}.cls-10{fill:#d7e9ff;}</style><linearGradient id="linear-gradient" x1="223.05" y1="241.52" x2="300.06" y2="241.52" gradientUnits="userSpaceOnUse"><stop offset="0" stop-color="#5889fc"/><stop offset="1" stop-color="#4d71d8"/></linearGradient></defs><g id="Layer_1"><path class="cls-8" d="M429.93,52.83C321.03-1.2,40.03,33.84,16.85,121-6.34,208.15,5.22,586.65,199.26,640.6c265.82,73.92,349.82-210.9,360.54-302.83,10.72-91.93-50.84-245.73-129.87-284.94Z"/><path class="cls-6" d="M342.44,760.54c-.85-9.61-18.71-88.12-34.74-157.3-13.26-57.34-25.26-108.25-25.26-108.25h58.94l12.21,104.26,20.84,177.87-55.67,1.19s24.21-11.95,23.69-17.77Z"/><path class="cls-5" d="M375.81,763.23l3.26,22.34c.81,5.54-3.49,10.51-9.09,10.51h-79.91c-2.13,0-2.81-2.87-.9-3.82l36.17-18.09c.38-.19.81-.26,1.23-.19,4.82.81,35.82,5.3,45.5-11.47.96-1.66,3.46-1.18,3.74.71Z"/><path class="cls-6" d="M241.46,760.54c-.92-10.34-11.58-100.4-20.21-172.81-6.04-50.69-11.08-92.74-11.08-92.74h58.94l1.67,108.84,2.66,173.3-55.67,1.19s24.21-11.95,23.69-17.77Z"/><path class="cls-9" d="M272.11,632.06c-19.5-3.19-36.85-9.97-49.53-16.09-6.04-50.69-11.08-92.74-11.08-92.74h58.94l1.67,108.84Z"/><path class="cls-9" d="M361.17,627.77c-18.14,2.75-35.15,3.69-45.89,3.99-13.26-57.34-25.26-108.25-25.26-108.25h58.94l12.21,104.26Z"/><path class="cls-5" d="M274.83,763.23l3.26,22.34c.81,5.54-3.49,10.51-9.09,10.51h-79.91c-2.13,0-2.81-2.87-.9-3.82l36.17-18.09c.38-.19.81-.26,1.23-.19,4.82.81,35.82,5.3,45.5-11.47.96-1.66,3.46-1.18,3.74.71Z"/><path class="cls-2" d="M314.28,256.82l-107.06,7.26s-2.72,295.79-1.81,336.62c0,0,81.66,33.57,154.24-9.07,0,0-19.05-237.72-45.37-334.8Z"/><path class="cls-2" d="M257.19,10.67s-27.04-6.96-28.5,20.52c-1.46,27.49,5.86,57.57,5.86,57.57,0,0,2.19,16.7-6.68,31.72,0,0,46.84-2.07,56.53-23.01l5.34-79.39-32.55-7.41Z"/><path class="cls-6" d="M246.45,182.13l17.16-85.35s-43.39,7.34-20.06-72.36c0,0,17.5-14.77,37.02-2.65,19.53,12.12,18.69,31.52,18.69,31.52l1.85,128.84h-54.66Z"/><path class="cls-2" d="M244.55,21.61s6.69,11.58,15.59,18.23c7.52,5.62,17.11,6.23,20.48,8.54,0,0,6.28,38.76-16.78,71.48,0,0,28.36,2.97,51.12-21.9,0,0-4.3,6.52-8.69,11.49,0,0,34.33,4.56,20.49-74.84-8.96-51.39-70.87-32.48-80.58-24.84l-1.63,11.84Z"/><path class="cls-6" d="M0,179.26l35.82,21.55,19.9.9,9.59,10.85,12.08,13.66,16.9-19.53-14.61-11.38-16.34-12.72-8.7-7.75c-5.46-4.7-12.17-2.08-12.17-2.08l6.98,8.55-16.37-.69-22.08-6.99c-6.5,1.39-10.99,5.63-10.99,5.63Z"/><path class="cls-1" d="M300.06,155.8s-34.38,20.51-64.2-5.75l-12.82,175.37s38.01,17,73.01,0l4-169.63Z"/><polygon class="cls-9" points="65.3 212.55 77.38 226.22 94.28 206.69 79.67 195.31 65.3 212.55"/><path class="cls-10" d="M286.85,312.22c.52,16.93,1.34,34.96,2.58,53.72,4.94,74.85,12.48,161.11,19.27,233.23h85.88s-31.17-188.81-31.17-188.81l-14.28-86.54-.06-.39,27.95,11.27c18.03,7.25,36.56-9.3,31.36-28.02l-42.62-144.94c-1.69-5.74-6.11-10.28-11.81-12.12l-44.94-14.44-8.34-2.54s-14.54,58.2-14.54,86.45c0,11.01-1.25,29.92.7,93.13Z"/><path class="cls-10" d="M81.54,194.17l-12.97,32.42,76.48,65.27c5.47,4.67,13.72,3.91,18.24-1.68l46.75-57.77,15.48-95.62s-19.48,5.61-32.48,20.61l-49.18,74.9-62.32-38.13Z"/><path class="cls-10" d="M221.56,599.17l12.5-235.74c.23-16.68.56-32.59.96-47.69,3.02-114.43,22.33-182.34,22.33-182.34l-35.28,3.99-11.01,32.01c-14,34-9,69-9,69,7,42.01,0,71.02,0,71.02-14.42,57.69-23.92,186.48-29.52,289.75l-1.27,24.41s5.05,7.91,50.88,4.02l-.57-28.43Z"/><path class="cls-2" d="M289.28,353.24h1.85c0-11.77,4.6-58.78,12.12-100.28,7.2-39.72,17.17-73.93,17.27-74.27l.23-.77-17.48-7.97,24.69-8.07-25.79-29.48-1.4,1.22,23.94,27.37-26.54,8.67,20.34,9.28c-1.52,5.31-10.48,37.18-17.09,73.69-7.54,41.6-12.15,88.78-12.15,100.61Z"/><path class="cls-2" d="M232.19,347.17c1.93-51.02-2.85-164.78-3.31-175.41l19.35-3.93-20.47-14.93,29.34-18-.97-1.58-31.69,19.45,19.31,14.08-16.78,3.41.03.79c.05,1.22,5.35,122.84,3.34,176.05l1.85.07Z"/><path class="cls-2" d="M348.61,421.81l.52-1.78c-31.84-9.27-37.63-42.23-37.68-42.56l-1.83.3c.06.34,6.01,34.44,38.99,44.04Z"/><path class="cls-2" d="M190.37,414.59c27.67-8.2,33.12-37.02,33.17-37.31l-1.82-.33c-.05.28-5.32,27.99-31.87,35.86l.53,1.78Z"/><path class="cls-6" d="M202.91,289.78l49.31,10.76,35.86-8.07,16.67,6.66,5.79,2.32,3.65-23.32-.51-.04-20.21-1.75-9.87-5.38c-24.21-8.97-51.1,0-51.1,0,6.27,8.07,11.65,3.59,19.72,5.38,8.06,1.79,5.38,5.38,5.38,5.38l-16.14,3.58-29.58-3.58c-4.48.9-8.97,8.06-8.97,8.06Z"/><path class="cls-7" d="M205.53,205.33l2.94-.08c-.71-27.27,7.47-48.06,23.67-60.13,12.26-9.13,24.94-10.16,25.06-10.17l-.21-2.94c-.55.04-13.55,1.07-26.49,10.65-11.91,8.82-25.91,26.85-24.98,62.66Z"/><polygon class="cls-9" points="345.57 238.64 356.69 277.55 334.46 273.85 349.28 271.07 345.57 238.64"/><circle class="cls-4" cx="207.35" cy="206.56" r="10.77"/><circle class="cls-7" cx="207.35" cy="206.56" r="5.92"/><path class="cls-4" d="M320.68,258.81l-9.54-2.83c-4.28-1.27-6.84-5.67-5.82-10.02l7.62-32.47,2.82.66-7.62,32.47c-.67,2.86,1.01,5.74,3.82,6.58l9.54,2.83-.82,2.78Z"/><path class="cls-4" d="M337.28,261.1l9.95-.14c4.47-.06,8.12-3.61,8.32-8.07l1.45-33.32-2.9-.13-1.45,33.32c-.13,2.93-2.53,5.26-5.46,5.3l-9.95.14.04,2.9Z"/><rect class="cls-7" x="319.01" y="253.57" width="5.39" height="7.87" rx="2.69" ry="2.69" transform="translate(-11.2 500.35) rotate(-74.79)"/><rect class="cls-7" x="333.95" y="255.63" width="5.39" height="7.87" rx="2.69" ry="2.69" transform="translate(74.19 593.96) rotate(-89.51)"/><path class="cls-2" d="M317.02,202.49c4.78-8.06,11.19-12.23,18.58-12.15.61-21.88-5.13-38.51-16.72-48.17-9.09-7.58-18.69-8.31-18.79-8.32l.1-1.47.09-1.47c.43.03,10.52.77,20.35,8.88,8.73,7.22,18.79,21.87,17.93,50.81,4.98.79,9.42,3.33,12.62,7.3,4.22,5.24,6.39,12.78,6.45,22.42,0,.6-.49,1.1-1.09,1.09l-1.98-.02c-.59,0-1.06-.49-1.07-1.08-.14-22.08-11.82-25.4-16.89-25.79-13.53-1.05-19.2,16.21-20.42,20.59-.15.55-.71.89-1.28.77l-1.94-.43c-.6-.13-.97-.74-.81-1.34.57-2.1,2.07-6.88,4.87-11.61Z"/><polygon class="cls-9" points="304.74 299.14 310.53 301.45 314.18 278.13 313.67 278.09 304.74 299.14"/><polygon class="cls-9" points="334.46 318.31 363.42 410.35 349.14 323.82 334.46 318.31"/><path class="cls-10" d="M308.7,599.17l4.35,27.25s51.99,11.85,86.36,1.18l-4.84-28.44"/><path class="cls-3" d="M246.24,79.1h14.17s-9.44,11.33-14.17,0Z"/></g></svg>