<?xml version="1.0" encoding="UTF-8"?><svg id="Ebene_2" xmlns="http://www.w3.org/2000/svg" viewBox="0 0 1343.62 1067.19"><defs><style>.cls-1{fill:#3d5d8a;}.cls-1,.cls-2,.cls-3,.cls-4,.cls-5,.cls-6,.cls-7,.cls-8,.cls-9,.cls-10,.cls-11,.cls-12{stroke-width:0px;}.cls-2{fill:#4d52b5;}.cls-3{fill:#0c2f3d;}.cls-4{fill:#f4f6fa;}.cls-5{fill:#fff;}.cls-6{fill:#9f9f9f;}.cls-7{fill:#f9b795;}.cls-8{fill:#143847;}.cls-13{fill:none;stroke:#4e52b2;stroke-miterlimit:10;stroke-width:4.25px;}.cls-9{fill:#123245;}.cls-10{opacity:.1;}.cls-11{fill:#d7e9ff;}.cls-12{fill:#002951;}</style></defs><g id="Layer_1"><path class="cls-3" d="M702.98,837.58c-1.8-4.79-2.57-7.79-2.61-7.95l-3.82.94c.04.15.71,2.77,2.25,7.01h4.19Z"/><path class="cls-7" d="M207.81,441.72l-34.16,38.7-24.25-17.6-7.57.69-18.98,1.69c-26.2,5-78.12-16.03-85.38-24.92-7.69-9.42,5.09-14.48,5.09-14.48l-25.74-11.72c-2.08-.96-3.82-2.62-4.76-4.7-4.35-9.56,8.99-11.98,8.99-11.98l-16.32-10.44c-1.67-1.06-3.01-2.64-3.74-4.48-2.01-5.01-.65-8.4,1.4-10.58,2.5-2.64,6.43-3.34,9.85-2.14l10.56,3.72c-2.77-4.64-1.73-7.73.24-9.7,2.42-2.44,6.2-2.95,9.34-1.55,19.79,8.79,116.19,50.88,92.93,25.67-.49-.51-.94-1.02-1.4-1.53-24.05-27.14-11.66-43.35-11.66-43.35l41.05,41.91c19.37,15.99,26.81,37.43,28.5,43.15.3.94.41,1.46.41,1.46l25.61,12.19Z"/><path class="cls-10" d="M207.81,441.72l-34.16,38.7-24.25-17.6-7.57.69,39.96-35.44c.3.94.41,1.46.41,1.46l25.61,12.19Z"/><path class="cls-7" d="M1135.81,491.91l34.16,38.7,24.25-17.6,7.57.69,18.98,1.69c26.2,5,78.12-16.03,85.38-24.92,7.69-9.42-5.09-14.48-5.09-14.48l25.74-11.72c2.08-.96,3.82-2.62,4.76-4.7,4.35-9.56-8.99-11.98-8.99-11.98l16.32-10.44c1.67-1.06,3.01-2.64,3.74-4.48,2.01-5.01.65-8.4-1.4-10.58-2.5-2.64-6.43-3.34-9.85-2.14l-10.56,3.72c2.77-4.64,1.73-7.73-.24-9.7-2.42-2.44-6.2-2.95-9.34-1.55-19.79,8.79-116.19,50.88-92.93,25.67.49-.51.94-1.02,1.4-1.53,24.05-27.14,11.66-43.35,11.66-43.35l-41.05,41.91c-19.37,15.99-26.81,37.43-28.5,43.15-.3.94-.41,1.46-.41,1.46l-25.61,12.19Z"/><path class="cls-10" d="M1137.22,493.32l34.16,38.7,24.25-17.6,7.57.69-39.96-35.44c-.3.94-.41,1.46-.41,1.46l-25.61,12.19Z"/><path class="cls-11" d="M443.73,678.5l30.75-53.81-9.91,212.9h395.48l-28.84-274.95,44.93,116.09-.05.5,30.75,53.81c11.97,20.95,39.63,26.63,58.88,12.08l244.93-184.98-51.13-94.4-188.8,118-69.14-160.25-19.89-69.08c-3.03-10.52-10.1-19.42-19.66-24.74l-153.73-85.63s-36.38,148.56-47.2,198.08c-8.09,37.04-37.37,246.4-37.37,246.4,0,0-13.77-194.7-16.04-243.02-2.15-45.69-.55-180.43-.55-180.43l-141.32,73.76c-11.66,6.09-20.67,16.27-25.29,28.59l-60.68,161.81-188.8-118-51.13,94.4,244.93,184.98c19.26,14.54,46.91,8.87,58.88-12.08Z"/><rect class="cls-3" x="922.06" y="584.55" width="96.27" height="3.93" transform="translate(-162.75 627.91) rotate(-33.25)"/><path class="cls-3" d="M1252.64,456.87c23.65-3.94,69.48-28.66,71.41-29.71l-1.87-3.46c-.47.25-47.18,25.46-70.19,29.29l.65,3.88Z"/><path class="cls-3" d="M1254.76,474.54c15.66-3.91,69.88-24.27,72.18-25.13l-1.38-3.68c-.56.21-56.31,21.14-71.76,25l.95,3.81Z"/><path class="cls-3" d="M1256.57,492.27c11.83-1.97,44.19-13.37,45.57-13.85l-1.31-3.71c-.33.12-33.41,11.77-44.9,13.68l.65,3.88Z"/><circle class="cls-6" cx="810.97" cy="514.07" r="20.22"/><circle class="cls-9" cx="810.97" cy="514.07" r="11.12"/><path class="cls-9" d="M815.1,511.78l-6.96-.19c3.57-128.34-25.91-192.58-51.26-223.87-26.99-33.32-54.69-36.98-54.97-37.02l1.09-7.76c1.24.15,30.53,4.91,59.28,40.4,26.09,32.21,56.44,97.98,52.81,228.45Z"/><path class="cls-6" d="M565.56,567.94l22.51-6.84c10.11-3.07,16.07-13.52,13.58-23.79l-18.58-76.61-6.66,1.62,18.58,76.61c1.63,6.74-2.28,13.59-8.92,15.61l-22.51,6.84,1.99,6.56Z"/><path class="cls-6" d="M526.36,573.64l-23.53-.15c-10.56-.07-19.26-8.38-19.8-18.93l-4.01-78.73,6.85-.35,4.01,78.73c.35,6.92,6.06,12.38,12.99,12.43l23.53.15-.04,6.86Z"/><rect class="cls-9" x="553.8" y="558.51" width="18.61" height="12.73" rx="6.37" ry="6.37" transform="translate(-131.41 172.67) rotate(-15.64)"/><rect class="cls-9" x="518.54" y="563.64" width="18.61" height="12.73" rx="6.37" ry="6.37" transform="translate(-9.02 8.49) rotate(-.91)"/><path class="cls-9" d="M573.23,434.74c-11.46-18.99-26.69-28.74-44.18-28.4-1.65-51.38,11.7-91.22,38.82-115.5,21.4-19.16,44.11-22.12,44.33-22.15l-.42-3.45-.41-3.46c-1,.12-24.81,3.15-47.83,23.59-20.39,18.11-43.74,53.8-41.44,121.62-11.76,1.95-22.19,8.06-29.68,17.49-9.89,12.45-14.88,30.31-14.85,53.1,0,1.43,1.17,2.58,2.6,2.56l4.68-.08c1.39-.02,2.51-1.17,2.51-2.56-.06-52.19,27.49-60.24,39.48-61.26,31.97-2.72,45.67,37.99,48.62,48.31.37,1.31,1.7,2.09,3.03,1.79l4.58-1.06c1.42-.33,2.28-1.77,1.88-3.18-1.39-4.95-5-16.23-11.72-27.37Z"/><path class="cls-12" d="M708.35,134.97s-4.11,24.65-8.22,41.08c-4.11,16.43-20.54,12.32-20.54,12.32l-4.11-41.08,32.86-12.32Z"/><path class="cls-7" d="M712.78,265.52l-97.57,64.58c-4.19-43.84-2.52-45.31-4.46-72.28-.53-7.06-1.28-15.85-2.48-27.61,0-.14-.02-.29-.04-.45-81.4,27.24-56.21-148.33-56.21-148.33,0,0,13.88-45.12,81.46-55.62,67.58-10.5,64.02,77.72,64.02,77.72,40.26,5.68-1.89,57.03-4.5,61.3l19.78,100.69Z"/><path class="cls-9" d="M674.8,112.11h-34.52c-4.13-8.13-12.55-13.72-22.28-13.72-13.01,0-23.72,10-24.87,22.72h-13.86c-1.15-12.72-11.86-22.72-24.87-22.72-13.78,0-24.99,11.21-24.99,24.99s11.21,24.99,24.99,24.99c13.01,0,23.72-10,24.87-22.72h13.86c1.15,12.72,11.86,22.72,24.87,22.72,13.78,0,24.99-11.21,24.99-24.99,0-2.33-.34-4.58-.94-6.72h32.75v-4.54ZM554.41,143.82c-11.27,0-20.45-9.17-20.45-20.45s9.17-20.45,20.45-20.45,20.45,9.17,20.45,20.45-9.17,20.45-20.45,20.45ZM618.01,143.82c-11.27,0-20.45-9.17-20.45-20.45s9.17-20.45,20.45-20.45,20.45,9.17,20.45,20.45-9.17,20.45-20.45,20.45Z"/><path class="cls-1" d="M619.79,729.8l89.19-481.08-.72-2.81s-9.83,62.13-60.93,64.97c-35.4,1.97-42.16-44.24-42.16-44.24l1.97,52.11s-.82,103.99,1.53,138.65c2.78,41.06,11.13,272.39,11.13,272.39Z"/><path class="cls-3" d="M627.36,682.58l-3.93-.03c.02-2.76,2.44-276.54,16.94-370.97l3.89.6c-14.46,94.15-16.87,367.66-16.9,370.41Z"/><circle class="cls-3" cx="627.65" cy="332.49" r="3.93"/><circle class="cls-3" cx="624.92" cy="383.59" r="3.93"/><circle class="cls-3" cx="622.21" cy="432.72" r="3.93"/><rect class="cls-3" x="380.9" y="484.17" width="3.93" height="96.27" transform="translate(-272.22 560.67) rotate(-56.75)"/><path class="cls-3" d="M92.39,405.27c-23.65-3.94-69.48-28.66-71.41-29.71l1.87-3.46c.47.25,47.18,25.46,70.19,29.29l-.65,3.88Z"/><path class="cls-3" d="M90.27,422.94c-15.66-3.91-69.88-24.27-72.18-25.13l1.38-3.68c.56.21,56.31,21.14,71.76,25l-.95,3.81Z"/><path class="cls-3" d="M88.46,440.67c-11.83-1.97-44.19-13.37-45.57-13.85l1.31-3.71c.33.12,33.41,11.77,44.9,13.68l-.65,3.88Z"/><path class="cls-10" d="M668.94,188.52c-19.73,43.19-43.35,61.6-58.2,69.31-.53-7.06-1.28-15.85-2.48-27.61,38.08-13.71,59.89-40.71,60.67-41.69Z"/><path class="cls-3" d="M675.95,26.37s-46.95-44.5-85.78-17.89c0,0-29.15,36.32-60.65,24.15,0,0-.03,19.4,12.09,24.26,0,0-16.99,12.1-31.53,7.23,0,0,16.85,77.61,89.66,29.23l-2.45,16.97s48.48,4.92,55.82-38.71l18.17,52.68,11.26-4.52s.95-7.5,9.4-12.18c8.45-4.68,22.25-4.57,22.21,21.68,0,0,28.49-108.88-38.19-102.92Z"/><path class="cls-5" d="M625.02,183.56s-35.94-1.68-47.93,12.05c-11.99,13.73,27.08,52.4,47.93-12.05Z"/><path class="cls-8" d="M640.21,316.51l-18.45-13.48-33.43,39.33s-9.17-71.11,21.29-89.87l31.81,56.43s55.41-17.52,67.21-64.72c0,0,21.29,52.92-12.85,98.16l-30.76-34.6-24.82,8.75Z"/><path class="cls-4" d="M1201.92,728.38H121.12c-25.69,0-46.52,10.15-46.52,22.66v226.73c0,12.52,20.83,22.66,46.52,22.66h64.66v66.75l186.86-66.75h829.28c25.69,0,46.52-10.15,46.52-22.66v-226.73c0-12.52-20.83-22.66-46.52-22.66Z"/><path class="cls-13" d="M203.09,875.72c-.17-.6.2-1.42.55-2.02.11-.18.22-.35.35-.51,2.97-4.42,4.57-9.62,4.57-14.95.05-15.27-12.83-27.65-28.76-27.65-13.89,0-25.48,9.45-28.2,22-.41,1.86-.61,3.76-.61,5.66,0,15.28,12.38,28,28.31,28,2.53,0,5.94-.76,7.82-1.27,1.87-.51,3.73-1.19,4.21-1.37.49-.19,1.01-.28,1.54-.28.57,0,1.14.11,1.67.33l9.39,3.33c.21.09.42.14.65.17.35,0,.69-.14.94-.39.25-.25.39-.59.39-.94-.01-.15-.04-.3-.08-.45l-2.72-9.65Z"/><path class="cls-13" d="M144.53,859.84c-2.17,3.9-3.22,8.33-3.04,12.79.19,4.46,1.6,8.78,4.09,12.49.38.58.6,1.02.53,1.32-.07.3-1.98,10.24-1.98,10.24-.05.23-.03.47.05.7.08.22.22.42.4.57.24.19.54.3.85.29.17,0,.33-.03.48-.1l9.31-3.64c.64-.25,1.36-.24,1.99.03,3.14,1.22,6.6,1.99,10.07,1.99,4.65,0,9.23-1.22,13.25-3.56"/><path class="cls-2" d="M277.12,838.94v48.73h-5.71l-26.55-38.26h-.48v38.26h-5.9v-48.73h5.71l26.65,38.35h.48v-38.35h5.81Z"/><path class="cls-2" d="M303,888.43c-3.3,0-6.19-.79-8.67-2.36s-4.42-3.77-5.81-6.59-2.08-6.12-2.08-9.9.69-7.13,2.08-9.97,3.32-5.04,5.81-6.61,5.37-2.36,8.67-2.36,6.19.79,8.67,2.36,4.42,3.78,5.81,6.61c1.39,2.84,2.08,6.16,2.08,9.97s-.69,7.07-2.08,9.9c-1.39,2.82-3.32,5.02-5.81,6.59s-5.37,2.36-8.67,2.36ZM303,883.38c2.51,0,4.57-.64,6.19-1.93s2.82-2.97,3.59-5.07,1.17-4.36,1.17-6.8-.39-4.72-1.17-6.83-1.97-3.81-3.59-5.12c-1.62-1.3-3.68-1.95-6.19-1.95s-4.57.65-6.19,1.95c-1.62,1.3-2.82,3.01-3.59,5.12s-1.17,4.39-1.17,6.83.39,4.71,1.17,6.8,1.97,3.78,3.59,5.07,3.68,1.93,6.19,1.93Z"/><path class="cls-2" d="M346.97,887.67v-36.55h5.42v5.71h.48c.76-1.95,1.99-3.47,3.69-4.56,1.7-1.09,3.74-1.63,6.12-1.63s4.42.54,6.03,1.63c1.61,1.09,2.87,2.61,3.77,4.56h.38c.94-1.89,2.34-3.39,4.21-4.51,1.87-1.12,4.12-1.68,6.73-1.68,3.27,0,5.94,1.02,8.02,3.06s3.12,5.21,3.12,9.5v24.46h-5.62v-24.46c0-2.7-.74-4.62-2.21-5.78s-3.21-1.74-5.21-1.74c-2.57,0-4.56.77-5.97,2.32-1.41,1.55-2.12,3.5-2.12,5.87v23.79h-5.71v-25.03c0-2.08-.67-3.76-2.02-5.03-1.35-1.28-3.09-1.92-5.21-1.92-1.46,0-2.82.39-4.08,1.17-1.26.78-2.28,1.85-3.05,3.22s-1.15,2.95-1.15,4.75v22.84h-5.61Z"/><path class="cls-2" d="M420.54,888.43c-3.52,0-6.55-.78-9.1-2.34s-4.5-3.75-5.88-6.57-2.06-6.09-2.06-9.84.69-7.05,2.06-9.91c1.37-2.86,3.29-5.1,5.76-6.71,2.47-1.61,5.35-2.42,8.65-2.42,1.9,0,3.78.32,5.64.95,1.86.63,3.54,1.66,5.07,3.08,1.52,1.42,2.74,3.29,3.64,5.63.9,2.33,1.36,5.2,1.36,8.61v2.38h-28.17v-4.85h22.46c0-2.06-.41-3.9-1.23-5.52-.82-1.62-1.97-2.89-3.47-3.83-1.5-.94-3.26-1.4-5.29-1.4-2.24,0-4.17.55-5.79,1.65-1.63,1.1-2.88,2.53-3.75,4.29-.87,1.76-1.31,3.65-1.31,5.66v3.24c0,2.76.48,5.1,1.44,7.01.96,1.91,2.3,3.36,4.01,4.35,1.71.99,3.7,1.49,5.97,1.49,1.47,0,2.81-.21,4.01-.63,1.2-.42,2.23-1.05,3.1-1.9.87-.85,1.55-1.91,2.02-3.18l5.42,1.52c-.57,1.84-1.53,3.45-2.88,4.84-1.35,1.39-3.01,2.47-5,3.24-1.98.77-4.21,1.15-6.69,1.15Z"/><path class="cls-2" d="M470.12,859.3l-5.04,1.43c-.32-.84-.78-1.66-1.39-2.46-.61-.8-1.44-1.46-2.49-1.99s-2.39-.79-4.02-.79c-2.24,0-4.1.51-5.58,1.53-1.48,1.02-2.22,2.32-2.22,3.89,0,1.4.51,2.5,1.52,3.31,1.02.81,2.6,1.48,4.76,2.02l5.42,1.33c3.27.79,5.7,2,7.3,3.63,1.6,1.63,2.4,3.72,2.4,6.27,0,2.09-.6,3.97-1.8,5.61-1.2,1.65-2.87,2.95-5.01,3.9-2.14.95-4.63,1.43-7.47,1.43-3.73,0-6.81-.81-9.25-2.43-2.44-1.62-3.99-3.98-4.64-7.09l5.33-1.33c.51,1.97,1.47,3.44,2.89,4.43,1.42.98,3.28,1.48,5.58,1.48,2.62,0,4.7-.56,6.25-1.68,1.55-1.12,2.32-2.46,2.32-4.03,0-1.27-.44-2.33-1.33-3.2s-2.25-1.51-4.09-1.94l-6.09-1.43c-3.35-.79-5.8-2.03-7.36-3.7s-2.34-3.77-2.34-6.29c0-2.06.58-3.89,1.75-5.47,1.17-1.59,2.76-2.83,4.78-3.74,2.02-.9,4.32-1.36,6.89-1.36,3.62,0,6.46.79,8.53,2.38,2.07,1.59,3.54,3.68,4.41,6.28Z"/><path class="cls-2" d="M505.15,859.3l-5.04,1.43c-.32-.84-.78-1.66-1.39-2.46-.61-.8-1.44-1.46-2.49-1.99s-2.39-.79-4.02-.79c-2.24,0-4.1.51-5.58,1.53-1.48,1.02-2.22,2.32-2.22,3.89,0,1.4.51,2.5,1.52,3.31,1.02.81,2.6,1.48,4.76,2.02l5.42,1.33c3.27.79,5.7,2,7.3,3.63,1.6,1.63,2.4,3.72,2.4,6.27,0,2.09-.6,3.97-1.8,5.61-1.2,1.65-2.87,2.95-5.01,3.9-2.14.95-4.63,1.43-7.47,1.43-3.73,0-6.81-.81-9.25-2.43-2.44-1.62-3.99-3.98-4.64-7.09l5.33-1.33c.51,1.97,1.47,3.44,2.89,4.43,1.42.98,3.28,1.48,5.58,1.48,2.62,0,4.7-.56,6.25-1.68,1.55-1.12,2.32-2.46,2.32-4.03,0-1.27-.44-2.33-1.33-3.2s-2.25-1.51-4.09-1.94l-6.09-1.43c-3.35-.79-5.8-2.03-7.36-3.7s-2.34-3.77-2.34-6.29c0-2.06.58-3.89,1.75-5.47,1.17-1.59,2.76-2.83,4.78-3.74,2.02-.9,4.32-1.36,6.89-1.36,3.62,0,6.46.79,8.53,2.38,2.07,1.59,3.54,3.68,4.41,6.28Z"/><path class="cls-2" d="M525.04,888.52c-2.32,0-4.42-.44-6.3-1.32-1.89-.88-3.39-2.16-4.5-3.83s-1.67-3.7-1.67-6.08c0-2.09.41-3.79,1.24-5.1.83-1.31,1.93-2.34,3.31-3.08s2.91-1.3,4.58-1.68c1.67-.37,3.36-.67,5.06-.89,2.22-.29,4.02-.5,5.41-.65,1.39-.15,2.4-.41,3.04-.77.64-.36.96-1,.96-1.9v-.19c0-2.35-.64-4.17-1.92-5.47-1.28-1.3-3.21-1.95-5.79-1.95s-4.78.59-6.3,1.76c-1.52,1.17-2.59,2.43-3.21,3.76l-5.33-1.9c.95-2.22,2.22-3.95,3.82-5.2,1.59-1.25,3.34-2.12,5.23-2.62,1.89-.5,3.76-.75,5.6-.75,1.17,0,2.53.14,4.06.42,1.53.28,3.01.84,4.45,1.7s2.63,2.15,3.58,3.88c.95,1.73,1.43,4.04,1.43,6.95v24.08h-5.62v-4.95h-.29c-.38.79-1.02,1.64-1.9,2.55-.89.9-2.07,1.67-3.55,2.31-1.47.63-3.28.95-5.4.95ZM525.89,883.48c2.22,0,4.1-.44,5.63-1.31,1.53-.87,2.69-2,3.47-3.38s1.18-2.83,1.18-4.35v-5.14c-.24.29-.76.54-1.56.77-.8.23-1.72.43-2.76.59s-2.05.31-3.02.43c-.98.12-1.76.22-2.37.3-1.46.19-2.82.5-4.08.92-1.26.42-2.28,1.05-3.04,1.88-.77.83-1.15,1.96-1.15,3.39,0,1.95.73,3.42,2.18,4.41,1.45.99,3.3,1.49,5.53,1.49Z"/><path class="cls-2" d="M566.82,902.13c-2.71,0-5.04-.34-7-1.03-1.95-.69-3.57-1.59-4.87-2.71-1.29-1.12-2.32-2.31-3.08-3.58l4.47-3.14c.51.67,1.15,1.43,1.93,2.3s1.84,1.62,3.2,2.26c1.36.64,3.14.96,5.34.96,2.95,0,5.38-.71,7.3-2.14,1.92-1.43,2.88-3.66,2.88-6.71v-7.42h-.48c-.41.67-1,1.49-1.75,2.46-.75.98-1.83,1.84-3.24,2.59-1.4.75-3.29,1.13-5.67,1.13-2.95,0-5.59-.7-7.93-2.09-2.34-1.4-4.19-3.43-5.54-6.09-1.36-2.66-2.03-5.9-2.03-9.71s.66-7.01,1.98-9.79c1.32-2.78,3.15-4.94,5.5-6.47,2.35-1.53,5.06-2.3,8.14-2.3,2.38,0,4.27.39,5.67,1.18,1.4.79,2.48,1.67,3.24,2.67.75.99,1.34,1.8,1.75,2.44h.57v-5.81h5.42v37.59c0,3.14-.71,5.7-2.13,7.67-1.42,1.97-3.32,3.43-5.71,4.35-2.39.93-5.04,1.39-7.96,1.39ZM566.63,882.05c2.25,0,4.16-.52,5.71-1.55,1.55-1.03,2.74-2.51,3.55-4.45.81-1.94,1.21-4.25,1.21-6.95s-.4-4.96-1.19-6.97-1.97-3.59-3.52-4.73-3.47-1.71-5.76-1.71-4.36.6-5.94,1.81-2.76,2.82-3.54,4.85c-.79,2.03-1.18,4.28-1.18,6.76s.4,4.78,1.2,6.72c.8,1.94,1.99,3.47,3.57,4.57s3.54,1.65,5.89,1.65Z"/><path class="cls-2" d="M608.22,888.43c-3.52,0-6.55-.78-9.1-2.34s-4.5-3.75-5.88-6.57-2.06-6.09-2.06-9.84.69-7.05,2.06-9.91c1.37-2.86,3.29-5.1,5.76-6.71,2.47-1.61,5.35-2.42,8.65-2.42,1.9,0,3.78.32,5.64.95,1.86.63,3.54,1.66,5.07,3.08,1.52,1.42,2.74,3.29,3.64,5.63.9,2.33,1.36,5.2,1.36,8.61v2.38h-28.17v-4.85h22.46c0-2.06-.41-3.9-1.23-5.52-.82-1.62-1.97-2.89-3.47-3.83-1.5-.94-3.26-1.4-5.29-1.4-2.24,0-4.17.55-5.79,1.65-1.63,1.1-2.88,2.53-3.75,4.29-.87,1.76-1.31,3.65-1.31,5.66v3.24c0,2.76.48,5.1,1.44,7.01.96,1.91,2.3,3.36,4.01,4.35,1.71.99,3.7,1.49,5.97,1.49,1.47,0,2.81-.21,4.01-.63,1.2-.42,2.23-1.05,3.1-1.9.87-.85,1.55-1.91,2.02-3.18l5.42,1.52c-.57,1.84-1.53,3.45-2.88,4.84-1.35,1.39-3.01,2.47-5,3.24-1.98.77-4.21,1.15-6.69,1.15Z"/><path class="cls-2" d="M657.8,859.3l-5.04,1.43c-.32-.84-.78-1.66-1.39-2.46-.61-.8-1.44-1.46-2.49-1.99s-2.39-.79-4.02-.79c-2.24,0-4.1.51-5.58,1.53-1.48,1.02-2.22,2.32-2.22,3.89,0,1.4.51,2.5,1.52,3.31,1.02.81,2.6,1.48,4.76,2.02l5.42,1.33c3.27.79,5.7,2,7.3,3.63,1.6,1.63,2.4,3.72,2.4,6.27,0,2.09-.6,3.97-1.8,5.61-1.2,1.65-2.87,2.95-5.01,3.9-2.14.95-4.63,1.43-7.47,1.43-3.73,0-6.81-.81-9.25-2.43-2.44-1.62-3.99-3.98-4.64-7.09l5.33-1.33c.51,1.97,1.47,3.44,2.89,4.43,1.42.98,3.28,1.48,5.58,1.48,2.62,0,4.7-.56,6.25-1.68,1.55-1.12,2.32-2.46,2.32-4.03,0-1.27-.44-2.33-1.33-3.2s-2.25-1.51-4.09-1.94l-6.09-1.43c-3.35-.79-5.8-2.03-7.36-3.7s-2.34-3.77-2.34-6.29c0-2.06.58-3.89,1.75-5.47,1.17-1.59,2.76-2.83,4.78-3.74,2.02-.9,4.32-1.36,6.89-1.36,3.62,0,6.46.79,8.53,2.38,2.07,1.59,3.54,3.68,4.41,6.28Z"/><path class="cls-2" d="M696.53,888.52c-2.32,0-4.42-.44-6.3-1.32-1.89-.88-3.39-2.16-4.5-3.83s-1.67-3.7-1.67-6.08c0-2.09.41-3.79,1.24-5.1.83-1.31,1.93-2.34,3.31-3.08s2.91-1.3,4.58-1.68c1.67-.37,3.36-.67,5.06-.89,2.22-.29,4.02-.5,5.41-.65,1.39-.15,2.4-.41,3.04-.77.64-.36.96-1,.96-1.9v-.19c0-2.35-.64-4.17-1.92-5.47-1.28-1.3-3.21-1.95-5.79-1.95s-4.78.59-6.3,1.76c-1.52,1.17-2.59,2.43-3.21,3.76l-5.33-1.9c.95-2.22,2.22-3.95,3.82-5.2,1.59-1.25,3.34-2.12,5.23-2.62,1.89-.5,3.76-.75,5.6-.75,1.17,0,2.53.14,4.06.42,1.53.28,3.01.84,4.45,1.7s2.63,2.15,3.58,3.88c.95,1.73,1.43,4.04,1.43,6.95v24.08h-5.62v-4.95h-.29c-.38.79-1.02,1.64-1.9,2.55-.89.9-2.07,1.67-3.55,2.31-1.47.63-3.28.95-5.4.95ZM697.39,883.48c2.22,0,4.1-.44,5.63-1.31,1.53-.87,2.69-2,3.47-3.38s1.18-2.83,1.18-4.35v-5.14c-.24.29-.76.54-1.56.77-.8.23-1.72.43-2.76.59s-2.05.31-3.02.43c-.98.12-1.76.22-2.37.3-1.46.19-2.82.5-4.08.92-1.26.42-2.28,1.05-3.04,1.88-.77.83-1.15,1.96-1.15,3.39,0,1.95.73,3.42,2.18,4.41,1.45.99,3.3,1.49,5.53,1.49Z"/><path class="cls-2" d="M752.11,851.12l-13.51,36.55h-5.71l-13.51-36.55h6.09l10.09,29.12h.38l10.09-29.12h6.09Z"/><path class="cls-2" d="M769.15,888.52c-2.32,0-4.42-.44-6.3-1.32-1.89-.88-3.39-2.16-4.5-3.83s-1.67-3.7-1.67-6.08c0-2.09.41-3.79,1.24-5.1.83-1.31,1.93-2.34,3.31-3.08s2.91-1.3,4.58-1.68c1.67-.37,3.36-.67,5.06-.89,2.22-.29,4.02-.5,5.41-.65,1.39-.15,2.4-.41,3.04-.77.64-.36.96-1,.96-1.9v-.19c0-2.35-.64-4.17-1.92-5.47-1.28-1.3-3.21-1.95-5.79-1.95s-4.78.59-6.3,1.76c-1.52,1.17-2.59,2.43-3.21,3.76l-5.33-1.9c.95-2.22,2.22-3.95,3.82-5.2,1.59-1.25,3.34-2.12,5.23-2.62,1.89-.5,3.76-.75,5.6-.75,1.17,0,2.53.14,4.06.42,1.53.28,3.01.84,4.45,1.7s2.63,2.15,3.58,3.88c.95,1.73,1.43,4.04,1.43,6.95v24.08h-5.62v-4.95h-.29c-.38.79-1.02,1.64-1.9,2.55-.89.9-2.07,1.67-3.55,2.31-1.47.63-3.28.95-5.4.95ZM770,883.48c2.22,0,4.1-.44,5.63-1.31,1.53-.87,2.69-2,3.47-3.38s1.18-2.83,1.18-4.35v-5.14c-.24.29-.76.54-1.56.77-.8.23-1.72.43-2.76.59s-2.05.31-3.02.43c-.98.12-1.76.22-2.37.3-1.46.19-2.82.5-4.08.92-1.26.42-2.28,1.05-3.04,1.88-.77.83-1.15,1.96-1.15,3.39,0,1.95.73,3.42,2.18,4.41,1.45.99,3.3,1.49,5.53,1.49Z"/><path class="cls-2" d="M799.03,845.03c-1.09,0-2.03-.37-2.82-1.12s-1.18-1.64-1.18-2.69.39-1.94,1.18-2.69c.79-.75,1.72-1.12,2.82-1.12s2.03.37,2.82,1.12c.79.75,1.18,1.64,1.18,2.69s-.39,1.94-1.18,2.69-1.72,1.12-2.82,1.12ZM796.18,887.67v-36.55h5.61v36.55h-5.61Z"/><path class="cls-2" d="M817.68,838.94v48.73h-5.61v-48.73h5.61Z"/><path class="cls-2" d="M838.72,888.52c-2.32,0-4.42-.44-6.3-1.32-1.89-.88-3.39-2.16-4.5-3.83s-1.67-3.7-1.67-6.08c0-2.09.41-3.79,1.24-5.1.83-1.31,1.93-2.34,3.31-3.08s2.91-1.3,4.58-1.68c1.67-.37,3.36-.67,5.06-.89,2.22-.29,4.02-.5,5.41-.65,1.39-.15,2.4-.41,3.04-.77.64-.36.96-1,.96-1.9v-.19c0-2.35-.64-4.17-1.92-5.47-1.28-1.3-3.21-1.95-5.79-1.95s-4.78.59-6.3,1.76c-1.52,1.17-2.59,2.43-3.21,3.76l-5.33-1.9c.95-2.22,2.22-3.95,3.82-5.2,1.59-1.25,3.34-2.12,5.23-2.62,1.89-.5,3.76-.75,5.6-.75,1.17,0,2.53.14,4.06.42,1.53.28,3.01.84,4.45,1.7s2.63,2.15,3.58,3.88c.95,1.73,1.43,4.04,1.43,6.95v24.08h-5.62v-4.95h-.29c-.38.79-1.02,1.64-1.9,2.55-.89.9-2.07,1.67-3.55,2.31-1.47.63-3.28.95-5.4.95ZM839.57,883.48c2.22,0,4.1-.44,5.63-1.31,1.53-.87,2.69-2,3.47-3.38s1.18-2.83,1.18-4.35v-5.14c-.24.29-.76.54-1.56.77-.8.23-1.72.43-2.76.59s-2.05.31-3.02.43c-.98.12-1.76.22-2.37.3-1.46.19-2.82.5-4.08.92-1.26.42-2.28,1.05-3.04,1.88-.77.83-1.15,1.96-1.15,3.39,0,1.95.73,3.42,2.18,4.41,1.45.99,3.3,1.49,5.53,1.49Z"/><path class="cls-2" d="M866.51,887.67v-48.73h5.62v17.99h.48c.41-.63.99-1.45,1.73-2.44.74-.99,1.8-1.88,3.19-2.67s3.27-1.18,5.65-1.18c3.08,0,5.79.77,8.14,2.31s4.18,3.72,5.5,6.54,1.97,6.15,1.97,9.99-.66,7.22-1.97,10.05c-1.32,2.83-3.14,5.02-5.47,6.57-2.33,1.55-5.02,2.32-8.07,2.32-2.35,0-4.23-.39-5.64-1.18-1.41-.79-2.5-1.68-3.26-2.69-.76-1.01-1.35-1.84-1.76-2.51h-.67v5.62h-5.42ZM872.03,869.39c0,2.76.4,5.19,1.21,7.29.81,2.1,1.99,3.74,3.54,4.93s3.46,1.77,5.71,1.77,4.31-.62,5.89-1.87c1.58-1.25,2.77-2.93,3.57-5.04s1.2-4.48,1.2-7.08-.39-4.89-1.18-6.96c-.79-2.07-1.97-3.71-3.54-4.93s-3.56-1.82-5.94-1.82-4.2.57-5.76,1.72c-1.55,1.15-2.73,2.75-3.52,4.81-.79,2.05-1.19,4.45-1.19,7.17Z"/><path class="cls-2" d="M912.95,838.94v48.73h-5.61v-48.73h5.61Z"/><path class="cls-2" d="M938.55,888.43c-3.52,0-6.55-.78-9.1-2.34s-4.5-3.75-5.88-6.57-2.06-6.09-2.06-9.84.69-7.05,2.06-9.91c1.37-2.86,3.29-5.1,5.76-6.71,2.47-1.61,5.35-2.42,8.65-2.42,1.9,0,3.78.32,5.64.95,1.86.63,3.54,1.66,5.07,3.08,1.52,1.42,2.74,3.29,3.64,5.63.9,2.33,1.36,5.2,1.36,8.61v2.38h-28.17v-4.85h22.46c0-2.06-.41-3.9-1.23-5.52-.82-1.62-1.97-2.89-3.47-3.83-1.5-.94-3.26-1.4-5.29-1.4-2.24,0-4.17.55-5.79,1.65-1.63,1.1-2.88,2.53-3.75,4.29-.87,1.76-1.31,3.65-1.31,5.66v3.24c0,2.76.48,5.1,1.44,7.01.96,1.91,2.3,3.36,4.01,4.35,1.71.99,3.7,1.49,5.97,1.49,1.47,0,2.81-.21,4.01-.63,1.2-.42,2.23-1.05,3.1-1.9.87-.85,1.55-1.91,2.02-3.18l5.42,1.52c-.57,1.84-1.53,3.45-2.88,4.84-1.35,1.39-3.01,2.47-5,3.24-1.98.77-4.21,1.15-6.69,1.15Z"/><path class="cls-2" d="M984.71,901.27c-.95,0-1.8-.08-2.55-.23-.75-.15-1.26-.3-1.55-.44l1.43-4.95c2.05.52,3.75.51,5.12-.04,1.36-.55,2.55-2.19,3.54-4.91l1.05-2.85-13.51-36.74h6.09l10.09,29.12h.38l10.09-29.12,6.14.1-15.56,41.78c-.7,1.86-1.56,3.4-2.59,4.63-1.03,1.23-2.22,2.15-3.58,2.75s-2.88.9-4.58.9Z"/><path class="cls-2" d="M1032.43,888.43c-3.52,0-6.55-.78-9.1-2.34s-4.5-3.75-5.88-6.57-2.06-6.09-2.06-9.84.69-7.05,2.06-9.91c1.37-2.86,3.29-5.1,5.76-6.71,2.47-1.61,5.35-2.42,8.65-2.42,1.9,0,3.78.32,5.64.95,1.86.63,3.54,1.66,5.07,3.08,1.52,1.42,2.74,3.29,3.64,5.63.9,2.33,1.36,5.2,1.36,8.61v2.38h-28.17v-4.85h22.46c0-2.06-.41-3.9-1.23-5.52-.82-1.62-1.97-2.89-3.47-3.83-1.5-.94-3.26-1.4-5.29-1.4-2.24,0-4.17.55-5.79,1.65-1.63,1.1-2.88,2.53-3.75,4.29-.87,1.76-1.31,3.65-1.31,5.66v3.24c0,2.76.48,5.1,1.44,7.01.96,1.91,2.3,3.36,4.01,4.35,1.71.99,3.7,1.49,5.97,1.49,1.47,0,2.81-.21,4.01-.63,1.2-.42,2.23-1.05,3.1-1.9.87-.85,1.55-1.91,2.02-3.18l5.42,1.52c-.57,1.84-1.53,3.45-2.88,4.84-1.35,1.39-3.01,2.47-5,3.24-1.98.77-4.21,1.15-6.69,1.15Z"/><path class="cls-2" d="M1072.02,851.12v4.76h-18.94v-4.76h18.94ZM1058.61,842.36h5.62v34.83c0,1.59.23,2.77.7,3.56s1.07,1.31,1.81,1.57c.74.26,1.52.39,2.34.39.62,0,1.13-.04,1.52-.11.4-.07.71-.13.95-.18l1.14,5.04c-.38.14-.91.29-1.59.44-.68.15-1.55.23-2.59.23-1.59,0-3.14-.34-4.65-1.02-1.52-.68-2.77-1.72-3.76-3.12-.99-1.4-1.49-3.16-1.49-5.28v-36.36Z"/><path class="cls-2" d="M1084.59,888.05c-1.17,0-2.18-.42-3.02-1.26-.84-.84-1.26-1.85-1.26-3.02s.42-2.18,1.26-3.02c.84-.84,1.85-1.26,3.02-1.26s2.18.42,3.02,1.26c.84.84,1.26,1.85,1.26,3.02,0,.78-.2,1.49-.58,2.14-.39.65-.9,1.17-1.55,1.56-.64.39-1.36.58-2.15.58Z"/></g></svg>