<?xml version="1.0" encoding="UTF-8"?><svg id="Ebene_2" xmlns="http://www.w3.org/2000/svg" viewBox="0 0 1343.62 1067.19"><defs><style>.cls-1{fill:#3d5d8a;}.cls-1,.cls-2,.cls-3,.cls-4,.cls-5,.cls-6,.cls-7,.cls-8,.cls-9,.cls-10,.cls-11,.cls-12{stroke-width:0px;}.cls-2{fill:#4d52b5;}.cls-3{fill:#0c2f3d;}.cls-4{fill:#f4f6fa;}.cls-5{fill:#fff;}.cls-6{fill:#9f9f9f;}.cls-7{fill:#f9b795;}.cls-8{fill:#143847;}.cls-13{fill:none;stroke:#4e52b2;stroke-miterlimit:10;stroke-width:4.25px;}.cls-9{fill:#123245;}.cls-10{opacity:.1;}.cls-11{fill:#d7e9ff;}.cls-12{fill:#002951;}</style></defs><g id="Layer_1"><path class="cls-3" d="M702.98,837.58c-1.8-4.79-2.57-7.79-2.61-7.95l-3.82.94c.04.15.71,2.77,2.25,7.01h4.19Z"/><path class="cls-7" d="M207.81,441.72l-34.16,38.7-24.25-17.6-7.57.69-18.98,1.69c-26.2,5-78.12-16.03-85.38-24.92-7.69-9.42,5.09-14.48,5.09-14.48l-25.74-11.72c-2.08-.96-3.82-2.62-4.76-4.7-4.35-9.56,8.99-11.98,8.99-11.98l-16.32-10.44c-1.67-1.06-3.01-2.64-3.74-4.48-2.01-5.01-.65-8.4,1.4-10.58,2.5-2.64,6.43-3.34,9.85-2.14l10.56,3.72c-2.77-4.64-1.73-7.73.24-9.7,2.42-2.44,6.2-2.95,9.34-1.55,19.79,8.79,116.19,50.88,92.93,25.67-.49-.51-.94-1.02-1.4-1.53-24.05-27.14-11.66-43.35-11.66-43.35l41.05,41.91c19.37,15.99,26.81,37.43,28.5,43.15.3.94.41,1.46.41,1.46l25.61,12.19Z"/><path class="cls-10" d="M207.81,441.72l-34.16,38.7-24.25-17.6-7.57.69,39.96-35.44c.3.94.41,1.46.41,1.46l25.61,12.19Z"/><path class="cls-7" d="M1135.81,491.91l34.16,38.7,24.25-17.6,7.57.69,18.98,1.69c26.2,5,78.12-16.03,85.38-24.92,7.69-9.42-5.09-14.48-5.09-14.48l25.74-11.72c2.08-.96,3.82-2.62,4.76-4.7,4.35-9.56-8.99-11.98-8.99-11.98l16.32-10.44c1.67-1.06,3.01-2.64,3.74-4.48,2.01-5.01.65-8.4-1.4-10.58-2.5-2.64-6.43-3.34-9.85-2.14l-10.56,3.72c2.77-4.64,1.73-7.73-.24-9.7-2.42-2.44-6.2-2.95-9.34-1.55-19.79,8.79-116.19,50.88-92.93,25.67.49-.51.94-1.02,1.4-1.53,24.05-27.14,11.66-43.35,11.66-43.35l-41.05,41.91c-19.37,15.99-26.81,37.43-28.5,43.15-.3.94-.41,1.46-.41,1.46l-25.61,12.19Z"/><path class="cls-10" d="M1137.22,493.32l34.16,38.7,24.25-17.6,7.57.69-39.96-35.44c-.3.94-.41,1.46-.41,1.46l-25.61,12.19Z"/><path class="cls-11" d="M443.73,678.5l30.75-53.81-9.91,212.9h395.48l-28.84-274.95,44.93,116.09-.05.5,30.75,53.81c11.97,20.95,39.63,26.63,58.88,12.08l244.93-184.98-51.13-94.4-188.8,118-69.14-160.25-19.89-69.08c-3.03-10.52-10.1-19.42-19.66-24.74l-153.73-85.63s-36.38,148.56-47.2,198.08c-8.09,37.04-37.37,246.4-37.37,246.4,0,0-13.77-194.7-16.04-243.02-2.15-45.69-.55-180.43-.55-180.43l-141.32,73.76c-11.66,6.09-20.67,16.27-25.29,28.59l-60.68,161.81-188.8-118-51.13,94.4,244.93,184.98c19.26,14.54,46.91,8.87,58.88-12.08Z"/><rect class="cls-3" x="922.06" y="584.55" width="96.27" height="3.93" transform="translate(-162.75 627.91) rotate(-33.25)"/><path class="cls-3" d="M1252.64,456.87c23.65-3.94,69.48-28.66,71.41-29.71l-1.87-3.46c-.47.25-47.18,25.46-70.19,29.29l.65,3.88Z"/><path class="cls-3" d="M1254.76,474.54c15.66-3.91,69.88-24.27,72.18-25.13l-1.38-3.68c-.56.21-56.31,21.14-71.76,25l.95,3.81Z"/><path class="cls-3" d="M1256.57,492.27c11.83-1.97,44.19-13.37,45.57-13.85l-1.31-3.71c-.33.12-33.41,11.77-44.9,13.68l.65,3.88Z"/><circle class="cls-6" cx="810.97" cy="514.07" r="20.22"/><circle class="cls-9" cx="810.97" cy="514.07" r="11.12"/><path class="cls-9" d="M815.1,511.78l-6.96-.19c3.57-128.34-25.91-192.58-51.26-223.87-26.99-33.32-54.69-36.98-54.97-37.02l1.09-7.76c1.24.15,30.53,4.91,59.28,40.4,26.09,32.21,56.44,97.98,52.81,228.45Z"/><path class="cls-6" d="M565.56,567.94l22.51-6.84c10.11-3.07,16.07-13.52,13.58-23.79l-18.58-76.61-6.66,1.62,18.58,76.61c1.63,6.74-2.28,13.59-8.92,15.61l-22.51,6.84,1.99,6.56Z"/><path class="cls-6" d="M526.36,573.64l-23.53-.15c-10.56-.07-19.26-8.38-19.8-18.93l-4.01-78.73,6.85-.35,4.01,78.73c.35,6.92,6.06,12.38,12.99,12.43l23.53.15-.04,6.86Z"/><rect class="cls-9" x="553.8" y="558.51" width="18.61" height="12.73" rx="6.37" ry="6.37" transform="translate(-131.41 172.67) rotate(-15.64)"/><rect class="cls-9" x="518.54" y="563.64" width="18.61" height="12.73" rx="6.37" ry="6.37" transform="translate(-9.02 8.49) rotate(-.91)"/><path class="cls-9" d="M573.23,434.74c-11.46-18.99-26.69-28.74-44.18-28.4-1.65-51.38,11.7-91.22,38.82-115.5,21.4-19.16,44.11-22.12,44.33-22.15l-.42-3.45-.41-3.46c-1,.12-24.81,3.15-47.83,23.59-20.39,18.11-43.74,53.8-41.44,121.62-11.76,1.95-22.19,8.06-29.68,17.49-9.89,12.45-14.88,30.31-14.85,53.1,0,1.43,1.17,2.58,2.6,2.56l4.68-.08c1.39-.02,2.51-1.17,2.51-2.56-.06-52.19,27.49-60.24,39.48-61.26,31.97-2.72,45.67,37.99,48.62,48.31.37,1.31,1.7,2.09,3.03,1.79l4.58-1.06c1.42-.33,2.28-1.77,1.88-3.18-1.39-4.95-5-16.23-11.72-27.37Z"/><path class="cls-12" d="M708.35,134.97s-4.11,24.65-8.22,41.08c-4.11,16.43-20.54,12.32-20.54,12.32l-4.11-41.08,32.86-12.32Z"/><path class="cls-7" d="M712.78,265.52l-97.57,64.58c-4.19-43.84-2.52-45.31-4.46-72.28-.53-7.06-1.28-15.85-2.48-27.61,0-.14-.02-.29-.04-.45-81.4,27.24-56.21-148.33-56.21-148.33,0,0,13.88-45.12,81.46-55.62,67.58-10.5,64.02,77.72,64.02,77.72,40.26,5.68-1.89,57.03-4.5,61.3l19.78,100.69Z"/><path class="cls-9" d="M674.8,112.11h-34.52c-4.13-8.13-12.55-13.72-22.28-13.72-13.01,0-23.72,10-24.87,22.72h-13.86c-1.15-12.72-11.86-22.72-24.87-22.72-13.78,0-24.99,11.21-24.99,24.99s11.21,24.99,24.99,24.99c13.01,0,23.72-10,24.87-22.72h13.86c1.15,12.72,11.86,22.72,24.87,22.72,13.78,0,24.99-11.21,24.99-24.99,0-2.33-.34-4.58-.94-6.72h32.75v-4.54ZM554.41,143.82c-11.27,0-20.45-9.17-20.45-20.45s9.17-20.45,20.45-20.45,20.45,9.17,20.45,20.45-9.17,20.45-20.45,20.45ZM618.01,143.82c-11.27,0-20.45-9.17-20.45-20.45s9.17-20.45,20.45-20.45,20.45,9.17,20.45,20.45-9.17,20.45-20.45,20.45Z"/><path class="cls-1" d="M619.79,729.8l89.19-481.08-.72-2.81s-9.83,62.13-60.93,64.97c-35.4,1.97-42.16-44.24-42.16-44.24l1.97,52.11s-.82,103.99,1.53,138.65c2.78,41.06,11.13,272.39,11.13,272.39Z"/><path class="cls-3" d="M627.36,682.58l-3.93-.03c.02-2.76,2.44-276.54,16.94-370.97l3.89.6c-14.46,94.15-16.87,367.66-16.9,370.41Z"/><circle class="cls-3" cx="627.65" cy="332.49" r="3.93"/><circle class="cls-3" cx="624.92" cy="383.59" r="3.93"/><circle class="cls-3" cx="622.21" cy="432.72" r="3.93"/><rect class="cls-3" x="380.9" y="484.17" width="3.93" height="96.27" transform="translate(-272.22 560.67) rotate(-56.75)"/><path class="cls-3" d="M92.39,405.27c-23.65-3.94-69.48-28.66-71.41-29.71l1.87-3.46c.47.25,47.18,25.46,70.19,29.29l-.65,3.88Z"/><path class="cls-3" d="M90.27,422.94c-15.66-3.91-69.88-24.27-72.18-25.13l1.38-3.68c.56.21,56.31,21.14,71.76,25l-.95,3.81Z"/><path class="cls-3" d="M88.46,440.67c-11.83-1.97-44.19-13.37-45.57-13.85l1.31-3.71c.33.12,33.41,11.77,44.9,13.68l-.65,3.88Z"/><path class="cls-10" d="M668.94,188.52c-19.73,43.19-43.35,61.6-58.2,69.31-.53-7.06-1.28-15.85-2.48-27.61,38.08-13.71,59.89-40.71,60.67-41.69Z"/><path class="cls-3" d="M675.95,26.37s-46.95-44.5-85.78-17.89c0,0-29.15,36.32-60.65,24.15,0,0-.03,19.4,12.09,24.26,0,0-16.99,12.1-31.53,7.23,0,0,16.85,77.61,89.66,29.23l-2.45,16.97s48.48,4.92,55.82-38.71l18.17,52.68,11.26-4.52s.95-7.5,9.4-12.18c8.45-4.68,22.25-4.57,22.21,21.68,0,0,28.49-108.88-38.19-102.92Z"/><path class="cls-5" d="M625.02,183.56s-35.94-1.68-47.93,12.05c-11.99,13.73,27.08,52.4,47.93-12.05Z"/><path class="cls-8" d="M640.21,316.51l-18.45-13.48-33.43,39.33s-9.17-71.11,21.29-89.87l31.81,56.43s55.41-17.52,67.21-64.72c0,0,21.29,52.92-12.85,98.16l-30.76-34.6-24.82,8.75Z"/><path class="cls-4" d="M1201.92,728.38H121.12c-25.69,0-46.52,10.15-46.52,22.66v226.73c0,12.52,20.83,22.66,46.52,22.66h64.66v66.75l186.86-66.75h829.28c25.69,0,46.52-10.15,46.52-22.66v-226.73c0-12.52-20.83-22.66-46.52-22.66Z"/><path class="cls-2" d="M275.48,842.41v41.17h-4.82l-22.43-32.32h-.4v32.32h-4.98v-41.17h4.82l22.51,32.4h.4v-32.4h4.9Z"/><path class="cls-2" d="M297.35,884.22c-2.79,0-5.23-.66-7.33-1.99-2.1-1.33-3.73-3.18-4.9-5.57-1.17-2.38-1.76-5.17-1.76-8.36s.59-6.02,1.76-8.42c1.17-2.4,2.81-4.26,4.9-5.59,2.1-1.33,4.54-1.99,7.33-1.99s5.23.66,7.33,1.99c2.1,1.33,3.73,3.19,4.9,5.59s1.76,5.21,1.76,8.42-.59,5.98-1.76,8.36c-1.17,2.39-2.81,4.24-4.9,5.57-2.1,1.33-4.54,1.99-7.33,1.99ZM297.35,879.96c2.12,0,3.86-.54,5.23-1.63,1.37-1.09,2.38-2.51,3.04-4.28.66-1.77.99-3.69.99-5.75s-.33-3.99-.99-5.77-1.67-3.22-3.04-4.32c-1.37-1.1-3.11-1.65-5.23-1.65s-3.86.55-5.23,1.65c-1.37,1.1-2.38,2.54-3.04,4.32s-.99,3.71-.99,5.77.33,3.98.99,5.75c.66,1.77,1.67,3.2,3.04,4.28,1.37,1.08,3.11,1.63,5.23,1.63Z"/><path class="cls-2" d="M331.12,884.22c-2.89,0-5.39-.68-7.48-2.05-2.09-1.37-3.7-3.25-4.82-5.65-1.13-2.4-1.69-5.14-1.69-8.22s.58-5.91,1.74-8.31,2.78-4.29,4.86-5.65c2.08-1.36,4.52-2.04,7.31-2.04,2.17,0,4.13.4,5.87,1.21,1.74.8,3.17,1.93,4.28,3.38,1.11,1.45,1.8,3.14,2.07,5.07h-4.74c-.36-1.41-1.16-2.66-2.4-3.75-1.24-1.09-2.9-1.64-4.99-1.64-1.85,0-3.47.48-4.85,1.44-1.39.96-2.47,2.31-3.24,4.04-.77,1.74-1.16,3.77-1.16,6.1s.38,4.46,1.14,6.23,1.83,3.14,3.22,4.12c1.39.98,3.02,1.47,4.89,1.47,1.23,0,2.35-.21,3.36-.64,1-.43,1.86-1.04,2.55-1.85.7-.8,1.19-1.77,1.49-2.89h4.74c-.27,1.82-.93,3.46-1.98,4.91-1.05,1.45-2.44,2.61-4.16,3.46-1.72.85-3.72,1.28-6,1.28Z"/><path class="cls-2" d="M354.92,865v18.57h-4.74v-41.17h4.74v15.12h.4c.72-1.59,1.81-2.86,3.27-3.81,1.45-.94,3.39-1.42,5.82-1.42,2.1,0,3.95.42,5.53,1.26,1.58.84,2.81,2.12,3.69,3.84.88,1.72,1.32,3.91,1.32,6.56v19.62h-4.74v-19.3c0-2.45-.63-4.35-1.9-5.7-1.27-1.35-3.02-2.02-5.26-2.02-1.55,0-2.94.33-4.17.98-1.23.66-2.19,1.62-2.89,2.88s-1.06,2.79-1.06,4.58Z"/><path class="cls-2" d="M399.54,883.58v-41.17h4.74v41.17h-4.74ZM403.97,872.32l-.08-5.87h.96l13.51-13.75h5.87l-14.39,14.55h-.4l-5.47,5.07ZM419.16,883.58l-12.06-15.28,3.38-3.3,14.71,18.57h-6.03Z"/><path class="cls-2" d="M442,884.22c-2.97,0-5.54-.66-7.69-1.98-2.15-1.32-3.81-3.17-4.96-5.55-1.16-2.38-1.74-5.15-1.74-8.31s.58-5.95,1.74-8.37,2.78-4.31,4.86-5.67c2.08-1.36,4.52-2.04,7.31-2.04,1.61,0,3.2.27,4.76.8,1.57.54,3,1.4,4.28,2.6,1.29,1.2,2.31,2.78,3.08,4.75s1.15,4.4,1.15,7.28v2.01h-23.8v-4.1h18.97c0-1.74-.34-3.3-1.04-4.66-.69-1.37-1.67-2.45-2.93-3.24-1.27-.79-2.76-1.19-4.47-1.19-1.89,0-3.52.47-4.89,1.4-1.37.93-2.43,2.14-3.17,3.63-.74,1.49-1.11,3.08-1.11,4.78v2.73c0,2.33.41,4.31,1.22,5.92.81,1.62,1.94,2.84,3.39,3.68,1.45.84,3.13,1.26,5.04,1.26,1.25,0,2.38-.18,3.39-.53,1.01-.36,1.89-.89,2.62-1.61.74-.72,1.31-1.61,1.71-2.68l4.58,1.29c-.48,1.55-1.29,2.92-2.43,4.09-1.14,1.17-2.55,2.08-4.22,2.73-1.67.65-3.56.98-5.65.98Z"/><path class="cls-2" d="M464.43,847.56c-.92,0-1.72-.32-2.38-.95s-1-1.39-1-2.27.33-1.64,1-2.27c.66-.63,1.46-.94,2.38-.94s1.72.32,2.38.94c.66.63,1,1.39,1,2.27s-.33,1.64-1,2.27-1.46.95-2.38.95ZM462.02,883.58v-30.87h4.74v30.87h-4.74Z"/><path class="cls-2" d="M480.19,865v18.57h-4.74v-30.87h4.58v4.82h.4c.72-1.57,1.82-2.83,3.3-3.79,1.47-.96,3.38-1.44,5.71-1.44,2.09,0,3.92.43,5.49,1.28,1.57.85,2.79,2.14,3.66,3.86s1.31,3.9,1.31,6.52v19.62h-4.74v-19.3c0-2.42-.63-4.32-1.89-5.68s-2.99-2.04-5.19-2.04c-1.51,0-2.86.33-4.05.98-1.19.66-2.12,1.62-2.8,2.88s-1.03,2.79-1.03,4.58Z"/><path class="cls-2" d="M521.51,884.22c-2.97,0-5.54-.66-7.69-1.98-2.15-1.32-3.81-3.17-4.96-5.55-1.16-2.38-1.74-5.15-1.74-8.31s.58-5.95,1.74-8.37,2.78-4.31,4.86-5.67c2.08-1.36,4.52-2.04,7.31-2.04,1.61,0,3.2.27,4.76.8,1.57.54,3,1.4,4.28,2.6,1.29,1.2,2.31,2.78,3.08,4.75s1.15,4.4,1.15,7.28v2.01h-23.8v-4.1h18.97c0-1.74-.34-3.3-1.04-4.66-.69-1.37-1.67-2.45-2.93-3.24-1.27-.79-2.76-1.19-4.47-1.19-1.89,0-3.52.47-4.89,1.4-1.37.93-2.43,2.14-3.17,3.63-.74,1.49-1.11,3.08-1.11,4.78v2.73c0,2.33.41,4.31,1.22,5.92.81,1.62,1.94,2.84,3.39,3.68,1.45.84,3.13,1.26,5.04,1.26,1.25,0,2.38-.18,3.39-.53,1.01-.36,1.89-.89,2.62-1.61.74-.72,1.31-1.61,1.71-2.68l4.58,1.29c-.48,1.55-1.29,2.92-2.43,4.09-1.14,1.17-2.55,2.08-4.22,2.73-1.67.65-3.56.98-5.65.98Z"/><path class="cls-2" d="M590.74,842.41v41.17h-4.82l-22.43-32.32h-.4v32.32h-4.98v-41.17h4.82l22.51,32.4h.4v-32.4h4.9Z"/><path class="cls-2" d="M609.15,884.3c-1.96,0-3.73-.37-5.33-1.12-1.59-.74-2.86-1.82-3.8-3.24-.94-1.41-1.41-3.13-1.41-5.14,0-1.77.35-3.21,1.04-4.31.7-1.11,1.63-1.97,2.79-2.6,1.17-.63,2.46-1.1,3.87-1.42,1.41-.31,2.84-.57,4.27-.75,1.88-.24,3.4-.42,4.57-.55,1.17-.13,2.03-.34,2.57-.65.54-.31.81-.84.81-1.61v-.16c0-1.98-.54-3.52-1.62-4.62s-2.71-1.65-4.89-1.65-4.04.5-5.33,1.49c-1.29.99-2.19,2.05-2.71,3.18l-4.5-1.61c.8-1.88,1.88-3.34,3.23-4.39,1.35-1.05,2.82-1.79,4.42-2.21,1.6-.42,3.18-.63,4.73-.63.99,0,2.13.12,3.43.35s2.55.71,3.76,1.44,2.22,1.82,3.03,3.28c.8,1.46,1.21,3.42,1.21,5.87v20.34h-4.74v-4.18h-.24c-.32.67-.86,1.39-1.61,2.15-.75.76-1.75,1.41-3,1.95-1.25.54-2.77.8-4.56.8ZM609.87,880.04c1.88,0,3.46-.37,4.75-1.11,1.29-.74,2.27-1.69,2.93-2.85.66-1.17,1-2.39,1-3.68v-4.34c-.2.24-.64.46-1.32.65s-1.45.36-2.33.5c-.88.14-1.73.26-2.55.36s-1.49.18-2,.25c-1.23.16-2.38.42-3.45.77-1.07.35-1.92.88-2.57,1.59-.65.7-.98,1.66-.98,2.86,0,1.65.61,2.89,1.84,3.73,1.23.84,2.78,1.26,4.67,1.26Z"/><path class="cls-2" d="M644.53,884.22c-2.89,0-5.39-.68-7.48-2.05-2.09-1.37-3.7-3.25-4.82-5.65-1.13-2.4-1.69-5.14-1.69-8.22s.58-5.91,1.74-8.31,2.78-4.29,4.86-5.65c2.08-1.36,4.52-2.04,7.31-2.04,2.17,0,4.13.4,5.87,1.21,1.74.8,3.17,1.93,4.28,3.38,1.11,1.45,1.8,3.14,2.07,5.07h-4.74c-.36-1.41-1.16-2.66-2.4-3.75-1.24-1.09-2.9-1.64-4.99-1.64-1.85,0-3.47.48-4.85,1.44-1.39.96-2.47,2.31-3.24,4.04-.77,1.74-1.16,3.77-1.16,6.1s.38,4.46,1.14,6.23,1.83,3.14,3.22,4.12c1.39.98,3.02,1.47,4.89,1.47,1.23,0,2.35-.21,3.36-.64,1-.43,1.86-1.04,2.55-1.85.7-.8,1.19-1.77,1.49-2.89h4.74c-.27,1.82-.93,3.46-1.98,4.91-1.05,1.45-2.44,2.61-4.16,3.46-1.72.85-3.72,1.28-6,1.28Z"/><path class="cls-2" d="M668.33,865v18.57h-4.74v-41.17h4.74v15.12h.4c.72-1.59,1.81-2.86,3.27-3.81,1.45-.94,3.39-1.42,5.82-1.42,2.1,0,3.95.42,5.53,1.26,1.58.84,2.81,2.12,3.69,3.84.88,1.72,1.32,3.91,1.32,6.56v19.62h-4.74v-19.3c0-2.45-.63-4.35-1.9-5.7-1.27-1.35-3.02-2.02-5.26-2.02-1.55,0-2.94.33-4.17.98-1.23.66-2.19,1.62-2.89,2.88s-1.06,2.79-1.06,4.58Z"/><path class="cls-2" d="M697.03,883.58v-30.87h4.58v4.66h.32c.56-1.53,1.58-2.77,3.06-3.72,1.47-.95,3.14-1.43,4.98-1.43.35,0,.78,0,1.31.02.52.01.92.03,1.19.06v4.82c-.16-.04-.53-.1-1.1-.19-.57-.09-1.17-.13-1.8-.13-1.5,0-2.84.31-4.01.93s-2.1,1.48-2.77,2.57c-.68,1.09-1.02,2.33-1.02,3.73v19.54h-4.74Z"/><path class="cls-2" d="M720.51,847.56c-.92,0-1.72-.32-2.38-.95s-1-1.39-1-2.27.33-1.64,1-2.27c.66-.63,1.46-.94,2.38-.94s1.72.32,2.38.94c.66.63,1,1.39,1,2.27s-.33,1.64-1,2.27-1.46.95-2.38.95ZM718.09,883.58v-30.87h4.74v30.87h-4.74Z"/><path class="cls-2" d="M744.06,884.22c-2.89,0-5.39-.68-7.48-2.05-2.09-1.37-3.7-3.25-4.82-5.65-1.13-2.4-1.69-5.14-1.69-8.22s.58-5.91,1.74-8.31,2.78-4.29,4.86-5.65c2.08-1.36,4.52-2.04,7.31-2.04,2.17,0,4.13.4,5.87,1.21,1.74.8,3.17,1.93,4.28,3.38,1.11,1.45,1.8,3.14,2.07,5.07h-4.74c-.36-1.41-1.16-2.66-2.4-3.75-1.24-1.09-2.9-1.64-4.99-1.64-1.85,0-3.47.48-4.85,1.44-1.39.96-2.47,2.31-3.24,4.04-.77,1.74-1.16,3.77-1.16,6.1s.38,4.46,1.14,6.23,1.83,3.14,3.22,4.12c1.39.98,3.02,1.47,4.89,1.47,1.23,0,2.35-.21,3.36-.64,1-.43,1.86-1.04,2.55-1.85.7-.8,1.19-1.77,1.49-2.89h4.74c-.27,1.82-.93,3.46-1.98,4.91-1.05,1.45-2.44,2.61-4.16,3.46-1.72.85-3.72,1.28-6,1.28Z"/><path class="cls-2" d="M767.86,865v18.57h-4.74v-41.17h4.74v15.12h.4c.72-1.59,1.81-2.86,3.27-3.81,1.45-.94,3.39-1.42,5.82-1.42,2.1,0,3.95.42,5.53,1.26,1.58.84,2.81,2.12,3.69,3.84.88,1.72,1.32,3.91,1.32,6.56v19.62h-4.74v-19.3c0-2.45-.63-4.35-1.9-5.7-1.27-1.35-3.02-2.02-5.26-2.02-1.55,0-2.94.33-4.17.98-1.23.66-2.19,1.62-2.89,2.88s-1.06,2.79-1.06,4.58Z"/><path class="cls-2" d="M809.99,852.7v4.02h-16v-4.02h16ZM798.66,845.3h4.74v29.43c0,1.34.2,2.34.59,3,.4.66.9,1.11,1.53,1.33.62.22,1.28.33,1.98.33.52,0,.95-.03,1.29-.09s.6-.11.8-.15l.96,4.26c-.32.12-.77.25-1.35.37-.58.13-1.31.19-2.19.19-1.34,0-2.65-.29-3.93-.86-1.28-.58-2.34-1.45-3.18-2.63-.84-1.18-1.26-2.67-1.26-4.46v-30.71Z"/><path class="cls-2" d="M829.77,884.22c-2.97,0-5.54-.66-7.69-1.98-2.15-1.32-3.81-3.17-4.96-5.55-1.16-2.38-1.74-5.15-1.74-8.31s.58-5.95,1.74-8.37,2.78-4.31,4.86-5.67c2.08-1.36,4.52-2.04,7.31-2.04,1.61,0,3.2.27,4.76.8,1.57.54,3,1.4,4.28,2.6,1.29,1.2,2.31,2.78,3.08,4.75s1.15,4.4,1.15,7.28v2.01h-23.8v-4.1h18.97c0-1.74-.34-3.3-1.04-4.66-.69-1.37-1.67-2.45-2.93-3.24-1.27-.79-2.76-1.19-4.47-1.19-1.89,0-3.52.47-4.89,1.4-1.37.93-2.43,2.14-3.17,3.63-.74,1.49-1.11,3.08-1.11,4.78v2.73c0,2.33.41,4.31,1.22,5.92.81,1.62,1.94,2.84,3.39,3.68,1.45.84,3.13,1.26,5.04,1.26,1.25,0,2.38-.18,3.39-.53,1.01-.36,1.89-.89,2.62-1.61.74-.72,1.31-1.61,1.71-2.68l4.58,1.29c-.48,1.55-1.29,2.92-2.43,4.09-1.14,1.17-2.55,2.08-4.22,2.73-1.67.65-3.56.98-5.65.98Z"/><path class="cls-2" d="M854.53,865v18.57h-4.74v-30.87h4.58v4.82h.4c.72-1.57,1.82-2.83,3.3-3.79,1.47-.96,3.38-1.44,5.71-1.44,2.09,0,3.92.43,5.49,1.28,1.57.85,2.79,2.14,3.66,3.86s1.31,3.9,1.31,6.52v19.62h-4.74v-19.3c0-2.42-.63-4.32-1.89-5.68s-2.99-2.04-5.19-2.04c-1.51,0-2.86.33-4.05.98-1.19.66-2.12,1.62-2.8,2.88s-1.03,2.79-1.03,4.58Z"/><path class="cls-2" d="M924.08,852.7l-11.42,30.87h-4.82l-11.42-30.87h5.15l8.52,24.6h.32l8.52-24.6h5.15Z"/><path class="cls-2" d="M941.77,884.22c-2.79,0-5.23-.66-7.33-1.99-2.1-1.33-3.73-3.18-4.9-5.57-1.17-2.38-1.76-5.17-1.76-8.36s.59-6.02,1.76-8.42c1.17-2.4,2.81-4.26,4.9-5.59,2.1-1.33,4.54-1.99,7.33-1.99s5.23.66,7.33,1.99c2.1,1.33,3.73,3.19,4.9,5.59s1.76,5.21,1.76,8.42-.59,5.98-1.76,8.36c-1.17,2.39-2.81,4.24-4.9,5.57-2.1,1.33-4.54,1.99-7.33,1.99ZM941.77,879.96c2.12,0,3.86-.54,5.23-1.63,1.37-1.09,2.38-2.51,3.04-4.28.66-1.77.99-3.69.99-5.75s-.33-3.99-.99-5.77-1.67-3.22-3.04-4.32c-1.37-1.1-3.11-1.65-5.23-1.65s-3.86.55-5.23,1.65c-1.37,1.1-2.38,2.54-3.04,4.32s-.99,3.71-.99,5.77.33,3.98.99,5.75c.66,1.77,1.67,3.2,3.04,4.28,1.37,1.08,3.11,1.63,5.23,1.63Z"/><path class="cls-2" d="M963,883.58v-30.87h4.58v4.66h.32c.56-1.53,1.58-2.77,3.06-3.72,1.47-.95,3.14-1.43,4.98-1.43.35,0,.78,0,1.31.02.52.01.92.03,1.19.06v4.82c-.16-.04-.53-.1-1.1-.19-.57-.09-1.17-.13-1.8-.13-1.5,0-2.84.31-4.01.93s-2.1,1.48-2.77,2.57c-.68,1.09-1.02,2.33-1.02,3.73v19.54h-4.74Z"/><path class="cls-2" d="M988.8,865v18.57h-4.74v-41.17h4.74v15.12h.4c.72-1.59,1.81-2.86,3.27-3.81,1.45-.94,3.39-1.42,5.82-1.42,2.1,0,3.95.42,5.53,1.26,1.58.84,2.81,2.12,3.69,3.84.88,1.72,1.32,3.91,1.32,6.56v19.62h-4.74v-19.3c0-2.45-.63-4.35-1.9-5.7-1.27-1.35-3.02-2.02-5.26-2.02-1.55,0-2.94.33-4.17.98-1.23.66-2.19,1.62-2.89,2.88s-1.06,2.79-1.06,4.58Z"/><path class="cls-2" d="M1026.59,884.3c-1.96,0-3.73-.37-5.33-1.12-1.59-.74-2.86-1.82-3.8-3.24-.94-1.41-1.41-3.13-1.41-5.14,0-1.77.35-3.21,1.04-4.31.7-1.11,1.63-1.97,2.79-2.6,1.17-.63,2.46-1.1,3.87-1.42,1.41-.31,2.84-.57,4.27-.75,1.88-.24,3.4-.42,4.57-.55,1.17-.13,2.03-.34,2.57-.65.54-.31.81-.84.81-1.61v-.16c0-1.98-.54-3.52-1.62-4.62s-2.71-1.65-4.89-1.65-4.04.5-5.33,1.49c-1.29.99-2.19,2.05-2.71,3.18l-4.5-1.61c.8-1.88,1.88-3.34,3.23-4.39,1.35-1.05,2.82-1.79,4.42-2.21,1.6-.42,3.18-.63,4.73-.63.99,0,2.13.12,3.43.35s2.55.71,3.76,1.44,2.22,1.82,3.03,3.28c.8,1.46,1.21,3.42,1.21,5.87v20.34h-4.74v-4.18h-.24c-.32.67-.86,1.39-1.61,2.15-.75.76-1.75,1.41-3,1.95-1.25.54-2.77.8-4.56.8ZM1027.32,880.04c1.88,0,3.46-.37,4.75-1.11,1.29-.74,2.27-1.69,2.93-2.85.66-1.17,1-2.39,1-3.68v-4.34c-.2.24-.64.46-1.32.65s-1.45.36-2.33.5c-.88.14-1.73.26-2.55.36s-1.49.18-2,.25c-1.23.16-2.38.42-3.45.77-1.07.35-1.92.88-2.57,1.59-.65.7-.98,1.66-.98,2.86,0,1.65.61,2.89,1.84,3.73,1.23.84,2.78,1.26,4.67,1.26Z"/><path class="cls-2" d="M1054.17,865v18.57h-4.74v-30.87h4.58v4.82h.4c.72-1.57,1.82-2.83,3.3-3.79,1.47-.96,3.38-1.44,5.71-1.44,2.09,0,3.92.43,5.49,1.28,1.57.85,2.79,2.14,3.66,3.86s1.31,3.9,1.31,6.52v19.62h-4.74v-19.3c0-2.42-.63-4.32-1.89-5.68s-2.99-2.04-5.19-2.04c-1.51,0-2.86.33-4.05.98-1.19.66-2.12,1.62-2.8,2.88s-1.03,2.79-1.03,4.58Z"/><path class="cls-2" d="M1094.21,884.22c-2.57,0-4.84-.65-6.81-1.96s-3.51-3.16-4.62-5.55-1.67-5.22-1.67-8.49.56-6.06,1.67-8.44,2.66-4.23,4.64-5.53,4.27-1.95,6.87-1.95c2.01,0,3.6.33,4.77,1,1.17.66,2.07,1.41,2.69,2.25.62.84,1.11,1.52,1.46,2.06h.4v-15.2h4.74v41.17h-4.58v-4.74h-.56c-.35.56-.84,1.27-1.49,2.12s-1.56,1.61-2.75,2.27-2.78,1-4.76,1ZM1094.85,879.96c1.9,0,3.51-.5,4.82-1.5,1.31-1,2.31-2.39,2.99-4.16.68-1.78,1.03-3.83,1.03-6.16s-.33-4.32-1-6.06-1.66-3.09-2.97-4.06c-1.31-.97-2.93-1.46-4.86-1.46s-3.68.51-5.02,1.54-2.33,2.41-3,4.16c-.66,1.75-1,3.71-1,5.88s.34,4.19,1.02,5.98,1.68,3.21,3.01,4.26c1.33,1.05,2.99,1.58,4.98,1.58Z"/><path class="cls-2" d="M1130.63,884.22c-2.97,0-5.54-.66-7.69-1.98-2.15-1.32-3.81-3.17-4.96-5.55-1.16-2.38-1.74-5.15-1.74-8.31s.58-5.95,1.74-8.37,2.78-4.31,4.86-5.67c2.08-1.36,4.52-2.04,7.31-2.04,1.61,0,3.2.27,4.76.8,1.57.54,3,1.4,4.28,2.6,1.29,1.2,2.31,2.78,3.08,4.75s1.15,4.4,1.15,7.28v2.01h-23.8v-4.1h18.97c0-1.74-.34-3.3-1.04-4.66-.69-1.37-1.67-2.45-2.93-3.24-1.27-.79-2.76-1.19-4.47-1.19-1.89,0-3.52.47-4.89,1.4-1.37.93-2.43,2.14-3.17,3.63-.74,1.49-1.11,3.08-1.11,4.78v2.73c0,2.33.41,4.31,1.22,5.92.81,1.62,1.94,2.84,3.39,3.68,1.45.84,3.13,1.26,5.04,1.26,1.25,0,2.38-.18,3.39-.53,1.01-.36,1.89-.89,2.62-1.61.74-.72,1.31-1.61,1.71-2.68l4.58,1.29c-.48,1.55-1.29,2.92-2.43,4.09-1.14,1.17-2.55,2.08-4.22,2.73-1.67.65-3.56.98-5.65.98Z"/><path class="cls-2" d="M1155.39,865v18.57h-4.74v-30.87h4.58v4.82h.4c.72-1.57,1.82-2.83,3.3-3.79,1.47-.96,3.38-1.44,5.71-1.44,2.09,0,3.92.43,5.49,1.28,1.57.85,2.79,2.14,3.66,3.86s1.31,3.9,1.31,6.52v19.62h-4.74v-19.3c0-2.42-.63-4.32-1.89-5.68s-2.99-2.04-5.19-2.04c-1.51,0-2.86.33-4.05.98-1.19.66-2.12,1.62-2.8,2.88s-1.03,2.79-1.03,4.58Z"/><path class="cls-2" d="M1187.23,883.9c-.99,0-1.84-.35-2.55-1.07-.71-.71-1.07-1.56-1.07-2.55s.36-1.84,1.07-2.55c.71-.71,1.56-1.07,2.55-1.07s1.84.36,2.55,1.07c.71.71,1.07,1.56,1.07,2.55,0,.66-.16,1.26-.49,1.81-.33.55-.76.99-1.31,1.32s-1.15.49-1.82.49Z"/><path class="cls-13" d="M203.09,875.72c-.17-.6.2-1.42.55-2.02.11-.18.22-.35.35-.51,2.97-4.42,4.57-9.62,4.57-14.95.05-15.27-12.83-27.65-28.76-27.65-13.89,0-25.48,9.45-28.2,22-.41,1.86-.61,3.76-.61,5.66,0,15.28,12.38,28,28.31,28,2.53,0,5.94-.76,7.82-1.27,1.87-.51,3.73-1.19,4.21-1.37.49-.19,1.01-.28,1.54-.28.57,0,1.14.11,1.67.33l9.39,3.33c.21.09.42.14.65.17.35,0,.69-.14.94-.39.25-.25.39-.59.39-.94-.01-.15-.04-.3-.08-.45l-2.72-9.65Z"/><path class="cls-13" d="M144.53,859.84c-2.17,3.9-3.22,8.33-3.04,12.79.19,4.46,1.6,8.78,4.09,12.49.38.58.6,1.02.53,1.32-.07.3-1.98,10.24-1.98,10.24-.05.23-.03.47.05.7.08.22.22.42.4.57.24.19.54.3.85.29.17,0,.33-.03.48-.1l9.31-3.64c.64-.25,1.36-.24,1.99.03,3.14,1.22,6.6,1.99,10.07,1.99,4.65,0,9.23-1.22,13.25-3.56"/></g></svg>