<?xml version="1.0" encoding="UTF-8"?><svg id="Ebene_2" xmlns="http://www.w3.org/2000/svg" viewBox="0 0 1343.62 1067.19"><defs><style>.cls-1{fill:#3d5d8a;}.cls-1,.cls-2,.cls-3,.cls-4,.cls-5,.cls-6,.cls-7,.cls-8,.cls-9,.cls-10,.cls-11,.cls-12{stroke-width:0px;}.cls-2{fill:#4d52b5;}.cls-3{fill:#0c2f3d;}.cls-4{fill:#f4f6fa;}.cls-5{fill:#fff;}.cls-6{fill:#9f9f9f;}.cls-13{fill:none;stroke:#4e52b2;stroke-linecap:round;stroke-linejoin:round;stroke-width:4.59px;}.cls-7{fill:#f9b795;}.cls-8{fill:#143847;}.cls-9{fill:#123245;}.cls-10{opacity:.1;}.cls-11{fill:#d7e9ff;}.cls-12{fill:#002951;}</style></defs><g id="Layer_1"><path class="cls-3" d="M702.98,837.58c-1.8-4.79-2.57-7.79-2.61-7.95l-3.82.94c.04.15.71,2.77,2.25,7.01h4.19Z"/><path class="cls-7" d="M207.81,441.72l-34.16,38.7-24.25-17.6-7.57.69-18.98,1.69c-26.2,5-78.12-16.03-85.38-24.92-7.69-9.42,5.09-14.48,5.09-14.48l-25.74-11.72c-2.08-.96-3.82-2.62-4.76-4.7-4.35-9.56,8.99-11.98,8.99-11.98l-16.32-10.44c-1.67-1.06-3.01-2.64-3.74-4.48-2.01-5.01-.65-8.4,1.4-10.58,2.5-2.64,6.43-3.34,9.85-2.14l10.56,3.72c-2.77-4.64-1.73-7.73.24-9.7,2.42-2.44,6.2-2.95,9.34-1.55,19.79,8.79,116.19,50.88,92.93,25.67-.49-.51-.94-1.02-1.4-1.53-24.05-27.14-11.66-43.35-11.66-43.35l41.05,41.91c19.37,15.99,26.81,37.43,28.5,43.15.3.94.41,1.46.41,1.46l25.61,12.19Z"/><path class="cls-10" d="M207.81,441.72l-34.16,38.7-24.25-17.6-7.57.69,39.96-35.44c.3.94.41,1.46.41,1.46l25.61,12.19Z"/><path class="cls-7" d="M1135.81,491.91l34.16,38.7,24.25-17.6,7.57.69,18.98,1.69c26.2,5,78.12-16.03,85.38-24.92,7.69-9.42-5.09-14.48-5.09-14.48l25.74-11.72c2.08-.96,3.82-2.62,4.76-4.7,4.35-9.56-8.99-11.98-8.99-11.98l16.32-10.44c1.67-1.06,3.01-2.64,3.74-4.48,2.01-5.01.65-8.4-1.4-10.58-2.5-2.64-6.43-3.34-9.85-2.14l-10.56,3.72c2.77-4.64,1.73-7.73-.24-9.7-2.42-2.44-6.2-2.95-9.34-1.55-19.79,8.79-116.19,50.88-92.93,25.67.49-.51.94-1.02,1.4-1.53,24.05-27.14,11.66-43.35,11.66-43.35l-41.05,41.91c-19.37,15.99-26.81,37.43-28.5,43.15-.3.94-.41,1.46-.41,1.46l-25.61,12.19Z"/><path class="cls-10" d="M1137.22,493.32l34.16,38.7,24.25-17.6,7.57.69-39.96-35.44c-.3.94-.41,1.46-.41,1.46l-25.61,12.19Z"/><path class="cls-11" d="M443.73,678.5l30.75-53.81-9.91,212.9h395.48l-28.84-274.95,44.93,116.09-.05.5,30.75,53.81c11.97,20.95,39.63,26.63,58.88,12.08l244.93-184.98-51.13-94.4-188.8,118-69.14-160.25-19.89-69.08c-3.03-10.52-10.1-19.42-19.66-24.74l-153.73-85.63s-36.38,148.56-47.2,198.08c-8.09,37.04-37.37,246.4-37.37,246.4,0,0-13.77-194.7-16.04-243.02-2.15-45.69-.55-180.43-.55-180.43l-141.32,73.76c-11.66,6.09-20.67,16.27-25.29,28.59l-60.68,161.81-188.8-118-51.13,94.4,244.93,184.98c19.26,14.54,46.91,8.87,58.88-12.08Z"/><rect class="cls-3" x="922.06" y="584.55" width="96.27" height="3.93" transform="translate(-162.75 627.91) rotate(-33.25)"/><path class="cls-3" d="M1252.64,456.87c23.65-3.94,69.48-28.66,71.41-29.71l-1.87-3.46c-.47.25-47.18,25.46-70.19,29.29l.65,3.88Z"/><path class="cls-3" d="M1254.76,474.54c15.66-3.91,69.88-24.27,72.18-25.13l-1.38-3.68c-.56.21-56.31,21.14-71.76,25l.95,3.81Z"/><path class="cls-3" d="M1256.57,492.27c11.83-1.97,44.19-13.37,45.57-13.85l-1.31-3.71c-.33.12-33.41,11.77-44.9,13.68l.65,3.88Z"/><circle class="cls-6" cx="810.97" cy="514.07" r="20.22"/><circle class="cls-9" cx="810.97" cy="514.07" r="11.12"/><path class="cls-9" d="M815.1,511.78l-6.96-.19c3.57-128.34-25.91-192.58-51.26-223.87-26.99-33.32-54.69-36.98-54.97-37.02l1.09-7.76c1.24.15,30.53,4.91,59.28,40.4,26.09,32.21,56.44,97.98,52.81,228.45Z"/><path class="cls-6" d="M565.56,567.94l22.51-6.84c10.11-3.07,16.07-13.52,13.58-23.79l-18.58-76.61-6.66,1.62,18.58,76.61c1.63,6.74-2.28,13.59-8.92,15.61l-22.51,6.84,1.99,6.56Z"/><path class="cls-6" d="M526.36,573.64l-23.53-.15c-10.56-.07-19.26-8.38-19.8-18.93l-4.01-78.73,6.85-.35,4.01,78.73c.35,6.92,6.06,12.38,12.99,12.43l23.53.15-.04,6.86Z"/><rect class="cls-9" x="553.8" y="558.51" width="18.61" height="12.73" rx="6.37" ry="6.37" transform="translate(-131.41 172.67) rotate(-15.64)"/><rect class="cls-9" x="518.54" y="563.64" width="18.61" height="12.73" rx="6.37" ry="6.37" transform="translate(-9.02 8.49) rotate(-.91)"/><path class="cls-9" d="M573.23,434.74c-11.46-18.99-26.69-28.74-44.18-28.4-1.65-51.38,11.7-91.22,38.82-115.5,21.4-19.16,44.11-22.12,44.33-22.15l-.42-3.45-.41-3.46c-1,.12-24.81,3.15-47.83,23.59-20.39,18.11-43.74,53.8-41.44,121.62-11.76,1.95-22.19,8.06-29.68,17.49-9.89,12.45-14.88,30.31-14.85,53.1,0,1.43,1.17,2.58,2.6,2.56l4.68-.08c1.39-.02,2.51-1.17,2.51-2.56-.06-52.19,27.49-60.24,39.48-61.26,31.97-2.72,45.67,37.99,48.62,48.31.37,1.31,1.7,2.09,3.03,1.79l4.58-1.06c1.42-.33,2.28-1.77,1.88-3.18-1.39-4.95-5-16.23-11.72-27.37Z"/><path class="cls-12" d="M708.35,134.97s-4.11,24.65-8.22,41.08c-4.11,16.43-20.54,12.32-20.54,12.32l-4.11-41.08,32.86-12.32Z"/><path class="cls-7" d="M712.78,265.52l-97.57,64.58c-4.19-43.84-2.52-45.31-4.46-72.28-.53-7.06-1.28-15.85-2.48-27.61,0-.14-.02-.29-.04-.45-81.4,27.24-56.21-148.33-56.21-148.33,0,0,13.88-45.12,81.46-55.62,67.58-10.5,64.02,77.72,64.02,77.72,40.26,5.68-1.89,57.03-4.5,61.3l19.78,100.69Z"/><path class="cls-9" d="M674.8,112.11h-34.52c-4.13-8.13-12.55-13.72-22.28-13.72-13.01,0-23.72,10-24.87,22.72h-13.86c-1.15-12.72-11.86-22.72-24.87-22.72-13.78,0-24.99,11.21-24.99,24.99s11.21,24.99,24.99,24.99c13.01,0,23.72-10,24.87-22.72h13.86c1.15,12.72,11.86,22.72,24.87,22.72,13.78,0,24.99-11.21,24.99-24.99,0-2.33-.34-4.58-.94-6.72h32.75v-4.54ZM554.41,143.82c-11.27,0-20.45-9.17-20.45-20.45s9.17-20.45,20.45-20.45,20.45,9.17,20.45,20.45-9.17,20.45-20.45,20.45ZM618.01,143.82c-11.27,0-20.45-9.17-20.45-20.45s9.17-20.45,20.45-20.45,20.45,9.17,20.45,20.45-9.17,20.45-20.45,20.45Z"/><path class="cls-1" d="M619.79,729.8l89.19-481.08-.72-2.81s-9.83,62.13-60.93,64.97c-35.4,1.97-42.16-44.24-42.16-44.24l1.97,52.11s-.82,103.99,1.53,138.65c2.78,41.06,11.13,272.39,11.13,272.39Z"/><path class="cls-3" d="M627.36,682.58l-3.93-.03c.02-2.76,2.44-276.54,16.94-370.97l3.89.6c-14.46,94.15-16.87,367.66-16.9,370.41Z"/><circle class="cls-3" cx="627.65" cy="332.49" r="3.93"/><circle class="cls-3" cx="624.92" cy="383.59" r="3.93"/><circle class="cls-3" cx="622.21" cy="432.72" r="3.93"/><rect class="cls-3" x="380.9" y="484.17" width="3.93" height="96.27" transform="translate(-272.22 560.67) rotate(-56.75)"/><path class="cls-3" d="M92.39,405.27c-23.65-3.94-69.48-28.66-71.41-29.71l1.87-3.46c.47.25,47.18,25.46,70.19,29.29l-.65,3.88Z"/><path class="cls-3" d="M90.27,422.94c-15.66-3.91-69.88-24.27-72.18-25.13l1.38-3.68c.56.21,56.31,21.14,71.76,25l-.95,3.81Z"/><path class="cls-3" d="M88.46,440.67c-11.83-1.97-44.19-13.37-45.57-13.85l1.31-3.71c.33.12,33.41,11.77,44.9,13.68l-.65,3.88Z"/><path class="cls-10" d="M668.94,188.52c-19.73,43.19-43.35,61.6-58.2,69.31-.53-7.06-1.28-15.85-2.48-27.61,38.08-13.71,59.89-40.71,60.67-41.69Z"/><path class="cls-3" d="M675.95,26.37s-46.95-44.5-85.78-17.89c0,0-29.15,36.32-60.65,24.15,0,0-.03,19.4,12.09,24.26,0,0-16.99,12.1-31.53,7.23,0,0,16.85,77.61,89.66,29.23l-2.45,16.97s48.48,4.92,55.82-38.71l18.17,52.68,11.26-4.52s.95-7.5,9.4-12.18c8.45-4.68,22.25-4.57,22.21,21.68,0,0,28.49-108.88-38.19-102.92Z"/><path class="cls-5" d="M625.02,183.56s-35.94-1.68-47.93,12.05c-11.99,13.73,27.08,52.4,47.93-12.05Z"/><path class="cls-8" d="M640.21,316.51l-18.45-13.48-33.43,39.33s-9.17-71.11,21.29-89.87l31.81,56.43s55.41-17.52,67.21-64.72c0,0,21.29,52.92-12.85,98.16l-30.76-34.6-24.82,8.75Z"/><path class="cls-4" d="M1201.92,728.38H121.12c-25.69,0-46.52,10.15-46.52,22.66v226.73c0,12.52,20.83,22.66,46.52,22.66h64.66v66.75l186.86-66.75h829.28c25.69,0,46.52-10.15,46.52-22.66v-226.73c0-12.52-20.83-22.66-46.52-22.66Z"/><path class="cls-13" d="M211.81,828.82l-63.86-.05c-5.29,0-9.58,4.28-9.59,9.57l-.04,57.48c0,5.29,4.28,9.58,9.57,9.59l63.86.05c5.29,0,9.58-4.28,9.59-9.57l.04-57.48c0-5.29-4.28-9.58-9.57-9.59Z"/><path class="cls-13" d="M154.34,822.39v6.39"/><path class="cls-13" d="M205.43,822.43v6.39"/><path class="cls-13" d="M221.38,844.8l-83.02-.06"/><path class="cls-13" d="M189.43,864.73l8.67-6.38h.91s-.03,34.66-.03,34.66"/><path class="cls-13" d="M167.05,874.02c1.82,0,5.15-.85,7.33-3.08.72-.71,1.28-1.56,1.66-2.49.38-.93.57-1.94.56-2.94,0-5.21-4.5-7.97-9.55-7.97-4.27,0-6.69,2.31-7.56,3.77"/><path class="cls-13" d="M158.48,887.49c.97,1.65,3.93,5.16,8.75,5.16,5.71,0,10.4-3.17,10.41-8.74,0-2.52-.73-4.79-2.31-6.4-2.46-2.52-6.23-3.49-8.29-3.49"/><path class="cls-2" d="M272.08,826.01h3.61v19.74c0,2.04-.48,3.86-1.43,5.45s-2.3,2.85-4.04,3.77c-1.74.92-3.78,1.38-6.12,1.38s-4.38-.46-6.12-1.38c-1.74-.92-3.08-2.17-4.04-3.77s-1.43-3.41-1.43-5.45v-19.74h3.61v19.45c0,1.46.32,2.75.96,3.88s1.56,2.02,2.74,2.66c1.19.65,2.61.97,4.27.97s3.09-.32,4.28-.97c1.19-.65,2.11-1.53,2.75-2.66s.95-2.42.95-3.88v-19.45Z"/><path class="cls-2" d="M285.88,842.38v13.45h-3.44v-22.36h3.32v3.49h.29c.52-1.14,1.32-2.05,2.39-2.74,1.07-.69,2.45-1.04,4.13-1.04,1.51,0,2.84.31,3.97.92,1.14.62,2.02,1.55,2.65,2.8.63,1.25.95,2.82.95,4.72v14.21h-3.44v-13.98c0-1.76-.46-3.13-1.37-4.11-.91-.98-2.17-1.48-3.76-1.48-1.1,0-2.07.24-2.93.71-.86.48-1.54,1.17-2.03,2.08-.5.91-.74,2.02-.74,3.32Z"/><path class="cls-2" d="M316.4,833.47v2.91h-12.06v-2.91h12.06ZM307.95,855.83v-25.45c0-1.28.3-2.35.9-3.2s1.38-1.49,2.34-1.92,1.97-.64,3.04-.64c.84,0,1.53.07,2.07.2.53.14.93.26,1.19.38l-.99,2.97c-.17-.06-.41-.13-.72-.22-.31-.09-.71-.13-1.2-.13-1.13,0-1.95.29-2.45.86s-.75,1.41-.75,2.52v24.63h-3.44Z"/><path class="cls-2" d="M329.38,856.3c-2.02,0-3.79-.48-5.31-1.44-1.52-.96-2.7-2.31-3.55-4.03-.85-1.73-1.27-3.75-1.27-6.06s.42-4.36,1.27-6.1c.85-1.74,2.03-3.09,3.55-4.05,1.52-.96,3.29-1.44,5.31-1.44s3.79.48,5.31,1.44c1.52.96,2.7,2.31,3.55,4.05.85,1.74,1.27,3.77,1.27,6.1s-.42,4.33-1.27,6.06c-.85,1.73-2.03,3.07-3.55,4.03-1.52.96-3.29,1.44-5.31,1.44ZM329.38,853.21c1.53,0,2.79-.39,3.79-1.18.99-.79,1.72-1.82,2.2-3.1s.71-2.67.71-4.16-.24-2.89-.71-4.18c-.48-1.29-1.21-2.33-2.2-3.13-.99-.8-2.25-1.19-3.79-1.19s-2.8.4-3.79,1.19c-.99.8-1.72,1.84-2.2,3.13-.48,1.29-.71,2.68-.71,4.18s.24,2.88.71,4.16,1.21,2.31,2.2,3.1c.99.79,2.25,1.18,3.79,1.18Z"/><path class="cls-2" d="M344.76,855.83v-22.36h3.32v3.38h.23c.41-1.11,1.15-2,2.21-2.69,1.07-.69,2.27-1.03,3.61-1.03.25,0,.57,0,.95.01.38,0,.67.02.86.04v3.49c-.12-.03-.38-.07-.79-.14-.41-.06-.85-.09-1.3-.09-1.09,0-2.06.23-2.91.68-.85.45-1.52,1.07-2.01,1.86-.49.79-.74,1.69-.74,2.7v14.15h-3.44Z"/><path class="cls-2" d="M371.14,833.47v2.91h-11.59v-2.91h11.59ZM362.93,828.11h3.44v21.32c0,.97.14,1.7.43,2.18s.66.8,1.11.96c.45.16.93.24,1.43.24.38,0,.69-.02.93-.07.24-.04.44-.08.58-.11l.7,3.09c-.23.09-.56.18-.98.27s-.95.14-1.59.14c-.97,0-1.92-.21-2.85-.63-.93-.42-1.69-1.05-2.3-1.91-.61-.85-.91-1.93-.91-3.23v-22.25Z"/><path class="cls-2" d="M390.42,846.69v-13.22h3.44v22.36h-3.44v-3.79h-.23c-.52,1.14-1.34,2.1-2.45,2.89-1.11.79-2.5,1.19-4.19,1.19-1.4,0-2.64-.31-3.73-.92-1.09-.62-1.94-1.55-2.56-2.8-.62-1.25-.93-2.82-.93-4.72v-14.21h3.44v13.98c0,1.63.46,2.93,1.38,3.9s2.09,1.46,3.52,1.46c.85,0,1.73-.22,2.61-.66.89-.44,1.63-1.11,2.24-2.01.61-.9.91-2.05.91-3.45Z"/><path class="cls-2" d="M403.58,842.38v13.45h-3.44v-22.36h3.32v3.49h.29c.52-1.14,1.32-2.05,2.39-2.74,1.07-.69,2.45-1.04,4.13-1.04,1.51,0,2.84.31,3.97.92,1.14.62,2.02,1.55,2.65,2.8.63,1.25.95,2.82.95,4.72v14.21h-3.44v-13.98c0-1.76-.46-3.13-1.37-4.11-.91-.98-2.17-1.48-3.76-1.48-1.1,0-2.07.24-2.93.71-.86.48-1.54,1.17-2.03,2.08-.5.91-.74,2.02-.74,3.32Z"/><path class="cls-2" d="M430.72,856.35c-1.42,0-2.7-.27-3.86-.81-1.16-.54-2.07-1.32-2.75-2.34-.68-1.02-1.02-2.26-1.02-3.72,0-1.28.25-2.32.76-3.12s1.18-1.43,2.02-1.89c.84-.46,1.78-.8,2.8-1.03,1.02-.23,2.05-.41,3.09-.55,1.36-.17,2.46-.31,3.31-.4.85-.09,1.47-.25,1.86-.47.39-.22.59-.61.59-1.16v-.12c0-1.44-.39-2.55-1.17-3.35-.78-.8-1.96-1.19-3.55-1.19s-2.93.36-3.86,1.08-1.59,1.48-1.96,2.3l-3.26-1.17c.58-1.36,1.36-2.42,2.34-3.18.98-.76,2.04-1.3,3.2-1.6,1.16-.31,2.3-.46,3.43-.46.72,0,1.55.08,2.48.25s1.84.52,2.72,1.04c.88.52,1.61,1.32,2.19,2.37.58,1.06.87,2.48.87,4.25v14.73h-3.44v-3.03h-.17c-.23.49-.62,1-1.17,1.56s-1.27,1.02-2.17,1.41c-.9.39-2,.58-3.31.58ZM431.24,853.27c1.36,0,2.51-.27,3.44-.8s1.65-1.22,2.13-2.07c.48-.84.72-1.73.72-2.66v-3.15c-.15.17-.46.33-.95.47-.49.14-1.05.26-1.69.36s-1.25.19-1.85.26c-.6.07-1.08.13-1.45.18-.89.12-1.73.3-2.5.56-.77.26-1.39.64-1.86,1.15-.47.51-.71,1.2-.71,2.07,0,1.19.44,2.09,1.33,2.7.89.61,2.02.91,3.38.91Z"/><path class="cls-2" d="M456.98,833.47v2.91h-11.59v-2.91h11.59ZM448.77,828.11h3.44v21.32c0,.97.14,1.7.43,2.18s.66.8,1.11.96c.45.16.93.24,1.43.24.38,0,.69-.02.93-.07.24-.04.44-.08.58-.11l.7,3.09c-.23.09-.56.18-.98.27s-.95.14-1.59.14c-.97,0-1.92-.21-2.85-.63-.93-.42-1.69-1.05-2.3-1.91-.61-.85-.91-1.93-.91-3.23v-22.25Z"/><path class="cls-2" d="M471.31,856.3c-2.16,0-4.01-.48-5.57-1.43s-2.76-2.3-3.6-4.02c-.84-1.72-1.26-3.73-1.26-6.02s.42-4.31,1.26-6.06c.84-1.75,2.01-3.12,3.52-4.11,1.51-.98,3.27-1.48,5.29-1.48,1.17,0,2.32.19,3.45.58,1.14.39,2.17,1.02,3.1,1.89s1.67,2.02,2.23,3.44c.55,1.43.83,3.18.83,5.27v1.46h-17.24v-2.97h13.74c0-1.26-.25-2.39-.75-3.38-.5-.99-1.21-1.77-2.13-2.34-.92-.57-2-.86-3.24-.86-1.37,0-2.55.34-3.54,1.01-1,.67-1.76,1.55-2.29,2.63-.53,1.08-.8,2.23-.8,3.47v1.98c0,1.69.29,3.12.88,4.29.59,1.17,1.41,2.06,2.45,2.66,1.05.61,2.27.91,3.65.91.9,0,1.72-.13,2.45-.39.73-.26,1.37-.65,1.9-1.17.53-.52.95-1.17,1.24-1.94l3.32.93c-.35,1.13-.94,2.11-1.76,2.96-.83.85-1.84,1.51-3.06,1.98-1.21.47-2.58.71-4.09.71Z"/><path class="cls-2" d="M489.25,826.01v29.82h-3.44v-29.82h3.44Z"/><path class="cls-2" d="M497.75,864.16c-.58,0-1.1-.05-1.56-.14-.46-.09-.77-.18-.95-.27l.87-3.03c1.25.32,2.29.31,3.13-.02s1.56-1.34,2.17-3.01l.64-1.75-8.27-22.48h3.73l6.17,17.82h.23l6.17-17.82,3.76.06-9.52,25.57c-.43,1.14-.96,2.08-1.59,2.83-.63.75-1.36,1.31-2.19,1.68-.83.37-1.76.55-2.8.55Z"/><path class="cls-2" d="M539.65,833.47v2.91h-11.59v-2.91h11.59ZM531.44,828.11h3.44v21.32c0,.97.14,1.7.43,2.18s.66.8,1.11.96c.45.16.93.24,1.43.24.38,0,.69-.02.93-.07.24-.04.44-.08.58-.11l.7,3.09c-.23.09-.56.18-.98.27s-.95.14-1.59.14c-.97,0-1.92-.21-2.85-.63-.93-.42-1.69-1.05-2.3-1.91-.61-.85-.91-1.93-.91-3.23v-22.25Z"/><path class="cls-2" d="M548.74,842.38v13.45h-3.44v-29.82h3.44v10.95h.29c.52-1.16,1.31-2.07,2.37-2.76,1.05-.68,2.46-1.03,4.21-1.03,1.52,0,2.86.3,4,.91,1.15.61,2.04,1.53,2.67,2.78s.95,2.83.95,4.75v14.21h-3.44v-13.98c0-1.78-.46-3.15-1.38-4.13s-2.19-1.46-3.81-1.46c-1.13,0-2.13.24-3.02.71-.89.48-1.59,1.17-2.1,2.08-.51.91-.76,2.02-.76,3.32Z"/><path class="cls-2" d="M578.91,856.3c-2.16,0-4.01-.48-5.57-1.43s-2.76-2.3-3.6-4.02c-.84-1.72-1.26-3.73-1.26-6.02s.42-4.31,1.26-6.06c.84-1.75,2.01-3.12,3.52-4.11,1.51-.98,3.27-1.48,5.29-1.48,1.17,0,2.32.19,3.45.58,1.14.39,2.17,1.02,3.1,1.89s1.67,2.02,2.23,3.44c.55,1.43.83,3.18.83,5.27v1.46h-17.24v-2.97h13.74c0-1.26-.25-2.39-.75-3.38-.5-.99-1.21-1.77-2.13-2.34-.92-.57-2-.86-3.24-.86-1.37,0-2.55.34-3.54,1.01-1,.67-1.76,1.55-2.29,2.63-.53,1.08-.8,2.23-.8,3.47v1.98c0,1.69.29,3.12.88,4.29.59,1.17,1.41,2.06,2.45,2.66,1.05.61,2.27.91,3.65.91.9,0,1.72-.13,2.45-.39.73-.26,1.37-.65,1.9-1.17.53-.52.95-1.17,1.24-1.94l3.32.93c-.35,1.13-.94,2.11-1.76,2.96-.83.85-1.84,1.51-3.06,1.98-1.21.47-2.58.71-4.09.71Z"/><path class="cls-2" d="M593.41,855.83v-22.36h3.32v3.38h.23c.41-1.11,1.15-2,2.21-2.69,1.07-.69,2.27-1.03,3.61-1.03.25,0,.57,0,.95.01.38,0,.67.02.86.04v3.49c-.12-.03-.38-.07-.79-.14-.41-.06-.85-.09-1.3-.09-1.09,0-2.06.23-2.91.68-.85.45-1.52,1.07-2.01,1.86-.49.79-.74,1.69-.74,2.7v14.15h-3.44Z"/><path class="cls-2" d="M617.34,856.3c-2.16,0-4.01-.48-5.57-1.43s-2.76-2.3-3.6-4.02c-.84-1.72-1.26-3.73-1.26-6.02s.42-4.31,1.26-6.06c.84-1.75,2.01-3.12,3.52-4.11,1.51-.98,3.27-1.48,5.29-1.48,1.17,0,2.32.19,3.45.58,1.14.39,2.17,1.02,3.1,1.89s1.67,2.02,2.23,3.44c.55,1.43.83,3.18.83,5.27v1.46h-17.24v-2.97h13.74c0-1.26-.25-2.39-.75-3.38-.5-.99-1.21-1.77-2.13-2.34-.92-.57-2-.86-3.24-.86-1.37,0-2.55.34-3.54,1.01-1,.67-1.76,1.55-2.29,2.63-.53,1.08-.8,2.23-.8,3.47v1.98c0,1.69.29,3.12.88,4.29.59,1.17,1.41,2.06,2.45,2.66,1.05.61,2.27.91,3.65.91.9,0,1.72-.13,2.45-.39.73-.26,1.37-.65,1.9-1.17.53-.52.95-1.17,1.24-1.94l3.32.93c-.35,1.13-.94,2.11-1.76,2.96-.83.85-1.84,1.51-3.06,1.98-1.21.47-2.58.71-4.09.71Z"/><path class="cls-2" d="M649.96,856.35c-1.42,0-2.7-.27-3.86-.81-1.16-.54-2.07-1.32-2.75-2.34-.68-1.02-1.02-2.26-1.02-3.72,0-1.28.25-2.32.76-3.12s1.18-1.43,2.02-1.89c.84-.46,1.78-.8,2.8-1.03,1.02-.23,2.05-.41,3.09-.55,1.36-.17,2.46-.31,3.31-.4.85-.09,1.47-.25,1.86-.47.39-.22.59-.61.59-1.16v-.12c0-1.44-.39-2.55-1.17-3.35-.78-.8-1.96-1.19-3.55-1.19s-2.93.36-3.86,1.08-1.59,1.48-1.96,2.3l-3.26-1.17c.58-1.36,1.36-2.42,2.34-3.18.98-.76,2.04-1.3,3.2-1.6,1.16-.31,2.3-.46,3.43-.46.72,0,1.55.08,2.48.25s1.84.52,2.72,1.04c.88.52,1.61,1.32,2.19,2.37.58,1.06.87,2.48.87,4.25v14.73h-3.44v-3.03h-.17c-.23.49-.62,1-1.17,1.56s-1.27,1.02-2.17,1.41c-.9.39-2,.58-3.31.58ZM650.48,853.27c1.36,0,2.51-.27,3.44-.8s1.65-1.22,2.13-2.07c.48-.84.72-1.73.72-2.66v-3.15c-.15.17-.46.33-.95.47-.49.14-1.05.26-1.69.36s-1.25.19-1.85.26c-.6.07-1.08.13-1.45.18-.89.12-1.73.3-2.5.56-.77.26-1.39.64-1.86,1.15-.47.51-.71,1.2-.71,2.07,0,1.19.44,2.09,1.33,2.7.89.61,2.02.91,3.38.91Z"/><path class="cls-2" d="M666.5,855.83v-22.36h3.32v3.38h.23c.41-1.11,1.15-2,2.21-2.69,1.07-.69,2.27-1.03,3.61-1.03.25,0,.57,0,.95.01.38,0,.67.02.86.04v3.49c-.12-.03-.38-.07-.79-.14-.41-.06-.85-.09-1.3-.09-1.09,0-2.06.23-2.91.68-.85.45-1.52,1.07-2.01,1.86-.49.79-.74,1.69-.74,2.7v14.15h-3.44Z"/><path class="cls-2" d="M690.43,856.3c-2.16,0-4.01-.48-5.57-1.43s-2.76-2.3-3.6-4.02c-.84-1.72-1.26-3.73-1.26-6.02s.42-4.31,1.26-6.06c.84-1.75,2.01-3.12,3.52-4.11,1.51-.98,3.27-1.48,5.29-1.48,1.17,0,2.32.19,3.45.58,1.14.39,2.17,1.02,3.1,1.89s1.67,2.02,2.23,3.44c.55,1.43.83,3.18.83,5.27v1.46h-17.24v-2.97h13.74c0-1.26-.25-2.39-.75-3.38-.5-.99-1.21-1.77-2.13-2.34-.92-.57-2-.86-3.24-.86-1.37,0-2.55.34-3.54,1.01-1,.67-1.76,1.55-2.29,2.63-.53,1.08-.8,2.23-.8,3.47v1.98c0,1.69.29,3.12.88,4.29.59,1.17,1.41,2.06,2.45,2.66,1.05.61,2.27.91,3.65.91.9,0,1.72-.13,2.45-.39.73-.26,1.37-.65,1.9-1.17.53-.52.95-1.17,1.24-1.94l3.32.93c-.35,1.13-.94,2.11-1.76,2.96-.83.85-1.84,1.51-3.06,1.98-1.21.47-2.58.71-4.09.71Z"/><path class="cls-2" d="M719.9,842.38v13.45h-3.44v-22.36h3.32v3.49h.29c.52-1.14,1.32-2.05,2.39-2.74,1.07-.69,2.45-1.04,4.13-1.04,1.51,0,2.84.31,3.97.92,1.14.62,2.02,1.55,2.65,2.8.63,1.25.95,2.82.95,4.72v14.21h-3.44v-13.98c0-1.76-.46-3.13-1.37-4.11-.91-.98-2.17-1.48-3.76-1.48-1.1,0-2.07.24-2.93.71-.86.48-1.54,1.17-2.03,2.08-.5.91-.74,2.02-.74,3.32Z"/><path class="cls-2" d="M749.54,856.3c-2.02,0-3.79-.48-5.31-1.44-1.52-.96-2.7-2.31-3.55-4.03-.85-1.73-1.27-3.75-1.27-6.06s.42-4.36,1.27-6.1c.85-1.74,2.03-3.09,3.55-4.05,1.52-.96,3.29-1.44,5.31-1.44s3.79.48,5.31,1.44c1.52.96,2.7,2.31,3.55,4.05.85,1.74,1.27,3.77,1.27,6.1s-.42,4.33-1.27,6.06c-.85,1.73-2.03,3.07-3.55,4.03-1.52.96-3.29,1.44-5.31,1.44ZM749.54,853.21c1.53,0,2.79-.39,3.79-1.18.99-.79,1.72-1.82,2.2-3.1s.71-2.67.71-4.16-.24-2.89-.71-4.18c-.48-1.29-1.21-2.33-2.2-3.13-.99-.8-2.25-1.19-3.79-1.19s-2.8.4-3.79,1.19c-.99.8-1.72,1.84-2.2,3.13-.48,1.29-.71,2.68-.71,4.18s.24,2.88.71,4.16,1.21,2.31,2.2,3.1c.99.79,2.25,1.18,3.79,1.18Z"/><path class="cls-2" d="M776.45,855.83v-22.36h3.32v3.49h.29c.47-1.19,1.22-2.12,2.26-2.79,1.04-.66,2.29-1,3.74-1s2.71.33,3.69,1c.99.67,1.75,1.59,2.31,2.79h.23c.57-1.16,1.43-2.07,2.58-2.76,1.15-.68,2.52-1.03,4.12-1.03,2,0,3.63.62,4.91,1.87,1.27,1.25,1.91,3.19,1.91,5.82v14.97h-3.44v-14.97c0-1.65-.45-2.83-1.35-3.54s-1.97-1.06-3.19-1.06c-1.57,0-2.79.47-3.65,1.42-.86.95-1.3,2.14-1.3,3.59v14.56h-3.49v-15.32c0-1.27-.41-2.3-1.24-3.08s-1.89-1.17-3.19-1.17c-.89,0-1.72.24-2.5.71-.77.48-1.39,1.13-1.86,1.97s-.71,1.81-.71,2.9v13.98h-3.44Z"/><path class="cls-2" d="M821.18,856.3c-2.02,0-3.79-.48-5.31-1.44-1.52-.96-2.7-2.31-3.55-4.03-.85-1.73-1.27-3.75-1.27-6.06s.42-4.36,1.27-6.1c.85-1.74,2.03-3.09,3.55-4.05,1.52-.96,3.29-1.44,5.31-1.44s3.79.48,5.31,1.44c1.52.96,2.7,2.31,3.55,4.05.85,1.74,1.27,3.77,1.27,6.1s-.42,4.33-1.27,6.06c-.85,1.73-2.03,3.07-3.55,4.03-1.52.96-3.29,1.44-5.31,1.44ZM821.18,853.21c1.53,0,2.79-.39,3.79-1.18.99-.79,1.72-1.82,2.2-3.1s.71-2.67.71-4.16-.24-2.89-.71-4.18c-.48-1.29-1.21-2.33-2.2-3.13-.99-.8-2.25-1.19-3.79-1.19s-2.8.4-3.79,1.19c-.99.8-1.72,1.84-2.2,3.13-.48,1.29-.71,2.68-.71,4.18s.24,2.88.71,4.16,1.21,2.31,2.2,3.1c.99.79,2.25,1.18,3.79,1.18Z"/><path class="cls-2" d="M836.55,855.83v-22.36h3.32v3.38h.23c.41-1.11,1.15-2,2.21-2.69,1.07-.69,2.27-1.03,3.61-1.03.25,0,.57,0,.95.01.38,0,.67.02.86.04v3.49c-.12-.03-.38-.07-.79-.14-.41-.06-.85-.09-1.3-.09-1.09,0-2.06.23-2.91.68-.85.45-1.52,1.07-2.01,1.86-.49.79-.74,1.69-.74,2.7v14.15h-3.44Z"/><path class="cls-2" d="M860.49,856.3c-2.16,0-4.01-.48-5.57-1.43s-2.76-2.3-3.6-4.02c-.84-1.72-1.26-3.73-1.26-6.02s.42-4.31,1.26-6.06c.84-1.75,2.01-3.12,3.52-4.11,1.51-.98,3.27-1.48,5.29-1.48,1.17,0,2.32.19,3.45.58,1.14.39,2.17,1.02,3.1,1.89s1.67,2.02,2.23,3.44c.55,1.43.83,3.18.83,5.27v1.46h-17.24v-2.97h13.74c0-1.26-.25-2.39-.75-3.38-.5-.99-1.21-1.77-2.13-2.34-.92-.57-2-.86-3.24-.86-1.37,0-2.55.34-3.54,1.01-1,.67-1.76,1.55-2.29,2.63-.53,1.08-.8,2.23-.8,3.47v1.98c0,1.69.29,3.12.88,4.29.59,1.17,1.41,2.06,2.45,2.66,1.05.61,2.27.91,3.65.91.9,0,1.72-.13,2.45-.39.73-.26,1.37-.65,1.9-1.17.53-.52.95-1.17,1.24-1.94l3.32.93c-.35,1.13-.94,2.11-1.76,2.96-.83.85-1.84,1.51-3.06,1.98-1.21.47-2.58.71-4.09.71Z"/><path class="cls-2" d="M893.1,856.35c-1.42,0-2.7-.27-3.86-.81-1.16-.54-2.07-1.32-2.75-2.34-.68-1.02-1.02-2.26-1.02-3.72,0-1.28.25-2.32.76-3.12s1.18-1.43,2.02-1.89c.84-.46,1.78-.8,2.8-1.03,1.02-.23,2.05-.41,3.09-.55,1.36-.17,2.46-.31,3.31-.4.85-.09,1.47-.25,1.86-.47.39-.22.59-.61.59-1.16v-.12c0-1.44-.39-2.55-1.17-3.35-.78-.8-1.96-1.19-3.55-1.19s-2.93.36-3.86,1.08-1.59,1.48-1.96,2.3l-3.26-1.17c.58-1.36,1.36-2.42,2.34-3.18.98-.76,2.04-1.3,3.2-1.6,1.16-.31,2.3-.46,3.43-.46.72,0,1.55.08,2.48.25s1.84.52,2.72,1.04c.88.52,1.61,1.32,2.19,2.37.58,1.06.87,2.48.87,4.25v14.73h-3.44v-3.03h-.17c-.23.49-.62,1-1.17,1.56s-1.27,1.02-2.17,1.41c-.9.39-2,.58-3.31.58ZM893.62,853.27c1.36,0,2.51-.27,3.44-.8s1.65-1.22,2.13-2.07c.48-.84.72-1.73.72-2.66v-3.15c-.15.17-.46.33-.95.47-.49.14-1.05.26-1.69.36s-1.25.19-1.85.26c-.6.07-1.08.13-1.45.18-.89.12-1.73.3-2.5.56-.77.26-1.39.64-1.86,1.15-.47.51-.71,1.2-.71,2.07,0,1.19.44,2.09,1.33,2.7.89.61,2.02.91,3.38.91Z"/><path class="cls-2" d="M909.64,864.22v-30.75h3.32v3.55h.41c.25-.39.6-.89,1.06-1.49.45-.61,1.1-1.15,1.95-1.63.85-.48,2-.72,3.46-.72,1.88,0,3.54.47,4.98,1.41,1.44.94,2.56,2.28,3.36,4,.81,1.73,1.21,3.77,1.21,6.12s-.4,4.42-1.21,6.15-1.92,3.07-3.35,4.02c-1.43.95-3.07,1.42-4.94,1.42-1.44,0-2.59-.24-3.45-.72-.86-.48-1.53-1.03-2-1.65s-.83-1.13-1.08-1.54h-.29v11.82h-3.44ZM913.02,844.65c0,1.69.25,3.18.74,4.46s1.22,2.29,2.17,3.01c.95.72,2.12,1.08,3.49,1.08s2.64-.38,3.6-1.14c.97-.76,1.69-1.79,2.18-3.09.49-1.3.74-2.74.74-4.33s-.24-2.99-.72-4.26-1.2-2.27-2.17-3.01c-.97-.74-2.18-1.11-3.63-1.11s-2.57.35-3.52,1.06c-.95.7-1.67,1.68-2.15,2.94-.49,1.26-.73,2.72-.73,4.39Z"/><path class="cls-2" d="M934.62,864.22v-30.75h3.32v3.55h.41c.25-.39.6-.89,1.06-1.49.45-.61,1.1-1.15,1.95-1.63.85-.48,2-.72,3.46-.72,1.88,0,3.54.47,4.98,1.41,1.44.94,2.56,2.28,3.36,4,.81,1.73,1.21,3.77,1.21,6.12s-.4,4.42-1.21,6.15-1.92,3.07-3.35,4.02c-1.43.95-3.07,1.42-4.94,1.42-1.44,0-2.59-.24-3.45-.72-.86-.48-1.53-1.03-2-1.65s-.83-1.13-1.08-1.54h-.29v11.82h-3.44ZM938,844.65c0,1.69.25,3.18.74,4.46s1.22,2.29,2.17,3.01c.95.72,2.12,1.08,3.49,1.08s2.64-.38,3.6-1.14c.97-.76,1.69-1.79,2.18-3.09.49-1.3.74-2.74.74-4.33s-.24-2.99-.72-4.26-1.2-2.27-2.17-3.01c-.97-.74-2.18-1.11-3.63-1.11s-2.57.35-3.52,1.06c-.95.7-1.67,1.68-2.15,2.94-.49,1.26-.73,2.72-.73,4.39Z"/><path class="cls-2" d="M968.69,856.3c-2.02,0-3.79-.48-5.31-1.44-1.52-.96-2.7-2.31-3.55-4.03-.85-1.73-1.27-3.75-1.27-6.06s.42-4.36,1.27-6.1c.85-1.74,2.03-3.09,3.55-4.05,1.52-.96,3.29-1.44,5.31-1.44s3.79.48,5.31,1.44c1.52.96,2.7,2.31,3.55,4.05.85,1.74,1.27,3.77,1.27,6.1s-.42,4.33-1.27,6.06c-.85,1.73-2.03,3.07-3.55,4.03-1.52.96-3.29,1.44-5.31,1.44ZM968.69,853.21c1.53,0,2.79-.39,3.79-1.18.99-.79,1.72-1.82,2.2-3.1s.71-2.67.71-4.16-.24-2.89-.71-4.18c-.48-1.29-1.21-2.33-2.2-3.13-.99-.8-2.25-1.19-3.79-1.19s-2.8.4-3.79,1.19c-.99.8-1.72,1.84-2.2,3.13-.48,1.29-.71,2.68-.71,4.18s.24,2.88.71,4.16,1.21,2.31,2.2,3.1c.99.79,2.25,1.18,3.79,1.18Z"/><path class="cls-2" d="M985.82,829.74c-.67,0-1.24-.23-1.72-.68-.48-.46-.72-1-.72-1.65s.24-1.19.72-1.65c.48-.46,1.06-.68,1.72-.68s1.25.23,1.73.68c.48.46.72,1,.72,1.65s-.24,1.19-.72,1.65c-.48.46-1.06.68-1.73.68ZM984.07,855.83v-22.36h3.44v22.36h-3.44Z"/><path class="cls-2" d="M997.23,842.38v13.45h-3.44v-22.36h3.32v3.49h.29c.52-1.14,1.32-2.05,2.39-2.74,1.07-.69,2.45-1.04,4.13-1.04,1.51,0,2.84.31,3.97.92,1.14.62,2.02,1.55,2.65,2.8.63,1.25.95,2.82.95,4.72v14.21h-3.44v-13.98c0-1.76-.46-3.13-1.37-4.11-.91-.98-2.17-1.48-3.76-1.48-1.1,0-2.07.24-2.93.71-.86.48-1.54,1.17-2.03,2.08-.5.91-.74,2.02-.74,3.32Z"/><path class="cls-2" d="M1027.51,833.47v2.91h-11.59v-2.91h11.59ZM1019.3,828.11h3.44v21.32c0,.97.14,1.7.43,2.18s.66.8,1.11.96c.45.16.93.24,1.43.24.38,0,.69-.02.93-.07.24-.04.44-.08.58-.11l.7,3.09c-.23.09-.56.18-.98.27s-.95.14-1.59.14c-.97,0-1.92-.21-2.85-.63-.93-.42-1.69-1.05-2.3-1.91-.61-.85-.91-1.93-.91-3.23v-22.25Z"/><path class="cls-2" d="M1032.7,855.83v-22.36h3.32v3.49h.29c.47-1.19,1.22-2.12,2.26-2.79,1.04-.66,2.29-1,3.74-1s2.71.33,3.69,1c.99.67,1.75,1.59,2.31,2.79h.23c.57-1.16,1.43-2.07,2.58-2.76,1.15-.68,2.52-1.03,4.12-1.03,2,0,3.63.62,4.91,1.87,1.27,1.25,1.91,3.19,1.91,5.82v14.97h-3.44v-14.97c0-1.65-.45-2.83-1.35-3.54s-1.97-1.06-3.19-1.06c-1.57,0-2.79.47-3.65,1.42-.86.95-1.3,2.14-1.3,3.59v14.56h-3.49v-15.32c0-1.27-.41-2.3-1.24-3.08s-1.89-1.17-3.19-1.17c-.89,0-1.72.24-2.5.71-.77.48-1.39,1.13-1.86,1.97s-.71,1.81-.71,2.9v13.98h-3.44Z"/><path class="cls-2" d="M1077.72,856.3c-2.16,0-4.01-.48-5.57-1.43s-2.76-2.3-3.6-4.02c-.84-1.72-1.26-3.73-1.26-6.02s.42-4.31,1.26-6.06c.84-1.75,2.01-3.12,3.52-4.11,1.51-.98,3.27-1.48,5.29-1.48,1.17,0,2.32.19,3.45.58,1.14.39,2.17,1.02,3.1,1.89s1.67,2.02,2.23,3.44c.55,1.43.83,3.18.83,5.27v1.46h-17.24v-2.97h13.74c0-1.26-.25-2.39-.75-3.38-.5-.99-1.21-1.77-2.13-2.34-.92-.57-2-.86-3.24-.86-1.37,0-2.55.34-3.54,1.01-1,.67-1.76,1.55-2.29,2.63-.53,1.08-.8,2.23-.8,3.47v1.98c0,1.69.29,3.12.88,4.29.59,1.17,1.41,2.06,2.45,2.66,1.05.61,2.27.91,3.65.91.9,0,1.72-.13,2.45-.39.73-.26,1.37-.65,1.9-1.17.53-.52.95-1.17,1.24-1.94l3.32.93c-.35,1.13-.94,2.11-1.76,2.96-.83.85-1.84,1.51-3.06,1.98-1.21.47-2.58.71-4.09.71Z"/><path class="cls-2" d="M1095.65,842.38v13.45h-3.44v-22.36h3.32v3.49h.29c.52-1.14,1.32-2.05,2.39-2.74,1.07-.69,2.45-1.04,4.13-1.04,1.51,0,2.84.31,3.97.92,1.14.62,2.02,1.55,2.65,2.8.63,1.25.95,2.82.95,4.72v14.21h-3.44v-13.98c0-1.76-.46-3.13-1.37-4.11-.91-.98-2.17-1.48-3.76-1.48-1.1,0-2.07.24-2.93.71-.86.48-1.54,1.17-2.03,2.08-.5.91-.74,2.02-.74,3.32Z"/><path class="cls-2" d="M1125.94,833.47v2.91h-11.59v-2.91h11.59ZM1117.73,828.11h3.44v21.32c0,.97.14,1.7.43,2.18s.66.8,1.11.96c.45.16.93.24,1.43.24.38,0,.69-.02.93-.07.24-.04.44-.08.58-.11l.7,3.09c-.23.09-.56.18-.98.27s-.95.14-1.59.14c-.97,0-1.92-.21-2.85-.63-.93-.42-1.69-1.05-2.3-1.91-.61-.85-.91-1.93-.91-3.23v-22.25Z"/><path class="cls-2" d="M1146.55,838.47l-3.09.87c-.19-.51-.48-1.02-.85-1.51-.37-.49-.88-.9-1.52-1.22s-1.46-.48-2.46-.48c-1.37,0-2.51.31-3.41.94-.91.63-1.36,1.42-1.36,2.38,0,.85.31,1.53.93,2.02s1.59.91,2.91,1.24l3.32.81c2,.49,3.49,1.23,4.47,2.22s1.47,2.27,1.47,3.84c0,1.28-.37,2.43-1.1,3.44-.73,1.01-1.75,1.81-3.06,2.39s-2.83.87-4.57.87c-2.28,0-4.17-.5-5.66-1.48-1.5-.99-2.44-2.44-2.84-4.34l3.26-.82c.31,1.2.9,2.11,1.77,2.71.87.6,2.01.9,3.41.9,1.6,0,2.88-.34,3.82-1.03.95-.68,1.42-1.51,1.42-2.47,0-.78-.27-1.43-.82-1.96-.54-.53-1.38-.92-2.5-1.19l-3.73-.87c-2.05-.49-3.55-1.24-4.51-2.26-.96-1.02-1.43-2.31-1.43-3.85,0-1.26.36-2.38,1.07-3.35s1.69-1.73,2.93-2.29c1.24-.55,2.64-.83,4.21-.83,2.21,0,3.95.49,5.22,1.46s2.17,2.25,2.7,3.84Z"/><path class="cls-2" d="M258.62,905.55c-1.42,0-2.7-.27-3.86-.81-1.16-.54-2.07-1.32-2.75-2.34-.68-1.02-1.02-2.26-1.02-3.72,0-1.28.25-2.32.76-3.12s1.18-1.43,2.02-1.89c.84-.46,1.78-.8,2.8-1.03,1.02-.23,2.05-.41,3.09-.55,1.36-.17,2.46-.31,3.31-.4.85-.09,1.47-.25,1.86-.47.39-.22.59-.61.59-1.16v-.12c0-1.44-.39-2.55-1.17-3.35-.78-.8-1.96-1.19-3.55-1.19s-2.93.36-3.86,1.08-1.59,1.48-1.96,2.3l-3.26-1.17c.58-1.36,1.36-2.42,2.34-3.18.98-.76,2.04-1.3,3.2-1.6,1.16-.31,2.3-.46,3.43-.46.72,0,1.55.08,2.48.25s1.84.52,2.72,1.04c.88.52,1.61,1.32,2.19,2.37.58,1.06.87,2.48.87,4.25v14.73h-3.44v-3.03h-.17c-.23.49-.62,1-1.17,1.56s-1.27,1.02-2.17,1.41c-.9.39-2,.58-3.31.58ZM259.15,902.47c1.36,0,2.51-.27,3.44-.8s1.65-1.22,2.13-2.07c.48-.84.72-1.73.72-2.66v-3.15c-.15.17-.46.33-.95.47-.49.14-1.05.26-1.69.36s-1.25.19-1.85.26c-.6.07-1.08.13-1.45.18-.89.12-1.73.3-2.5.56-.77.26-1.39.64-1.86,1.15-.47.51-.71,1.2-.71,2.07,0,1.19.44,2.09,1.33,2.7.89.61,2.02.91,3.38.91Z"/><path class="cls-2" d="M292.63,882.67l-8.27,22.36h-3.49l-8.27-22.36h3.73l6.17,17.82h.23l6.17-17.82h3.73Z"/><path class="cls-2" d="M303.06,905.55c-1.42,0-2.7-.27-3.86-.81-1.16-.54-2.07-1.32-2.75-2.34-.68-1.02-1.02-2.26-1.02-3.72,0-1.28.25-2.32.76-3.12s1.18-1.43,2.02-1.89c.84-.46,1.78-.8,2.8-1.03,1.02-.23,2.05-.41,3.09-.55,1.36-.17,2.46-.31,3.31-.4.85-.09,1.47-.25,1.86-.47.39-.22.59-.61.59-1.16v-.12c0-1.44-.39-2.55-1.17-3.35-.78-.8-1.96-1.19-3.55-1.19s-2.93.36-3.86,1.08-1.59,1.48-1.96,2.3l-3.26-1.17c.58-1.36,1.36-2.42,2.34-3.18.98-.76,2.04-1.3,3.2-1.6,1.16-.31,2.3-.46,3.43-.46.72,0,1.55.08,2.48.25s1.84.52,2.72,1.04c.88.52,1.61,1.32,2.19,2.37.58,1.06.87,2.48.87,4.25v14.73h-3.44v-3.03h-.17c-.23.49-.62,1-1.17,1.56s-1.27,1.02-2.17,1.41c-.9.39-2,.58-3.31.58ZM303.58,902.47c1.36,0,2.51-.27,3.44-.8s1.65-1.22,2.13-2.07c.48-.84.72-1.73.72-2.66v-3.15c-.15.17-.46.33-.95.47-.49.14-1.05.26-1.69.36s-1.25.19-1.85.26c-.6.07-1.08.13-1.45.18-.89.12-1.73.3-2.5.56-.77.26-1.39.64-1.86,1.15-.47.51-.71,1.2-.71,2.07,0,1.19.44,2.09,1.33,2.7.89.61,2.02.91,3.38.91Z"/><path class="cls-2" d="M321.35,878.94c-.67,0-1.24-.23-1.72-.68-.48-.46-.72-1-.72-1.65s.24-1.19.72-1.65c.48-.46,1.06-.68,1.72-.68s1.25.23,1.73.68c.48.46.72,1,.72,1.65s-.24,1.19-.72,1.65c-.48.46-1.06.68-1.73.68ZM319.6,905.03v-22.36h3.44v22.36h-3.44Z"/><path class="cls-2" d="M332.76,875.21v29.82h-3.44v-29.82h3.44Z"/><path class="cls-2" d="M345.63,905.55c-1.42,0-2.7-.27-3.86-.81-1.16-.54-2.07-1.32-2.75-2.34-.68-1.02-1.02-2.26-1.02-3.72,0-1.28.25-2.32.76-3.12s1.18-1.43,2.02-1.89c.84-.46,1.78-.8,2.8-1.03,1.02-.23,2.05-.41,3.09-.55,1.36-.17,2.46-.31,3.31-.4.85-.09,1.47-.25,1.86-.47.39-.22.59-.61.59-1.16v-.12c0-1.44-.39-2.55-1.17-3.35-.78-.8-1.96-1.19-3.55-1.19s-2.93.36-3.86,1.08-1.59,1.48-1.96,2.3l-3.26-1.17c.58-1.36,1.36-2.42,2.34-3.18.98-.76,2.04-1.3,3.2-1.6,1.16-.31,2.3-.46,3.43-.46.72,0,1.55.08,2.48.25s1.84.52,2.72,1.04c.88.52,1.61,1.32,2.19,2.37.58,1.06.87,2.48.87,4.25v14.73h-3.44v-3.03h-.17c-.23.49-.62,1-1.17,1.56s-1.27,1.02-2.17,1.41c-.9.39-2,.58-3.31.58ZM346.16,902.47c1.36,0,2.51-.27,3.44-.8s1.65-1.22,2.13-2.07c.48-.84.72-1.73.72-2.66v-3.15c-.15.17-.46.33-.95.47-.49.14-1.05.26-1.69.36s-1.25.19-1.85.26c-.6.07-1.08.13-1.45.18-.89.12-1.73.3-2.5.56-.77.26-1.39.64-1.86,1.15-.47.51-.71,1.2-.71,2.07,0,1.19.44,2.09,1.33,2.7.89.61,2.02.91,3.38.91Z"/><path class="cls-2" d="M362.64,905.03v-29.82h3.44v11.01h.29c.25-.39.6-.89,1.06-1.49.45-.61,1.1-1.15,1.95-1.63s2-.72,3.46-.72c1.88,0,3.54.47,4.98,1.41,1.44.94,2.56,2.28,3.36,4,.81,1.73,1.21,3.77,1.21,6.12s-.4,4.42-1.21,6.15-1.92,3.07-3.35,4.02-3.07,1.42-4.94,1.42c-1.44,0-2.59-.24-3.45-.72s-1.53-1.03-2-1.65c-.47-.62-.82-1.13-1.08-1.54h-.41v3.44h-3.32ZM366.02,893.85c0,1.69.25,3.18.74,4.46s1.22,2.29,2.17,3.01c.95.72,2.12,1.08,3.49,1.08s2.64-.38,3.6-1.14c.97-.76,1.69-1.79,2.18-3.09.49-1.3.74-2.74.74-4.33s-.24-2.99-.72-4.26-1.2-2.27-2.17-3.01c-.97-.74-2.18-1.11-3.63-1.11s-2.57.35-3.52,1.06c-.95.7-1.67,1.68-2.15,2.94-.49,1.26-.73,2.72-.73,4.39Z"/><path class="cls-2" d="M391.06,875.21v29.82h-3.44v-29.82h3.44Z"/><path class="cls-2" d="M406.72,905.5c-2.16,0-4.01-.48-5.57-1.43s-2.76-2.3-3.6-4.02c-.84-1.72-1.26-3.73-1.26-6.02s.42-4.31,1.26-6.06c.84-1.75,2.01-3.12,3.52-4.11,1.51-.98,3.27-1.48,5.29-1.48,1.17,0,2.32.19,3.45.58,1.14.39,2.17,1.02,3.1,1.89s1.67,2.02,2.23,3.44c.55,1.43.83,3.18.83,5.27v1.46h-17.24v-2.97h13.74c0-1.26-.25-2.39-.75-3.38-.5-.99-1.21-1.77-2.13-2.34-.92-.57-2-.86-3.24-.86-1.37,0-2.55.34-3.54,1.01-1,.67-1.76,1.55-2.29,2.63-.53,1.08-.8,2.23-.8,3.47v1.98c0,1.69.29,3.12.88,4.29.59,1.17,1.41,2.06,2.45,2.66,1.05.61,2.27.91,3.65.91.9,0,1.72-.13,2.45-.39.73-.26,1.37-.65,1.9-1.17.53-.52.95-1.17,1.24-1.94l3.32.93c-.35,1.13-.94,2.11-1.76,2.96-.83.85-1.84,1.51-3.06,1.98-1.21.47-2.58.71-4.09.71Z"/><path class="cls-2" d="M442.48,882.67v2.91h-11.59v-2.91h11.59ZM434.27,877.31h3.44v21.32c0,.97.14,1.7.43,2.18s.66.8,1.11.96c.45.16.93.24,1.43.24.38,0,.69-.02.93-.07.24-.04.44-.08.58-.11l.7,3.09c-.23.09-.56.18-.98.27s-.95.14-1.59.14c-.97,0-1.92-.21-2.85-.63-.93-.42-1.69-1.05-2.3-1.91-.61-.85-.91-1.93-.91-3.23v-22.25Z"/><path class="cls-2" d="M456.52,905.5c-2.02,0-3.79-.48-5.31-1.44-1.52-.96-2.7-2.31-3.55-4.03-.85-1.73-1.27-3.75-1.27-6.06s.42-4.36,1.27-6.1c.85-1.74,2.03-3.09,3.55-4.05,1.52-.96,3.29-1.44,5.31-1.44s3.79.48,5.31,1.44c1.52.96,2.7,2.31,3.55,4.05.85,1.74,1.27,3.77,1.27,6.1s-.42,4.33-1.27,6.06c-.85,1.73-2.03,3.07-3.55,4.03-1.52.96-3.29,1.44-5.31,1.44ZM456.52,902.41c1.53,0,2.79-.39,3.79-1.18.99-.79,1.72-1.82,2.2-3.1s.71-2.67.71-4.16-.24-2.89-.71-4.18c-.48-1.29-1.21-2.33-2.2-3.13-.99-.8-2.25-1.19-3.79-1.19s-2.8.4-3.79,1.19c-.99.8-1.72,1.84-2.2,3.13-.48,1.29-.71,2.68-.71,4.18s.24,2.88.71,4.16,1.21,2.31,2.2,3.1c.99.79,2.25,1.18,3.79,1.18Z"/><path class="cls-2" d="M480.34,905.5c-1.86,0-3.51-.47-4.94-1.42-1.43-.95-2.54-2.29-3.35-4.02s-1.21-3.78-1.21-6.15.4-4.39,1.21-6.12c.81-1.73,1.93-3.06,3.36-4,1.44-.94,3.1-1.41,4.98-1.41,1.46,0,2.61.24,3.46.72s1.5,1.02,1.95,1.63c.45.61.8,1.1,1.06,1.49h.29v-11.01h3.44v29.82h-3.32v-3.44h-.41c-.25.41-.61.92-1.08,1.54s-1.13,1.16-2,1.65-2.01.72-3.45.72ZM480.8,902.41c1.38,0,2.54-.36,3.49-1.08.95-.72,1.67-1.73,2.17-3.01s.74-2.77.74-4.46-.24-3.13-.73-4.39c-.49-1.26-1.2-2.24-2.15-2.94-.95-.7-2.13-1.06-3.52-1.06s-2.67.37-3.63,1.11c-.97.74-1.69,1.75-2.17,3.01s-.72,2.69-.72,4.26.25,3.04.74,4.33c.49,1.3,1.22,2.32,2.18,3.09.97.76,2.17,1.14,3.6,1.14Z"/><path class="cls-2" d="M503.92,905.55c-1.42,0-2.7-.27-3.86-.81-1.16-.54-2.07-1.32-2.75-2.34-.68-1.02-1.02-2.26-1.02-3.72,0-1.28.25-2.32.76-3.12s1.18-1.43,2.02-1.89c.84-.46,1.78-.8,2.8-1.03,1.02-.23,2.05-.41,3.09-.55,1.36-.17,2.46-.31,3.31-.4.85-.09,1.47-.25,1.86-.47.39-.22.59-.61.59-1.16v-.12c0-1.44-.39-2.55-1.17-3.35-.78-.8-1.96-1.19-3.55-1.19s-2.93.36-3.86,1.08-1.59,1.48-1.96,2.3l-3.26-1.17c.58-1.36,1.36-2.42,2.34-3.18.98-.76,2.04-1.3,3.2-1.6,1.16-.31,2.3-.46,3.43-.46.72,0,1.55.08,2.48.25s1.84.52,2.72,1.04c.88.52,1.61,1.32,2.19,2.37.58,1.06.87,2.48.87,4.25v14.73h-3.44v-3.03h-.17c-.23.49-.62,1-1.17,1.56s-1.27,1.02-2.17,1.41c-.9.39-2,.58-3.31.58ZM504.45,902.47c1.36,0,2.51-.27,3.44-.8s1.65-1.22,2.13-2.07c.48-.84.72-1.73.72-2.66v-3.15c-.15.17-.46.33-.95.47-.49.14-1.05.26-1.69.36s-1.25.19-1.85.26c-.6.07-1.08.13-1.45.18-.89.12-1.73.3-2.5.56-.77.26-1.39.64-1.86,1.15-.47.51-.71,1.2-.71,2.07,0,1.19.44,2.09,1.33,2.7.89.61,2.02.91,3.38.91Z"/><path class="cls-2" d="M521.86,913.36c-.58,0-1.1-.05-1.56-.14-.46-.09-.77-.18-.95-.27l.87-3.03c1.25.32,2.29.31,3.13-.02s1.56-1.34,2.17-3.01l.64-1.75-8.27-22.48h3.73l6.17,17.82h.23l6.17-17.82,3.76.06-9.52,25.57c-.43,1.14-.96,2.08-1.59,2.83-.63.75-1.36,1.31-2.19,1.68-.83.37-1.76.55-2.8.55Z"/><path class="cls-2" d="M543.61,905.26c-.72,0-1.33-.26-1.85-.77s-.77-1.13-.77-1.85.26-1.33.77-1.85,1.13-.77,1.85-.77,1.33.26,1.85.77.77,1.13.77,1.85c0,.48-.12.91-.36,1.31-.24.4-.55.72-.95.95-.39.24-.83.36-1.32.36Z"/><path class="cls-2" d="M564.4,905.03v-29.82h10.08c2.34,0,4.25.42,5.74,1.26,1.49.84,2.59,1.97,3.31,3.4.72,1.43,1.08,3.02,1.08,4.78s-.36,3.35-1.07,4.79c-.71,1.44-1.81,2.58-3.3,3.43-1.49.85-3.39,1.27-5.71,1.27h-7.22v-3.2h7.11c1.6,0,2.89-.28,3.86-.83s1.68-1.3,2.12-2.25c.44-.95.66-2.02.66-3.21s-.22-2.26-.66-3.2-1.15-1.68-2.13-2.22c-.98-.54-2.28-.81-3.9-.81h-6.35v26.62h-3.61Z"/><path class="cls-2" d="M593.41,875.21v29.82h-3.44v-29.82h3.44Z"/><path class="cls-2" d="M609.07,905.5c-2.16,0-4.01-.48-5.57-1.43s-2.76-2.3-3.6-4.02c-.84-1.72-1.26-3.73-1.26-6.02s.42-4.31,1.26-6.06c.84-1.75,2.01-3.12,3.52-4.11,1.51-.98,3.27-1.48,5.29-1.48,1.17,0,2.32.19,3.45.58,1.14.39,2.17,1.02,3.1,1.89s1.67,2.02,2.23,3.44c.55,1.43.83,3.18.83,5.27v1.46h-17.24v-2.97h13.74c0-1.26-.25-2.39-.75-3.38-.5-.99-1.21-1.77-2.13-2.34-.92-.57-2-.86-3.24-.86-1.37,0-2.55.34-3.54,1.01-1,.67-1.76,1.55-2.29,2.63-.53,1.08-.8,2.23-.8,3.47v1.98c0,1.69.29,3.12.88,4.29.59,1.17,1.41,2.06,2.45,2.66,1.05.61,2.27.91,3.65.91.9,0,1.72-.13,2.45-.39.73-.26,1.37-.65,1.9-1.17.53-.52.95-1.17,1.24-1.94l3.32.93c-.35,1.13-.94,2.11-1.76,2.96-.83.85-1.84,1.51-3.06,1.98-1.21.47-2.58.71-4.09.71Z"/><path class="cls-2" d="M630.16,905.55c-1.42,0-2.7-.27-3.86-.81-1.16-.54-2.07-1.32-2.75-2.34-.68-1.02-1.02-2.26-1.02-3.72,0-1.28.25-2.32.76-3.12s1.18-1.43,2.02-1.89c.84-.46,1.78-.8,2.8-1.03,1.02-.23,2.05-.41,3.09-.55,1.36-.17,2.46-.31,3.31-.4.85-.09,1.47-.25,1.86-.47.39-.22.59-.61.59-1.16v-.12c0-1.44-.39-2.55-1.17-3.35-.78-.8-1.96-1.19-3.55-1.19s-2.93.36-3.86,1.08-1.59,1.48-1.96,2.3l-3.26-1.17c.58-1.36,1.36-2.42,2.34-3.18.98-.76,2.04-1.3,3.2-1.6,1.16-.31,2.3-.46,3.43-.46.72,0,1.55.08,2.48.25s1.84.52,2.72,1.04c.88.52,1.61,1.32,2.19,2.37.58,1.06.87,2.48.87,4.25v14.73h-3.44v-3.03h-.17c-.23.49-.62,1-1.17,1.56s-1.27,1.02-2.17,1.41c-.9.39-2,.58-3.31.58ZM630.68,902.47c1.36,0,2.51-.27,3.44-.8s1.65-1.22,2.13-2.07c.48-.84.72-1.73.72-2.66v-3.15c-.15.17-.46.33-.95.47-.49.14-1.05.26-1.69.36s-1.25.19-1.85.26c-.6.07-1.08.13-1.45.18-.89.12-1.73.3-2.5.56-.77.26-1.39.64-1.86,1.15-.47.51-.71,1.2-.71,2.07,0,1.19.44,2.09,1.33,2.7.89.61,2.02.91,3.38.91Z"/><path class="cls-2" d="M662.54,887.67l-3.09.87c-.19-.51-.48-1.02-.85-1.51-.37-.49-.88-.9-1.52-1.22s-1.46-.48-2.46-.48c-1.37,0-2.51.31-3.41.94-.91.63-1.36,1.42-1.36,2.38,0,.85.31,1.53.93,2.02s1.59.91,2.91,1.24l3.32.81c2,.49,3.49,1.23,4.47,2.22s1.47,2.27,1.47,3.84c0,1.28-.37,2.43-1.1,3.44-.73,1.01-1.75,1.81-3.06,2.39s-2.83.87-4.57.87c-2.28,0-4.17-.5-5.66-1.48-1.5-.99-2.44-2.44-2.84-4.34l3.26-.82c.31,1.2.9,2.11,1.77,2.71.87.6,2.01.9,3.41.9,1.6,0,2.88-.34,3.82-1.03.95-.68,1.42-1.51,1.42-2.47,0-.78-.27-1.43-.82-1.96-.54-.53-1.38-.92-2.5-1.19l-3.73-.87c-2.05-.49-3.55-1.24-4.51-2.26-.96-1.02-1.43-2.31-1.43-3.85,0-1.26.36-2.38,1.07-3.35s1.69-1.73,2.93-2.29c1.24-.55,2.64-.83,4.21-.83,2.21,0,3.95.49,5.22,1.46s2.17,2.25,2.7,3.84Z"/><path class="cls-2" d="M677.5,905.5c-2.16,0-4.01-.48-5.57-1.43s-2.76-2.3-3.6-4.02c-.84-1.72-1.26-3.73-1.26-6.02s.42-4.31,1.26-6.06c.84-1.75,2.01-3.12,3.52-4.11,1.51-.98,3.27-1.48,5.29-1.48,1.17,0,2.32.19,3.45.58,1.14.39,2.17,1.02,3.1,1.89s1.67,2.02,2.23,3.44c.55,1.43.83,3.18.83,5.27v1.46h-17.24v-2.97h13.74c0-1.26-.25-2.39-.75-3.38-.5-.99-1.21-1.77-2.13-2.34-.92-.57-2-.86-3.24-.86-1.37,0-2.55.34-3.54,1.01-1,.67-1.76,1.55-2.29,2.63-.53,1.08-.8,2.23-.8,3.47v1.98c0,1.69.29,3.12.88,4.29.59,1.17,1.41,2.06,2.45,2.66,1.05.61,2.27.91,3.65.91.9,0,1.72-.13,2.45-.39.73-.26,1.37-.65,1.9-1.17.53-.52.95-1.17,1.24-1.94l3.32.93c-.35,1.13-.94,2.11-1.76,2.96-.83.85-1.84,1.51-3.06,1.98-1.21.47-2.58.71-4.09.71Z"/><path class="cls-2" d="M712.62,905.5c-2.1,0-3.9-.5-5.42-1.48-1.51-.99-2.68-2.35-3.49-4.09s-1.22-3.72-1.22-5.96.42-4.28,1.26-6.02c.84-1.74,2.01-3.11,3.52-4.09,1.51-.98,3.27-1.48,5.29-1.48,1.57,0,2.99.29,4.25.87s2.3,1.4,3.1,2.45c.81,1.05,1.31,2.27,1.5,3.67h-3.44c-.26-1.02-.84-1.92-1.74-2.72-.9-.79-2.1-1.19-3.62-1.19-1.34,0-2.51.35-3.52,1.04-1,.69-1.79,1.67-2.34,2.93-.56,1.26-.84,2.73-.84,4.42s.27,3.23.82,4.51c.55,1.28,1.33,2.28,2.33,2.98,1,.71,2.19,1.06,3.55,1.06.89,0,1.7-.16,2.43-.47.73-.31,1.34-.76,1.85-1.34.5-.58.86-1.28,1.08-2.1h3.44c-.19,1.32-.67,2.51-1.43,3.56s-1.77,1.89-3.01,2.5-2.7.92-4.35.92Z"/><path class="cls-2" d="M729.86,891.58v13.45h-3.44v-29.82h3.44v10.95h.29c.52-1.16,1.31-2.07,2.37-2.76,1.05-.68,2.46-1.03,4.21-1.03,1.52,0,2.86.3,4,.91,1.15.61,2.04,1.53,2.67,2.78s.95,2.83.95,4.75v14.21h-3.44v-13.98c0-1.78-.46-3.15-1.38-4.13s-2.19-1.46-3.81-1.46c-1.13,0-2.13.24-3.02.71-.89.48-1.59,1.17-2.1,2.08-.51.91-.76,2.02-.76,3.32Z"/><path class="cls-2" d="M759.74,905.5c-2.02,0-3.79-.48-5.31-1.44-1.52-.96-2.7-2.31-3.55-4.03-.85-1.73-1.27-3.75-1.27-6.06s.42-4.36,1.27-6.1c.85-1.74,2.03-3.09,3.55-4.05,1.52-.96,3.29-1.44,5.31-1.44s3.79.48,5.31,1.44c1.52.96,2.7,2.31,3.55,4.05.85,1.74,1.27,3.77,1.27,6.1s-.42,4.33-1.27,6.06c-.85,1.73-2.03,3.07-3.55,4.03-1.52.96-3.29,1.44-5.31,1.44ZM759.74,902.41c1.53,0,2.79-.39,3.79-1.18.99-.79,1.72-1.82,2.2-3.1s.71-2.67.71-4.16-.24-2.89-.71-4.18c-.48-1.29-1.21-2.33-2.2-3.13-.99-.8-2.25-1.19-3.79-1.19s-2.8.4-3.79,1.19c-.99.8-1.72,1.84-2.2,3.13-.48,1.29-.71,2.68-.71,4.18s.24,2.88.71,4.16,1.21,2.31,2.2,3.1c.99.79,2.25,1.18,3.79,1.18Z"/><path class="cls-2" d="M784.2,905.5c-2.02,0-3.79-.48-5.31-1.44-1.52-.96-2.7-2.31-3.55-4.03-.85-1.73-1.27-3.75-1.27-6.06s.42-4.36,1.27-6.1c.85-1.74,2.03-3.09,3.55-4.05,1.52-.96,3.29-1.44,5.31-1.44s3.79.48,5.31,1.44c1.52.96,2.7,2.31,3.55,4.05.85,1.74,1.27,3.77,1.27,6.1s-.42,4.33-1.27,6.06c-.85,1.73-2.03,3.07-3.55,4.03-1.52.96-3.29,1.44-5.31,1.44ZM784.2,902.41c1.53,0,2.79-.39,3.79-1.18.99-.79,1.72-1.82,2.2-3.1s.71-2.67.71-4.16-.24-2.89-.71-4.18c-.48-1.29-1.21-2.33-2.2-3.13-.99-.8-2.25-1.19-3.79-1.19s-2.8.4-3.79,1.19c-.99.8-1.72,1.84-2.2,3.13-.48,1.29-.71,2.68-.71,4.18s.24,2.88.71,4.16,1.21,2.31,2.2,3.1c.99.79,2.25,1.18,3.79,1.18Z"/><path class="cls-2" d="M815.41,887.67l-3.09.87c-.19-.51-.48-1.02-.85-1.51-.37-.49-.88-.9-1.52-1.22s-1.46-.48-2.46-.48c-1.37,0-2.51.31-3.41.94-.91.63-1.36,1.42-1.36,2.38,0,.85.31,1.53.93,2.02s1.59.91,2.91,1.24l3.32.81c2,.49,3.49,1.23,4.47,2.22s1.47,2.27,1.47,3.84c0,1.28-.37,2.43-1.1,3.44-.73,1.01-1.75,1.81-3.06,2.39s-2.83.87-4.57.87c-2.28,0-4.17-.5-5.66-1.48-1.5-.99-2.44-2.44-2.84-4.34l3.26-.82c.31,1.2.9,2.11,1.77,2.71.87.6,2.01.9,3.41.9,1.6,0,2.88-.34,3.82-1.03.95-.68,1.42-1.51,1.42-2.47,0-.78-.27-1.43-.82-1.96-.54-.53-1.38-.92-2.5-1.19l-3.73-.87c-2.05-.49-3.55-1.24-4.51-2.26-.96-1.02-1.43-2.31-1.43-3.85,0-1.26.36-2.38,1.07-3.35s1.69-1.73,2.93-2.29c1.24-.55,2.64-.83,4.21-.83,2.21,0,3.95.49,5.22,1.46s2.17,2.25,2.7,3.84Z"/><path class="cls-2" d="M830.38,905.5c-2.16,0-4.01-.48-5.57-1.43s-2.76-2.3-3.6-4.02c-.84-1.72-1.26-3.73-1.26-6.02s.42-4.31,1.26-6.06c.84-1.75,2.01-3.12,3.52-4.11,1.51-.98,3.27-1.48,5.29-1.48,1.17,0,2.32.19,3.45.58,1.14.39,2.17,1.02,3.1,1.89s1.67,2.02,2.23,3.44c.55,1.43.83,3.18.83,5.27v1.46h-17.24v-2.97h13.74c0-1.26-.25-2.39-.75-3.38-.5-.99-1.21-1.77-2.13-2.34-.92-.57-2-.86-3.24-.86-1.37,0-2.55.34-3.54,1.01-1,.67-1.76,1.55-2.29,2.63-.53,1.08-.8,2.23-.8,3.47v1.98c0,1.69.29,3.12.88,4.29.59,1.17,1.41,2.06,2.45,2.66,1.05.61,2.27.91,3.65.91.9,0,1.72-.13,2.45-.39.73-.26,1.37-.65,1.9-1.17.53-.52.95-1.17,1.24-1.94l3.32.93c-.35,1.13-.94,2.11-1.76,2.96-.83.85-1.84,1.51-3.06,1.98-1.21.47-2.58.71-4.09.71Z"/><path class="cls-2" d="M862.99,905.55c-1.42,0-2.7-.27-3.86-.81-1.16-.54-2.07-1.32-2.75-2.34-.68-1.02-1.02-2.26-1.02-3.72,0-1.28.25-2.32.76-3.12s1.18-1.43,2.02-1.89c.84-.46,1.78-.8,2.8-1.03,1.02-.23,2.05-.41,3.09-.55,1.36-.17,2.46-.31,3.31-.4.85-.09,1.47-.25,1.86-.47.39-.22.59-.61.59-1.16v-.12c0-1.44-.39-2.55-1.17-3.35-.78-.8-1.96-1.19-3.55-1.19s-2.93.36-3.86,1.08-1.59,1.48-1.96,2.3l-3.26-1.17c.58-1.36,1.36-2.42,2.34-3.18.98-.76,2.04-1.3,3.2-1.6,1.16-.31,2.3-.46,3.43-.46.72,0,1.55.08,2.48.25s1.84.52,2.72,1.04c.88.52,1.61,1.32,2.19,2.37.58,1.06.87,2.48.87,4.25v14.73h-3.44v-3.03h-.17c-.23.49-.62,1-1.17,1.56s-1.27,1.02-2.17,1.41c-.9.39-2,.58-3.31.58ZM863.52,902.47c1.36,0,2.51-.27,3.44-.8s1.65-1.22,2.13-2.07c.48-.84.72-1.73.72-2.66v-3.15c-.15.17-.46.33-.95.47-.49.14-1.05.26-1.69.36s-1.25.19-1.85.26c-.6.07-1.08.13-1.45.18-.89.12-1.73.3-2.5.56-.77.26-1.39.64-1.86,1.15-.47.51-.71,1.2-.71,2.07,0,1.19.44,2.09,1.33,2.7.89.61,2.02.91,3.38.91Z"/><path class="cls-2" d="M882.97,891.58v13.45h-3.44v-22.36h3.32v3.49h.29c.52-1.14,1.32-2.05,2.39-2.74,1.07-.69,2.45-1.04,4.13-1.04,1.51,0,2.84.31,3.97.92,1.14.62,2.02,1.55,2.65,2.8.63,1.25.95,2.82.95,4.72v14.21h-3.44v-13.98c0-1.76-.46-3.13-1.37-4.11-.91-.98-2.17-1.48-3.76-1.48-1.1,0-2.07.24-2.93.71-.86.48-1.54,1.17-2.03,2.08-.5.91-.74,2.02-.74,3.32Z"/><path class="cls-2" d="M912.61,905.5c-2.02,0-3.79-.48-5.31-1.44-1.52-.96-2.7-2.31-3.55-4.03-.85-1.73-1.27-3.75-1.27-6.06s.42-4.36,1.27-6.1c.85-1.74,2.03-3.09,3.55-4.05,1.52-.96,3.29-1.44,5.31-1.44s3.79.48,5.31,1.44c1.52.96,2.7,2.31,3.55,4.05.85,1.74,1.27,3.77,1.27,6.1s-.42,4.33-1.27,6.06c-.85,1.73-2.03,3.07-3.55,4.03-1.52.96-3.29,1.44-5.31,1.44ZM912.61,902.41c1.53,0,2.79-.39,3.79-1.18.99-.79,1.72-1.82,2.2-3.1s.71-2.67.71-4.16-.24-2.89-.71-4.18c-.48-1.29-1.21-2.33-2.2-3.13-.99-.8-2.25-1.19-3.79-1.19s-2.8.4-3.79,1.19c-.99.8-1.72,1.84-2.2,3.13-.48,1.29-.71,2.68-.71,4.18s.24,2.88.71,4.16,1.21,2.31,2.2,3.1c.99.79,2.25,1.18,3.79,1.18Z"/><path class="cls-2" d="M937.71,882.67v2.91h-11.59v-2.91h11.59ZM929.5,877.31h3.44v21.32c0,.97.14,1.7.43,2.18s.66.8,1.11.96c.45.16.93.24,1.43.24.38,0,.69-.02.93-.07.24-.04.44-.08.58-.11l.7,3.09c-.23.09-.56.18-.98.27s-.95.14-1.59.14c-.97,0-1.92-.21-2.85-.63-.93-.42-1.69-1.05-2.3-1.91-.61-.85-.91-1.93-.91-3.23v-22.25Z"/><path class="cls-2" d="M946.8,891.58v13.45h-3.44v-29.82h3.44v10.95h.29c.52-1.16,1.31-2.07,2.37-2.76,1.05-.68,2.46-1.03,4.21-1.03,1.52,0,2.86.3,4,.91,1.15.61,2.04,1.53,2.67,2.78s.95,2.83.95,4.75v14.21h-3.44v-13.98c0-1.78-.46-3.15-1.38-4.13s-2.19-1.46-3.81-1.46c-1.13,0-2.13.24-3.02.71-.89.48-1.59,1.17-2.1,2.08-.51.91-.76,2.02-.76,3.32Z"/><path class="cls-2" d="M976.96,905.5c-2.16,0-4.01-.48-5.57-1.43s-2.76-2.3-3.6-4.02c-.84-1.72-1.26-3.73-1.26-6.02s.42-4.31,1.26-6.06c.84-1.75,2.01-3.12,3.52-4.11,1.51-.98,3.27-1.48,5.29-1.48,1.17,0,2.32.19,3.45.58,1.14.39,2.17,1.02,3.1,1.89s1.67,2.02,2.23,3.44c.55,1.43.83,3.18.83,5.27v1.46h-17.24v-2.97h13.74c0-1.26-.25-2.39-.75-3.38-.5-.99-1.21-1.77-2.13-2.34-.92-.57-2-.86-3.24-.86-1.37,0-2.55.34-3.54,1.01-1,.67-1.76,1.55-2.29,2.63-.53,1.08-.8,2.23-.8,3.47v1.98c0,1.69.29,3.12.88,4.29.59,1.17,1.41,2.06,2.45,2.66,1.05.61,2.27.91,3.65.91.9,0,1.72-.13,2.45-.39.73-.26,1.37-.65,1.9-1.17.53-.52.95-1.17,1.24-1.94l3.32.93c-.35,1.13-.94,2.11-1.76,2.96-.83.85-1.84,1.51-3.06,1.98-1.21.47-2.58.71-4.09.71Z"/><path class="cls-2" d="M991.47,905.03v-22.36h3.32v3.38h.23c.41-1.11,1.15-2,2.21-2.69,1.07-.69,2.27-1.03,3.61-1.03.25,0,.57,0,.95.01.38,0,.67.02.86.04v3.49c-.12-.03-.38-.07-.79-.14-.41-.06-.85-.09-1.3-.09-1.09,0-2.06.23-2.91.68-.85.45-1.52,1.07-2.01,1.86-.49.79-.74,1.69-.74,2.7v14.15h-3.44Z"/><path class="cls-2" d="M1026.7,905.5c-1.86,0-3.51-.47-4.94-1.42-1.43-.95-2.54-2.29-3.35-4.02s-1.21-3.78-1.21-6.15.4-4.39,1.21-6.12c.81-1.73,1.93-3.06,3.36-4,1.44-.94,3.1-1.41,4.98-1.41,1.46,0,2.61.24,3.46.72s1.5,1.02,1.95,1.63c.45.61.8,1.1,1.06,1.49h.29v-11.01h3.44v29.82h-3.32v-3.44h-.41c-.25.41-.61.92-1.08,1.54s-1.13,1.16-2,1.65-2.01.72-3.45.72ZM1027.17,902.41c1.38,0,2.54-.36,3.49-1.08.95-.72,1.67-1.73,2.17-3.01s.74-2.77.74-4.46-.24-3.13-.73-4.39c-.49-1.26-1.2-2.24-2.15-2.94-.95-.7-2.13-1.06-3.52-1.06s-2.67.37-3.63,1.11c-.97.74-1.69,1.75-2.17,3.01s-.72,2.69-.72,4.26.25,3.04.74,4.33c.49,1.3,1.22,2.32,2.18,3.09.97.76,2.17,1.14,3.6,1.14Z"/><path class="cls-2" d="M1050.29,905.55c-1.42,0-2.7-.27-3.86-.81-1.16-.54-2.07-1.32-2.75-2.34-.68-1.02-1.02-2.26-1.02-3.72,0-1.28.25-2.32.76-3.12s1.18-1.43,2.02-1.89c.84-.46,1.78-.8,2.8-1.03,1.02-.23,2.05-.41,3.09-.55,1.36-.17,2.46-.31,3.31-.4.85-.09,1.47-.25,1.86-.47.39-.22.59-.61.59-1.16v-.12c0-1.44-.39-2.55-1.17-3.35-.78-.8-1.96-1.19-3.55-1.19s-2.93.36-3.86,1.08-1.59,1.48-1.96,2.3l-3.26-1.17c.58-1.36,1.36-2.42,2.34-3.18.98-.76,2.04-1.3,3.2-1.6,1.16-.31,2.3-.46,3.43-.46.72,0,1.55.08,2.48.25s1.84.52,2.72,1.04c.88.52,1.61,1.32,2.19,2.37.58,1.06.87,2.48.87,4.25v14.73h-3.44v-3.03h-.17c-.23.49-.62,1-1.17,1.56s-1.27,1.02-2.17,1.41c-.9.39-2,.58-3.31.58ZM1050.81,902.47c1.36,0,2.51-.27,3.44-.8s1.65-1.22,2.13-2.07c.48-.84.72-1.73.72-2.66v-3.15c-.15.17-.46.33-.95.47-.49.14-1.05.26-1.69.36s-1.25.19-1.85.26c-.6.07-1.08.13-1.45.18-.89.12-1.73.3-2.5.56-.77.26-1.39.64-1.86,1.15-.47.51-.71,1.2-.71,2.07,0,1.19.44,2.09,1.33,2.7.89.61,2.02.91,3.38.91Z"/><path class="cls-2" d="M1076.55,882.67v2.91h-11.59v-2.91h11.59ZM1068.34,877.31h3.44v21.32c0,.97.14,1.7.43,2.18s.66.8,1.11.96c.45.16.93.24,1.43.24.38,0,.69-.02.93-.07.24-.04.44-.08.58-.11l.7,3.09c-.23.09-.56.18-.98.27s-.95.14-1.59.14c-.97,0-1.92-.21-2.85-.63-.93-.42-1.69-1.05-2.3-1.91-.61-.85-.91-1.93-.91-3.23v-22.25Z"/><path class="cls-2" d="M1090.88,905.5c-2.16,0-4.01-.48-5.57-1.43s-2.76-2.3-3.6-4.02c-.84-1.72-1.26-3.73-1.26-6.02s.42-4.31,1.26-6.06c.84-1.75,2.01-3.12,3.52-4.11,1.51-.98,3.27-1.48,5.29-1.48,1.17,0,2.32.19,3.45.58,1.14.39,2.17,1.02,3.1,1.89s1.67,2.02,2.23,3.44c.55,1.43.83,3.18.83,5.27v1.46h-17.24v-2.97h13.74c0-1.26-.25-2.39-.75-3.38-.5-.99-1.21-1.77-2.13-2.34-.92-.57-2-.86-3.24-.86-1.37,0-2.55.34-3.54,1.01-1,.67-1.76,1.55-2.29,2.63-.53,1.08-.8,2.23-.8,3.47v1.98c0,1.69.29,3.12.88,4.29.59,1.17,1.41,2.06,2.45,2.66,1.05.61,2.27.91,3.65.91.9,0,1.72-.13,2.45-.39.73-.26,1.37-.65,1.9-1.17.53-.52.95-1.17,1.24-1.94l3.32.93c-.35,1.13-.94,2.11-1.76,2.96-.83.85-1.84,1.51-3.06,1.98-1.21.47-2.58.71-4.09.71Z"/><path class="cls-2" d="M1107.89,905.26c-.72,0-1.33-.26-1.85-.77s-.77-1.13-.77-1.85.26-1.33.77-1.85,1.13-.77,1.85-.77,1.33.26,1.85.77.77,1.13.77,1.85c0,.48-.12.91-.36,1.31-.24.4-.55.72-.95.95-.39.24-.83.36-1.32.36Z"/></g></svg>