<?xml version="1.0" encoding="UTF-8"?><svg id="Ebene_2" xmlns="http://www.w3.org/2000/svg" viewBox="0 0 454.49 841.62"><defs><style>.cls-1,.cls-2,.cls-3,.cls-4,.cls-5,.cls-6,.cls-7{stroke-width:0px;}.cls-2{fill:#7a92a1;}.cls-8{opacity:.15;}.cls-3{fill:#fff;}.cls-9,.cls-7{opacity:.1;}.cls-4{fill:#f9b795;}.cls-5{fill:#273237;}.cls-6{fill:#aa0e0e;}</style></defs><g id="Layer_1"><path class="cls-6" d="M451.27,215.61c-29.49-120.02-344.34-142.62-407.83-62.14-115.19,146.03,16.96,595.59,183.02,518.38,115.1-53.52,250.73-350.69,224.81-456.24Z"/><g id="Man_standing_up"><polygon class="cls-4" points="176.99 775.04 171.35 800.34 166.35 822.73 137.94 822.73 141 795.24 143.29 774.57 176.99 775.04"/><path class="cls-1" d="M139.17,813.03c2.49,2.59,12.61,11.12,29.37-.51.15-.1.34-.12.5-.03l46.22,24.71c2.16,1.16,1.34,4.43-1.11,4.43h-75.42c-3.47,0-6.05-3.22-5.29-6.61l4.91-21.75c.08-.37.54-.51.81-.23Z"/><polygon class="cls-4" points="265.75 775.04 260.65 802.87 257.01 822.73 228.59 822.73 230.6 794.8 232.06 774.57 265.75 775.04"/><polygon class="cls-7" points="176.99 775.04 171.35 800.34 141 795.24 143.29 774.57 176.99 775.04"/><polygon class="cls-7" points="265.75 775.04 260.65 802.87 230.6 794.8 232.06 774.57 265.75 775.04"/><path class="cls-1" d="M228.88,813.03c2.49,2.59,12.61,11.12,29.37-.51.15-.1.34-.12.5-.03l46.22,24.71c2.16,1.16,1.34,4.43-1.11,4.43h-75.42c-3.47,0-6.05-3.22-5.29-6.61l4.91-21.75c.08-.37.54-.51.81-.23Z"/><path class="cls-1" d="M206.89,64.78s2.74,9.97,5.13,16.56c2.39,6.59,8.98,4.2,8.98,4.2l-.06-17.09-14.05-3.68Z"/><path class="cls-4" d="M250.9,100.06s0,.05,0,.08c.46,4.18.87,7.62,1.27,10.6,1.5,11.29,2.9,16.17,6.73,30.93l-49.25,4.76,4.82-70.01c-1.26-1.63-20.19-20.48-4.46-25.03,0,0-5.22-36.18,23.05-34.73,28.26,1.45,38.74,19.43,38.74,19.43,0,0,16.91,71.79-20.91,63.98Z"/><path class="cls-1" d="M209.78,14.46s16.83-31.31,55.5-1.77c3.42,2.62,6.82,2.16,14.38,5.69,6.56,3.06,7.32,12.15,1.32,16.19-8.97,6.05-19.99,9.47-42.59-.16,9.96,9.37,26.21,8.95,26.21,8.95-32.23,3.21-38.8-9.77-39.22-10,0,0,3.41,14.59-6.22,26.07,0,0-.66-3.58-3.25-5.59-3.31-2.57-8.98-3.23-11.96,2.43,0,0-17.68-33.11,5.84-41.82Z"/><path class="cls-6" d="M219.6,55.68l13.94-1.44c1.33-3.46,4.5-6.07,8.42-6.47,5.26-.54,10,3.05,10.99,8.14l5.6-.58c-.07-5.18,3.84-9.67,9.1-10.21,5.56-.58,10.56,3.48,11.14,9.05.58,5.56-3.48,10.56-9.05,11.14-5.26.54-10-3.05-10.99-8.14l-5.6.58c.07,5.18-3.84,9.67-9.1,10.21-5.56.58-10.56-3.48-11.14-9.05-.1-.94-.05-1.86.1-2.75l-13.23,1.37-.19-1.83ZM269.54,63.46c4.55-.47,7.87-4.56,7.4-9.11-.47-4.55-4.56-7.87-9.11-7.4-4.55.47-7.87,4.56-7.4,9.11.47,4.55,4.56,7.87,9.11,7.4ZM243.86,66.12c4.55-.47,7.87-4.56,7.4-9.11-.47-4.55-4.56-7.87-9.11-7.4-4.55.47-7.87,4.56-7.4,9.11.47,4.55,4.56,7.87,9.11,7.4Z"/><path class="cls-5" d="M334.99,384.56l-4.16,35.2-3.41,28.88-8.56,72.35-42.42,269.64h-59.49c0-1.69,8.23-94.46,14.05-167.68v-.02c4.69-59.03,7.48-192.53,7.48-192.53l-.22-11.84-1.12-62.51-.05-2.65,9.93,3.16,42.98,13.68,44.99,14.32Z"/><path class="cls-5" d="M292.96,353.4l-.96,5.48-1.99,11.37-7.46,42.54-.25,1.4-4.83,27.57-10.46,67.46c-.43,2.48-6.94,25.77-7.6,28.21l-67.72,253.2h-61.39l49.83-264.41.29-112.75v-.15l.05-17.31,3.82-42.6h108.68Z"/><path class="cls-2" d="M338.58,395.57l.19,1.1c-.83.17-1.66.34-2.49.5-29.05,5.66-49.39-18.35-83.28-9.33-3.08.82-6.28,1.91-9.6,3.32-44.38,18.89-75.55-5.67-75.55-5.67l3.84-47.08,1.13-18.66,1.03-17.03.52-8.48,1.08-17.81.3-5.03,1.37-22.67-.77-28.5-23.31,2.83-7.62-53.68c-.96-11.66,5.12-22.79,15.46-28.27l50.05-24.52c34.03,22.34,42.18-2.29,42.18-2.29l48.08,10.55c8.87,1.83,16.38,7.66,20.38,15.78l25.58,61.45-36.17,7.45,5.81,39.08,2.71,18.27,5.3,35.71,8.31,60.24,2.82,16.88,2.61,15.55.05.3Z"/><g class="cls-8"><path class="cls-1" d="M324.79,302.6c-23.02-3.2-72.29-9.87-88.01-10.59,0,0-14.17,23.61-37.77,7.55-10.62-7.22-18.17-18.23-23.26-28.15l1.37-22.67,142.38,18.15,5.3,35.71Z"/></g><path class="cls-4" d="M323.2,292.07l-84.05-12.88-6.34-.97-16.43-2.52,4.79-24.29,25.85.33h.17l58.01.74-6.25-37.03-.78-4.65,38.72-6.61.54,9.66,3.45,61.78c.79,9.9-7.86,17.94-17.67,16.44Z"/><polygon class="cls-7" points="247.19 251.74 239.15 279.19 232.81 278.22 216.38 275.7 221.17 251.41 247.02 251.74 247.19 251.74"/><path class="cls-4" d="M323.57,141.29l-30.36,19.35c-1.09.69-2.35,1.06-3.63,1.06h-13.14s-36.56,121.73-65.16,131.37c-19.21,6.47-43.96-42.24-53.14-62.09-2.31-5-3.64-8.16-3.64-8.16l39.78-7.19,1.27,2.37,13.92,25.97,40.53-71.88s7.6-12.66,8.5-14.17c2.6-4.36,5.56-9.55,8.5-13.22,5.17-6.46,14.46-7.08,18.89-6.61,1.18.12,1.96,3.16.94,3.78l-6.61,2.83s19.93-.52,32.11-6.61c5.67-2.83,8.75-1.19,11.2.35,1.04.66,1.08,2.17.05,2.85Z"/><path class="cls-4" d="M209.01,235.57c-.01-3.75-3.39-4.86-3.39-4.86,1.11-3.38-3.39-4.86-3.39-4.86-3.76-3.73-17.26-4.43-22.12-1.04-4.86,3.39,3.02,5.99,3.02,5.99-1.56,6.13,5.5,5.5,5.5,5.5,0,0-2.97,5.12,4.72,5.67-.55.6-.45,2.61,1.89,3.78,4.2,2.1,14.17-4.72,14.17-4.72,3.33-2.72-.39-5.45-.39-5.45Z"/><g class="cls-8"><path class="cls-1" d="M252.99,387.85c-3.08.82-6.28,1.91-9.6,3.32-44.38,18.89-75.55-5.67-75.55-5.67l3.84-47.08,1.13-18.66,1.03-17.03.52-8.48,1.08-17.81c11.39,125.99,51.89,104.49,77.55,111.39Z"/></g><path class="cls-7" d="M195.55,218l-37.41,12.98c-2.31-5-3.64-8.16-3.64-8.16l39.78-7.19,1.27,2.37Z"/><g class="cls-9"><polygon class="cls-1" points="337.42 213.86 298.95 215.45 298.16 210.81 336.88 204.19 337.42 213.86"/></g><path class="cls-1" d="M252.17,110.74c-15.72-6.49-21.79-23.97-21.99-24.57,4.9,6.72,14.54,11.46,20.73,13.97.46,4.18.87,7.62,1.27,10.6Z"/><path class="cls-3" d="M266.05,81.43h-14.17s9.44,11.33,14.17,0Z"/><path class="cls-1" d="M196.84,247.57c-1.61,0-2.87-.43-3.75-1.28-.88-.86-1.21-1.99-1.27-2.98-2.16-.24-3.67-1.04-4.49-2.37-.69-1.12-.73-2.35-.58-3.33-2.05-.29-3.55-1.08-4.47-2.36-.93-1.3-1.02-2.77-.92-3.79-2.73-1.39-4.04-2.9-4-4.62.05-2.6,3.3-3.97,3.67-4.12l1.05,2.63c-.85.34-1.88,1.11-1.89,1.55,0,.33.69,1.28,3.34,2.46l1.17.52-.41,1.22s-.46,1.49.29,2.51c.78,1.07,2.62,1.29,4.03,1.29h2.29l-1.03,2.05s-.73,1.57-.14,2.51c.45.71,1.72,1.1,3.6,1.1h1.83l-.46,1.77s-.3,1.32.36,1.93c.34.32,1.51.96,5.1-.1l.8,2.72c-1.57.46-2.95.69-4.13.69Z"/><rect class="cls-1" x="190.98" y="197.19" width="2.83" height="20.62" transform="translate(-49.6 60.84) rotate(-15.95)"/><rect class="cls-1" x="296.47" y="192.76" width="2.83" height="26.09" transform="translate(-23.19 38.46) rotate(-7.11)"/></g></g></svg>