<?xml version="1.0" encoding="UTF-8"?><svg id="Ebene_2" xmlns="http://www.w3.org/2000/svg" viewBox="0 0 516.33 516.33"><defs><style>.cls-1{fill:#fff;}.cls-1,.cls-2{stroke-width:0px;}.cls-2{fill:#e1edff;}</style></defs><g id="Layer_1"><circle class="cls-2" cx="258.17" cy="258.17" r="258.17" transform="translate(-106.94 258.17) rotate(-45)"/><ellipse class="cls-1" cx="258.17" cy="225.15" rx="100.43" ry="139.1"/><path class="cls-1" d="M256.58,355.35c-84.07,0-159.21,20.15-209.2,51.79,46.76,66.04,123.71,109.19,210.78,109.19s162.93-42.54,209.79-107.79c-49.96-32.45-126.08-53.19-211.37-53.19Z"/><rect class="cls-1" x="204.51" y="258.17" width="107.32" height="163.95" rx="38.37" ry="38.37"/><path class="cls-1" d="M173.6,233.06c3.01,22.3-1.94,41.64-11.06,43.19-9.11,1.55-18.94-15.27-21.95-37.57-3.01-22.3,1.94-41.64,11.06-43.19,9.11-1.55,18.94,15.27,21.95,37.57Z"/><path class="cls-1" d="M342.74,233.06c-3.01,22.3,1.94,41.64,11.06,43.19,9.11,1.55,18.94-15.27,21.95-37.57,3.01-22.3-1.94-41.64-11.06-43.19s-18.94,15.27-21.95,37.57Z"/><path class="cls-1" d="M161.25,219.68c-3.38-22.27-6.75-44.53-10.13-66.8-1.23-8.08-2.41-16.6.54-24.23,2.95-7.63,11.61-13.7,19.27-10.83-3.07-15.49,14.07-26.93,29-32.07,25.02-8.61,51.85-13,78.1-9.61,26.24,3.39,51.87,15,69.56,34.68,5.6,6.23,10.42,13.3,13.09,21.25,5.13,15.28,1.87,31.95-1.44,47.73-2.63,12.53-5.26,25.07-7.89,37.6-.6,2.86-1.27,5.87-3.22,8.04-3.11,3.47-8.36,3.73-13.02,3.74-49.8.11-99.6.21-149.4.32-9.37.02-21.59-2.29-22.82-11.57"/></g></svg>