<?xml version="1.0" encoding="UTF-8"?><svg id="Ebene_2" xmlns="http://www.w3.org/2000/svg" viewBox="0 0 516.34 516.33"><defs><style>.cls-1{fill:#fff;}.cls-1,.cls-2{stroke-width:0px;}.cls-2{fill:#e1edff;}</style></defs><g id="Layer_1"><circle class="cls-2" cx="258.17" cy="258.17" r="258.17"/><ellipse class="cls-1" cx="258.17" cy="215.88" rx="100.43" ry="129.83"/><path class="cls-1" d="M258.17,355.35c-80.8,0-151.96,29.18-193.66,73.45,47.31,53.65,116.51,87.54,193.66,87.54s146.35-33.89,193.66-87.54c-41.7-44.27-112.86-73.45-193.66-73.45Z"/><rect class="cls-1" x="212.82" y="258.17" width="90.69" height="163.95" rx="38.37" ry="38.37"/><path class="cls-1" d="M171.61,221.9c5.85,16.84,3.53,32.94-5.18,35.96-8.71,3.02-20.51-8.17-26.35-25.01-5.85-16.84-3.53-32.94,5.18-35.96,8.71-3.02,20.51,8.17,26.35,25.01Z"/><path class="cls-1" d="M344.73,221.9c-5.85,16.84-3.53,32.94,5.18,35.96,8.71,3.02,20.51-8.17,26.35-25.01,5.85-16.84,3.53-32.94-5.18-35.96-8.71-3.02-20.51,8.17-26.35,25.01Z"/><path class="cls-1" d="M381.38,233.12c-2.21-32.06-1.11-64.95-11.43-95.39-11.59-34.19-38.28-63.43-72.13-76.01-33.84-12.58-74.24-7.39-102.52,15.05-9.91,7.87-18.82,19.15-17.82,31.77-17.17-5.81-36.32,6.39-44.35,22.64-8.03,16.26-7.63,35.26-6.49,53.35,3.34,53.03,11.43,107.4-2.92,158.51,44.01,1.33,88.02,2.66,132.03,4,14.09.43,28.2.85,42.28.25,35.94-1.55,73.19-9.65,107.04,2.53-12.98-37.63-20.98-76.99-23.71-116.7Z"/></g></svg>