<?xml version="1.0" encoding="UTF-8"?><svg id="Ebene_2" xmlns="http://www.w3.org/2000/svg" xmlns:xlink="http://www.w3.org/1999/xlink" viewBox="0 0 1051.92 1001.81"><defs><style>.cls-1{fill:url(#linear-gradient);}.cls-1,.cls-2,.cls-3,.cls-4,.cls-5,.cls-6,.cls-7,.cls-8{stroke-width:0px;}.cls-9{fill:none;opacity:.65;stroke:#4d52b5;stroke-width:5.22px;}.cls-9,.cls-10{stroke-linecap:round;stroke-linejoin:round;}.cls-10{fill:#f4f6fa;stroke:#f4f6fa;stroke-width:2.47px;}.cls-2{fill:#0c2f3d;}.cls-3{fill:#d6e3f8;}.cls-4{fill:#fff;}.cls-5{fill:url(#linear-gradient-2);}.cls-6{fill:#f9b795;}.cls-7{opacity:.1;}.cls-8{fill:#d7e9ff;}</style><linearGradient id="linear-gradient" x1="718.6" y1="654.45" x2="568.06" y2="526.72" gradientUnits="userSpaceOnUse"><stop offset="0" stop-color="#dbe8ff"/><stop offset="1" stop-color="#b5d1ff"/></linearGradient><linearGradient id="linear-gradient-2" x1="628.34" y1="407.01" x2="772.09" y2="407.01" gradientUnits="userSpaceOnUse"><stop offset="0" stop-color="#5889fc"/><stop offset="1" stop-color="#4d71d8"/></linearGradient></defs><g id="Layer_1"><path class="cls-6" d="M429.49,495.47l-19.27,48.29-30.53-15.9-48.07-25.05c-6.32-3.29-11.32-8.69-14-15.3-1.86-4.65-4.74-10.38-8.99-15.85-13.49-17.35-62.95-44.2-62.95-44.2l27.65-3.55c5.8-1.19,11.8-1.02,17.52.52l51.39,13.73c7.76,2.08,14.67,6.54,19.73,12.76l24.35,23.91,13.74,6.56,29.43,14.06Z"/><polygon class="cls-7" points="429.49 495.47 410.22 543.75 379.69 527.85 400.06 481.4 429.49 495.47"/><polygon class="cls-1" points="402.39 482.38 395.7 614.98 619.7 672.26 640.75 507.36 636.7 350.46 585.79 567.01 402.39 482.38"/><path class="cls-7" d="M699.86,715.53l-3.51,63.15s-14.4-2.46-29.79-4.49l23.89-59.71,9.4,1.04Z"/><path class="cls-3" d="M43.23,442.84h164.78l-54.44-261.32s-34.84-113.97-111.06-109.61c0,0-68.96,23.23-31.21,167.68l31.94,203.25Z"/><path class="cls-3" d="M833.75,999.05l-54.44-112.23s-11.42-12.54-35.44-25.9c-12.19-14.66-35.05-18-35.05-18-7.68-.19-14.91.16-21.76.9-5.97-.53-12.23-.77-18.82-.61,0,0-21.81,3.16-34.19,16.95-24.61,13.45-36.3,26.37-36.3,26.37l-42.52,113.33,113.63-1.1h0l164.89.29Z"/><path class="cls-10" d="M762.5,997.66h288.18c-.22,0-9.11-27.9-9.82-29.84-8.94-24.26-21.35-47.59-38.24-67.27-12.29-14.33-26.85-26.11-43.53-34.95-15.72-8.33-36.03-7.12-53.47-7.56-6.77-.17-271.34,7.17-272.32,1.29,0-.04-136.47-655.49-136.47-655.49,0,0-29.76-120.5-107.43-131.39H43.14c11.8,0,24.75,6.32,34.63,12.04,28.52,16.49,52.29,45.87,64.69,76.04,13.66,33.22,18.2,68.14,25.38,102.97,4.65,22.53,9.29,45.07,13.94,67.6,11.31,54.85,22.63,109.7,33.94,164.55,11.76,57.02,23.52,114.04,35.28,171.06,9.52,46.14,19.03,92.28,28.55,138.42,5.76,27.92,11.36,55.97,20.27,83.09,9.48,28.85,23.14,59.68,45.78,80.7,8.67,8.04,19.56,13.41,30.82,16.78,8.36,2.51,17.04,3.66,25.68,4.73,8.46,1.05,16.78,2.55,25.21,3.71,35.3,4.84,71.5,7.63,107.13,5.94,5.45-.26,10.89-.63,16.33-1.11,2.62-.23,5.58-.17,8.14-.8.67-.16,5.2-1.73,5.2-2.15.04-.02.07-.03.11-.05,33.03-15.39,35.23-55.04,37.23-86.63,1.84-29.1,32.43-42.95,65.11-43.54,0,0,95.93-10.36,95.93,131.85Z"/><line class="cls-9" x1="164.43" y1="128.2" x2="237.2" y2="128.29"/><line class="cls-9" x1="273.89" y1="128.2" x2="391.67" y2="128.29"/><line class="cls-9" x1="326.92" y1="148.37" x2="448.34" y2="148.47"/><line class="cls-9" x1="169.38" y1="148.37" x2="290.8" y2="148.47"/><line class="cls-9" x1="173.65" y1="168.16" x2="246.42" y2="168.25"/><line class="cls-9" x1="283.12" y1="168.16" x2="400.89" y2="168.25"/><line class="cls-9" x1="336.14" y1="188.33" x2="457.57" y2="188.43"/><line class="cls-9" x1="178.6" y1="188.33" x2="300.02" y2="188.43"/><line class="cls-9" x1="187.1" y1="229.83" x2="259.87" y2="229.93"/><line class="cls-9" x1="296.56" y1="229.83" x2="414.34" y2="229.93"/><line class="cls-9" x1="349.59" y1="250" x2="471.02" y2="250.1"/><line class="cls-9" x1="192.05" y1="250" x2="313.47" y2="250.1"/><line class="cls-9" x1="196.32" y1="269.79" x2="269.09" y2="269.89"/><line class="cls-9" x1="305.79" y1="269.79" x2="423.56" y2="269.89"/><line class="cls-9" x1="358.81" y1="289.97" x2="480.24" y2="290.06"/><line class="cls-9" x1="201.27" y1="289.97" x2="322.69" y2="290.06"/><line class="cls-9" x1="181.48" y1="206.78" x2="367.65" y2="206.87"/><line class="cls-9" x1="203.96" y1="310.52" x2="390.13" y2="310.62"/><line class="cls-9" x1="218.23" y1="385.65" x2="290.99" y2="385.74"/><line class="cls-9" x1="327.69" y1="385.65" x2="445.46" y2="385.74"/><line class="cls-9" x1="380.72" y1="405.82" x2="502.14" y2="405.92"/><line class="cls-9" x1="223.17" y1="405.82" x2="344.6" y2="405.92"/><line class="cls-9" x1="227.45" y1="425.61" x2="300.22" y2="425.7"/><line class="cls-9" x1="336.91" y1="425.61" x2="454.68" y2="425.7"/><line class="cls-9" x1="389.94" y1="445.78" x2="511.36" y2="445.88"/><line class="cls-9" x1="232.39" y1="445.78" x2="353.82" y2="445.88"/><line class="cls-9" x1="240.9" y1="487.28" x2="313.66" y2="487.38"/><line class="cls-9" x1="350.36" y1="487.28" x2="468.13" y2="487.38"/><line class="cls-9" x1="403.39" y1="507.45" x2="524.81" y2="507.55"/><line class="cls-9" x1="245.84" y1="507.45" x2="367.27" y2="507.55"/><line class="cls-9" x1="250.12" y1="527.24" x2="322.89" y2="527.34"/><line class="cls-9" x1="359.58" y1="527.24" x2="477.36" y2="527.34"/><line class="cls-9" x1="412.61" y1="547.42" x2="534.03" y2="547.51"/><line class="cls-9" x1="255.07" y1="547.42" x2="376.49" y2="547.51"/><line class="cls-9" x1="235.28" y1="464.23" x2="421.45" y2="464.32"/><line class="cls-9" x1="257.76" y1="567.97" x2="443.93" y2="568.07"/><line class="cls-9" x1="258.19" y1="590.07" x2="330.96" y2="590.16"/><line class="cls-9" x1="367.65" y1="590.07" x2="485.43" y2="590.16"/><line class="cls-9" x1="420.68" y1="610.24" x2="542.1" y2="610.34"/><line class="cls-9" x1="263.13" y1="610.24" x2="384.56" y2="610.34"/><line class="cls-9" x1="267.41" y1="630.03" x2="340.18" y2="630.13"/><line class="cls-9" x1="376.87" y1="630.03" x2="494.65" y2="630.13"/><line class="cls-9" x1="429.9" y1="650.2" x2="551.32" y2="650.3"/><line class="cls-9" x1="272.36" y1="650.2" x2="393.78" y2="650.3"/><line class="cls-9" x1="280.86" y1="691.7" x2="353.63" y2="691.8"/><line class="cls-9" x1="318.9" y1="841.95" x2="391.67" y2="842.04"/><line class="cls-9" x1="457.13" y1="946.27" x2="584.49" y2="946.37"/><line class="cls-9" x1="362.01" y1="946.27" x2="427.97" y2="946.37"/><line class="cls-9" x1="479.75" y1="964.91" x2="578.92" y2="965"/><line class="cls-9" x1="368.8" y1="964.91" x2="457.13" y2="965"/><line class="cls-9" x1="390.32" y1="691.7" x2="508.1" y2="691.8"/><line class="cls-9" x1="432.97" y1="841.75" x2="550.75" y2="841.85"/><line class="cls-9" x1="472.67" y1="888.4" x2="590.44" y2="888.5"/><line class="cls-9" x1="342.08" y1="905.92" x2="492.61" y2="905.93"/><line class="cls-9" x1="511.7" y1="905.92" x2="593.03" y2="905.93"/><line class="cls-9" x1="443.35" y1="711.88" x2="564.77" y2="711.97"/><line class="cls-9" x1="285.81" y1="711.88" x2="407.23" y2="711.97"/><line class="cls-9" x1="452.57" y1="751.84" x2="574" y2="751.94"/><line class="cls-9" x1="295.03" y1="751.84" x2="416.45" y2="751.94"/><line class="cls-9" x1="465.64" y1="799.87" x2="587.06" y2="799.97"/><line class="cls-9" x1="308.09" y1="799.87" x2="429.52" y2="799.97"/><line class="cls-9" x1="351.03" y1="924.15" x2="531.56" y2="924.24"/><line class="cls-9" x1="338.13" y1="888.4" x2="459.55" y2="888.5"/><line class="cls-9" x1="275.24" y1="668.65" x2="461.41" y2="668.74"/><line class="cls-9" x1="313.09" y1="819.66" x2="499.26" y2="819.76"/><line class="cls-9" x1="287.85" y1="733.88" x2="474.02" y2="733.98"/><line class="cls-9" x1="745.09" y1="889.02" x2="862.86" y2="889.11"/><line class="cls-9" x1="864.45" y1="910.06" x2="982.22" y2="910.15"/><line class="cls-9" x1="766.71" y1="930.32" x2="884.48" y2="930.42"/><line class="cls-9" x1="901.14" y1="972.11" x2="1018.92" y2="972.21"/><line class="cls-9" x1="889.09" y1="889.21" x2="961.85" y2="889.31"/><line class="cls-9" x1="757.61" y1="910.25" x2="830.37" y2="910.34"/><line class="cls-9" x1="783.13" y1="971.92" x2="855.9" y2="972.02"/><line class="cls-9" x1="920.31" y1="930.71" x2="993.07" y2="930.8"/><line class="cls-9" x1="776.23" y1="949.73" x2="966.92" y2="949.83"/><path class="cls-6" d="M431.27,603.52l-3.51,63.15s-14.4-2.46-29.79-4.49c-10.56-1.37-21.55-2.53-28.69-2.53,0,0-63.15,5.85-88.88-18.71,0,0-7.01-7.02-2.33-11.69,0,0-19.88-8.18-9.36-18.71l-28.53-1.9c-3.68-.24-6.55-3.31-6.55-7.01v-1.62c0-3.87,3.15-7.02,7.02-7.02l-.32-3.83c-.47-5.63,3.72-10.57,9.35-11.01,22.27-1.75,44.72-4.84,67.06-2.24,21.71,2.53,41.67,14.17,61.91,21.77l43.22,4.79,9.4,1.04Z"/><path class="cls-6" d="M778.02,281.63l-89.86,38.01c-.47-1.41-5.89-14.87-11.65-29.11-6.08-15.01-12.54-30.91-14.01-34.56-.21-.51-.32-.78-.32-.78,0,0-106.03,62.36-125.77-169.42,0,0,60.29-82.12,174.62-22.86,0,0,32.23,55.09,31.18,117.45l35.82,101.26Z"/><path class="cls-7" d="M717.16,209.14s-9.05,44.11-40.65,81.4c-6.08-15.01-12.54-30.91-14.01-34.56,14.87-8.12,35.33-22.5,54.66-46.84Z"/><path class="cls-2" d="M720.89,170.49s3.02,11.92,22.3,14.28c0,0,45.26-133.81-49.33-176.42,0,0-54.05-24.95-125.77,11.43,0,0-34.45,24.62-58.55,21.94-20.89-2.32-5.36,137.96,125.08,32.11,0,0,5.2,54.05,46.77,49.89l3.12,20.79,12.47-8.32s.42-29.89,20.17-28.85c11.16.59,25.45,40.18,3.74,63.15Z"/><path class="cls-5" d="M628.34,579.87s26.28-219.01,48.5-268.12c0,0,60.53-65.46,95.25-77.59l-.36,11.25s-109.48,304.06-143.39,334.46Z"/><rect class="cls-2" x="704.23" y="283.12" width="4.02" height="55.85" transform="translate(392.35 1016.02) rotate(-89.77)"/><path class="cls-8" d="M942.8,859.03c-3.8-.85-16.09-.62-17.69-.59-48.42.96-96.59.73-144.99,1.99-48.96,1.27-97.92-1.27-146.88,0l-27.14-133.71-2.59-12.28c-63.45,10.47-193.44,7.7-193.44,7.7l13.39-128.58c88.4,6.7,183.5-18.75,183.5-18.75,0,0,13.56-189.06,26.41-218.3,12.86-29.24,44.58-44.23,44.58-44.23-21.05,86.54-41.04,251.81-41.04,251.81,22.22-133.32,134.8-330.83,134.8-330.83,13.45,26.31,72.17,71.8,72.17,71.8,90.05,63.14,86.54,141.5,86.54,141.5,1.12,6.33,1.69,12.76,2.27,19.16,2.99,33.29,4.38,66.74,6.04,100.11,2.3,46.19,4.43,92.38,6.93,138.56.01.25.03.49.04.74,1.23,23.49,2.33,47,3.72,70.48l5.31,86.56s-10.86-2.89-11.93-3.13Z"/><polygon class="cls-2" points="682.06 560.4 678.58 558.39 775.79 389.28 752.52 347.67 803.26 349.05 791.51 260.3 795.49 259.77 807.86 353.19 759.48 351.88 780.41 389.3 682.06 560.4"/><path class="cls-4" d="M638.7,213.12s-23.79,6.11-28.86,17.48c-5.07,11.36,28.18,28.76,28.86-17.48Z"/></g></svg>