<?xml version="1.0" encoding="UTF-8"?><svg id="Ebene_2" xmlns="http://www.w3.org/2000/svg" xmlns:xlink="http://www.w3.org/1999/xlink" viewBox="0 0 1325.85 806.78"><defs><style>.cls-1{fill:url(#linear-gradient-12);}.cls-1,.cls-2,.cls-3,.cls-4,.cls-5,.cls-6,.cls-7,.cls-8,.cls-9,.cls-10,.cls-11,.cls-12,.cls-13,.cls-14,.cls-15,.cls-16,.cls-17,.cls-18,.cls-19,.cls-20,.cls-21,.cls-22,.cls-23,.cls-24,.cls-25,.cls-26,.cls-27,.cls-28,.cls-29,.cls-30,.cls-31,.cls-32,.cls-33,.cls-34,.cls-35,.cls-36,.cls-37,.cls-38,.cls-39,.cls-40{stroke-width:0px;}.cls-2{fill:#e7eefa;}.cls-41,.cls-42{stroke-width:3.13px;}.cls-41,.cls-42,.cls-43,.cls-44{stroke-linejoin:round;}.cls-41,.cls-42,.cls-43,.cls-44,.cls-45{fill:none;stroke:#fff;}.cls-41,.cls-43{stroke-linecap:round;}.cls-3{fill:url(#linear-gradient);}.cls-4{fill:#101310;}.cls-5{fill:#8787a0;}.cls-6{fill:#ef629c;}.cls-7{fill:#eff2fc;}.cls-8{fill:url(#linear-gradient-6);}.cls-9{fill:#a4abcb;}.cls-10{fill:#cfd7ed;}.cls-11{fill:#80d880;}.cls-12{fill:#5fc8bc;}.cls-13{fill:#d3253c;}.cls-43,.cls-44{stroke-width:3.25px;}.cls-14{fill:#3bbcfe;}.cls-15{fill:url(#linear-gradient-11);}.cls-16{fill:#ffaaad;}.cls-17{fill:url(#linear-gradient-5);}.cls-18{fill:#fe74a7;}.cls-19{fill:#3f8e67;}.cls-20{fill:#0c2f3d;}.cls-21{fill:#133346;}.cls-22{fill:#fff;}.cls-23{fill:#317361;}.cls-24{fill:#a0a0a0;}.cls-25{fill:url(#linear-gradient-2);}.cls-26{fill:url(#linear-gradient-7);}.cls-27{fill:url(#linear-gradient-3);}.cls-28{fill:#a6a5bc;}.cls-29{fill:url(#linear-gradient-9);}.cls-45{stroke-miterlimit:10;stroke-width:2.57px;}.cls-30{fill:#f9b795;}.cls-31{fill:url(#linear-gradient-8);}.cls-32{fill:#fcb9c0;}.cls-33{fill:#4daa53;}.cls-34{fill:#61c388;}.cls-35{fill:#123245;}.cls-36{fill:#cfd7f0;}.cls-37{fill:url(#linear-gradient-10);}.cls-38{fill:url(#linear-gradient-4);}.cls-39{fill:#559383;}.cls-40{opacity:.1;}</style><linearGradient id="linear-gradient" x1="864.59" y1="560.65" x2="1011.61" y2="560.65" gradientUnits="userSpaceOnUse"><stop offset="0" stop-color="#2b233c"/><stop offset="1" stop-color="#635c70"/></linearGradient><linearGradient id="linear-gradient-2" x1="1003.75" y1="549.3" x2="880.68" y2="552.38" xlink:href="#linear-gradient"/><linearGradient id="linear-gradient-3" x1="489.27" y1="562.15" x2="321.06" y2="560.78" xlink:href="#linear-gradient"/><linearGradient id="linear-gradient-4" x1="324.62" y1="551.42" x2="471.19" y2="551.42" xlink:href="#linear-gradient"/><linearGradient id="linear-gradient-5" x1="843.29" y1="522.5" x2="759.01" y2="702.44" gradientUnits="userSpaceOnUse"><stop offset="0" stop-color="#29056b"/><stop offset="1" stop-color="#6c93f5"/></linearGradient><linearGradient id="linear-gradient-6" x1="904.96" y1="509.31" x2="841.18" y2="696.08" xlink:href="#linear-gradient-5"/><linearGradient id="linear-gradient-7" x1="890.89" y1="343.88" x2="864.22" y2="567.5" gradientUnits="userSpaceOnUse"><stop offset="0" stop-color="#dce9ff"/><stop offset="1" stop-color="#b6d2ff"/></linearGradient><linearGradient id="linear-gradient-8" x1="905.79" y1="313.39" x2="909.9" y2="422.12" gradientUnits="userSpaceOnUse"><stop offset="0" stop-color="#588afd"/><stop offset="1" stop-color="#4d71d9"/></linearGradient><linearGradient id="linear-gradient-9" x1="545.95" y1="462.53" x2="1061.86" y2="462.53" xlink:href="#linear-gradient"/><linearGradient id="linear-gradient-10" x1="488.69" y1="525.63" x2="570.74" y2="744.44" xlink:href="#linear-gradient"/><linearGradient id="linear-gradient-11" x1="402.66" y1="454.54" x2="514.8" y2="692.49" xlink:href="#linear-gradient"/><linearGradient id="linear-gradient-12" x1="409.42" y1="315.2" x2="393.01" y2="497.09" gradientUnits="userSpaceOnUse"><stop offset="0" stop-color="#62ebe6"/><stop offset="1" stop-color="#4d71d9"/></linearGradient></defs><g id="Layer_1"><path class="cls-7" d="M188.44,764.54s-192.69-115.51-48.03-263.07c33.95-34.63,46.98-84.6,34.53-131.48C136.49,225.31,115.63-49.93,575.01,88.48c40.11,12.08,83.49,5.15,117.82-18.85,77.27-54,230.87-127.64,372.6,5.35,109.52,102.77,86.6,208.43,43.56,282.9-32.68,56.52-21.44,128.19,27.37,171.55,61.29,54.45,104.34,137.09-7.99,235.1H188.44Z"/><path class="cls-34" d="M1115.02,742.65s160.77-233.76,54.73-287.87c-89.08-45.46-106.66,251.34-106.66,251.34l51.93,36.53h0Z"/><path class="cls-19" d="M1151.38,518.32c6.6-24.06,11.91-44.45,15.59-58.96.77.4,1.53.8,2.26,1.21-6.51,25.58-17.93,68.98-32.51,118.34l61.41-13.44c-.2.89-.41,1.79-.62,2.69l-61.6,13.48c-13.31,44.91-29.19,94.52-46.33,140l44.58-9.65c-.59.99-1.17,1.97-1.74,2.92l-43.89,9.5c-.62,1.63-1.25,3.24-1.87,4.87l-2.1-1.48c9.23-24.06,18.12-49.41,26.47-74.75l-39.48-41.44c.17-1.02.34-2.05.51-3.07l39.85,41.83c15.08-45.98,28.36-91.69,38.63-129.02l-35.25-45.99c.52-.7,1.04-1.39,1.56-2.06l34.52,45.03Z"/><path class="cls-39" d="M1095.38,731.55s108.41-262.17,211.56-202.75c86.66,49.93-152.64,226.39-152.64,226.39l-58.93-23.64h0Z"/><path class="cls-23" d="M1265.79,573.89c16.58-18.64,30.79-34.2,40.95-45.2-.75-.43-1.5-.85-2.24-1.24-17.91,19.39-48.08,52.62-81.52,91.73l-22.19-58.81c-.64.65-1.28,1.31-1.91,1.98l22.26,58.99c-30.4,35.63-63.35,75.98-92.15,115.13l-16.2-42.64c-.51,1.04-1.01,2.05-1.5,3.06l15.95,41.98c-1.03,1.41-2.04,2.81-3.06,4.22l2.39.96c15.14-20.85,31.56-42.12,48.26-62.93l56.25,10.53c.77-.7,1.53-1.4,2.3-2.11l-56.78-10.62c30.35-37.7,61.43-73.73,87.14-102.69l57.77,4.51c.3-.81.6-1.62.87-2.43l-56.57-4.41h0Z"/><path class="cls-11" d="M1116.93,705.29s23.24-282.75-95.66-276.97c-99.9,4.85,32.44,271.1,32.44,271.1l63.22,5.87h0Z"/><path class="cls-33" d="M1037.29,487.22c-6.24-24.15-11.78-44.49-15.79-58.9.86-.04,1.72-.06,2.57-.08,7.07,25.43,18.75,68.76,30.64,118.83l46.59-42.2c.27.88.54,1.75.8,2.64l-46.74,42.33c10.79,45.58,21.67,96.52,29.42,144.5l33.88-30.54c-.02,1.15-.04,2.29-.06,3.41l-33.35,30.06c.28,1.73.53,3.44.8,5.16l-2.56-.23c-3.96-25.46-8.85-51.89-14.21-78.02l-54.85-16.32c-.36-.97-.72-1.94-1.09-2.92l55.37,16.48c-9.78-47.39-20.99-93.65-30.64-131.15l-53.45-22.37c.09-.87.21-1.71.33-2.56l52.34,21.9h0Z"/><path class="cls-34" d="M257.46,761.31s35.72-281.44-83.33-280.93c-100.01.43,20.42,272.27,20.42,272.27l62.9,8.66h0Z"/><path class="cls-19" d="M187.55,539.93c-5.16-24.41-9.8-44.97-13.17-59.54.86,0,1.72,0,2.57.04,5.95,25.71,15.69,69.52,25.36,120.07l48.41-40.1c.23.89.46,1.77.68,2.67l-48.56,40.22c8.76,46.01,17.39,97.39,23,145.66l35.2-29.02c-.07,1.15-.14,2.28-.21,3.4l-34.65,28.56c.2,1.74.38,3.46.57,5.18l-2.54-.35c-2.83-25.61-6.55-52.22-10.75-78.57l-54.08-18.73c-.32-.98-.64-1.97-.95-2.96l54.58,18.9c-7.68-47.78-16.83-94.48-24.81-132.37l-52.41-24.71c.14-.86.29-1.71.44-2.55l51.32,24.2h0Z"/><path class="cls-11" d="M199.16,750.83s-63.1-276.6-174.73-235.23c-93.78,34.75,112.68,248.7,112.68,248.7l62.05-13.47h0Z"/><path class="cls-33" d="M57.47,566.92c-13.23-21.15-24.65-38.87-32.82-51.4.81-.3,1.62-.58,2.42-.85,14.41,22.11,38.61,59.91,65.05,104.06l31.7-54.28c.52.75,1.04,1.51,1.56,2.27l-31.8,54.45c24.03,40.21,49.77,85.49,71.62,128.9l23.1-39.34c.33,1.11.65,2.19.97,3.27l-22.73,38.72c.79,1.57,1.55,3.12,2.32,4.68l-2.51.55c-11.45-23.09-24.08-46.8-37.08-70.1l-57.22.98c-.64-.82-1.28-1.64-1.91-2.46l57.76-.99c-23.62-42.24-48.25-82.96-68.76-115.81l-57.71-5.21c-.17-.85-.32-1.7-.45-2.54l56.51,5.1h0Z"/><path class="cls-36" d="M893.96,681.28c-148.45,0-269.6,25.28-276.35,57.01-50.75-9.21-127.23-15.08-212.8-15.08-152.8,0-276.66,18.7-276.66,41.79s123.86,41.79,276.66,41.79c126.43,0,397.6-5.88,489.15-5.88,152.79,0,276.66-26.78,276.66-59.82s-123.86-59.82-276.66-59.82h0Z"/><path class="cls-22" d="M794.19,108.9h-299.15c-6.96,0-12.59,5.64-12.59,12.6v308.39c0,6.95,5.64,12.6,12.59,12.6h299.15c6.96,0,12.6-5.64,12.6-12.6V121.49c0-6.96-5.64-12.6-12.6-12.6Z"/><path class="cls-2" d="M774.78,222.92h-120.1c-1.51,0-2.74,1.22-2.74,2.73v80.82c0,1.51,1.23,2.73,2.74,2.73h120.1c1.51,0,2.74-1.22,2.74-2.73v-80.82c0-1.51-1.23-2.73-2.74-2.73Z"/><path class="cls-10" d="M754.05,237.04h-90.72c-.76,0-1.38.62-1.38,1.38v5.97c0,.76.62,1.38,1.38,1.38h90.72c.76,0,1.38-.62,1.38-1.38v-5.97c0-.77-.62-1.38-1.38-1.38Z"/><path class="cls-10" d="M728.2,252.96h-64.87c-.76,0-1.38.62-1.38,1.38v5.97c0,.76.62,1.38,1.38,1.38h64.87c.76,0,1.38-.62,1.38-1.38v-5.97c0-.77-.62-1.38-1.38-1.38Z"/><path class="cls-10" d="M754.05,271.88h-90.72c-.76,0-1.38.62-1.38,1.38v5.97c0,.76.62,1.38,1.38,1.38h90.72c.76,0,1.38-.62,1.38-1.38v-5.97c0-.76-.62-1.38-1.38-1.38Z"/><path class="cls-10" d="M728.2,287.8h-64.87c-.76,0-1.38.62-1.38,1.38v5.97c0,.76.62,1.38,1.38,1.38h64.87c.76,0,1.38-.62,1.38-1.38v-5.97c0-.76-.62-1.38-1.38-1.38Z"/><path class="cls-2" d="M774.78,323.5h-120.1c-1.51,0-2.74,1.22-2.74,2.74v80.81c0,1.51,1.23,2.74,2.74,2.74h120.1c1.51,0,2.74-1.23,2.74-2.74v-80.81c0-1.51-1.23-2.74-2.74-2.74Z"/><path class="cls-10" d="M753.92,337.62h-90.46c-.83,0-1.51.68-1.51,1.51v5.71c0,.83.67,1.51,1.51,1.51h90.46c.83,0,1.51-.68,1.51-1.51v-5.71c0-.83-.68-1.51-1.51-1.51Z"/><path class="cls-10" d="M728.07,353.55h-64.61c-.83,0-1.51.68-1.51,1.51v5.71c0,.83.67,1.51,1.51,1.51h64.61c.83,0,1.51-.68,1.51-1.51v-5.71c0-.83-.67-1.51-1.51-1.51Z"/><path class="cls-10" d="M753.92,372.46h-90.46c-.83,0-1.51.67-1.51,1.51v5.71c0,.83.67,1.51,1.51,1.51h90.46c.83,0,1.51-.67,1.51-1.51v-5.71c0-.83-.68-1.51-1.51-1.51Z"/><path class="cls-10" d="M728.07,388.38h-64.61c-.83,0-1.51.67-1.51,1.51v5.71c0,.83.67,1.51,1.51,1.51h64.61c.83,0,1.51-.68,1.51-1.51v-5.71c0-.83-.67-1.51-1.51-1.51Z"/><path class="cls-2" d="M764.41,145.11h-241.9c-7.23,0-13.1,5.87-13.1,13.1v22.33c0,7.24,5.87,13.1,13.1,13.1h241.9c7.24,0,13.11-5.86,13.11-13.1v-22.33c0-7.24-5.87-13.1-13.11-13.1Z"/><path class="cls-13" d="M613.46,278.35c-11.23-10.58-28.91-10.06-39.48,1.17l-7.3,7.75-7.75-7.3c-11.23-10.58-28.91-10.06-39.49,1.17-10.58,11.23-10.06,28.91,1.17,39.48l28.08,26.46,10.59,9.98c5.38,5.07,13.84,4.82,18.91-.56l36.44-38.67c10.58-11.23,10.06-28.91-1.17-39.48Z"/><g id="Chair"><rect class="cls-5" x="881.69" y="655.7" width="113.51" height="11.62"/><rect class="cls-9" x="932.63" y="571.25" width="11.62" height="192.14"/><polygon class="cls-9" points="897.75 571.25 853.99 763.39 865.62 763.39 909.38 571.25 897.75 571.25"/><polygon class="cls-9" points="979.13 571.25 1022.89 763.39 1011.26 763.39 967.5 571.25 979.13 571.25"/><path class="cls-3" d="M1011.61,560.65v17.09h-147.01v-17.09c0-.93.08-1.85.22-2.74,1.31-8.14,8.36-14.36,16.88-14.36h112.82c8.51,0,15.57,6.22,16.88,14.36.14.89.22,1.81.22,2.74Z"/><path class="cls-25" d="M1011.39,557.92h-146.58c1.31-8.14,8.36-14.36,16.88-14.36h112.82c8.51,0,15.57,6.22,16.88,14.36Z"/></g><g id="Chair-2"><rect class="cls-5" x="341.49" y="656.38" width="113.51" height="11.62"/><rect class="cls-28" x="392.44" y="571.93" width="11.62" height="192.14"/><polygon class="cls-28" points="357.56 571.93 313.8 764.08 325.43 764.08 369.19 571.93 357.56 571.93"/><polygon class="cls-28" points="438.93 571.93 482.7 764.08 471.07 764.08 427.31 571.93 438.93 571.93"/><path class="cls-27" d="M471.41,561.34v17.09h-147.01v-17.09c0-.93.08-1.85.22-2.74,1.31-8.14,8.36-14.36,16.88-14.36h112.82c8.51,0,15.57,6.22,16.88,14.36.14.89.22,1.81.22,2.74Z"/><path class="cls-38" d="M471.19,558.6h-146.58c1.31-8.14,8.36-14.36,16.88-14.36h112.82c8.51,0,15.57,6.22,16.88,14.36Z"/></g><g id="Doctor"><path class="cls-30" d="M916.37,260.8c3.52-3.1,7.15-9.07,5.32-14.48-.97-2.85-2.55-3.92-4.23-3.97-.78-11.85-5.18-23.67-19.25-25.38-29.38-3.57-40.01,18.8-35.42,41.12,4.59,22.32-.13,32.26,25.02,34.98l1.71,46.74,35.87-6.24-10.53-65.41s.78-2.92,1.51-7.37Z"/><path class="cls-20" d="M911.67,262.78c-2.23-1.24-1.89-9.08-1.21-14.82.29-2.43,5.15-7.01,8.64-5.17,1.77-11.93.91-25.46-11.34-27.48-4.3-9.36-13.06-6.48-18.06-5.03-15.55,4.48-20.45,4.99-27.2,1.69-4.96-2.43-9.35-1-9.88,2.25-.96,5.83,2.4,8.69,2.4,8.69-5.78,2.1-5.69,6.11-5.25,8.59,1.14,6.43,5.1,8.84,10.15,9.03.84,3.89,2.22,7.59,2.2,8.83,0,0,.08-4.34,1.3-9.01,12.13-1.58,27.75-12.23,27.75-12.23-1.49,5.44,9.19,7.13,13.21,7.57,1.47,6.71,4.01,23.34-3.36,36.25,0,0-24.84-12.09-36.04-.38,0,0-4.49,22.79,23.64,21.33,0,0,8.18-1.5,12.73-6.85,0,0,7.47-7.72,12.71-23.56-.97.48-1.81.63-2.36.33Z"/><polygon class="cls-30" points="778.09 716.9 778.09 744.93 748.69 744.93 750.7 726.83 752.11 714.16 778.09 716.9"/><path class="cls-20" d="M749.37,738.09s15.04,15.73,28.72-3.42l4.79,29.4h-71.39c-3.08,0-4.15-4.08-1.48-5.6l39.36-20.38Z"/><polygon class="cls-30" points="870.4 716.9 870.4 744.93 841 744.93 842.87 728.15 844.42 714.16 870.4 716.9"/><path class="cls-20" d="M841.68,738.09s15.04,15.73,28.72-3.42l4.79,29.4h-71.39c-3.08,0-4.15-4.08-1.48-5.6l39.36-20.38Z"/><path class="cls-32" d="M763.69,451.93l-7.39.03-65.05.31h-21.54l7.86-6.99,19.07-8.59c.72-.32,1.51-.49,2.3-.49h17.42c.79,0,1.58.16,2.3.48l9.84,4.31,28.49-4.64.91-.15,5.77,15.73Z"/><polygon class="cls-40" points="778.09 716.9 778.09 733.32 750.7 726.83 752.11 714.16 778.09 716.9"/><polygon class="cls-40" points="870.4 716.9 870.4 734.96 842.87 728.15 844.42 714.16 870.4 716.9"/><path class="cls-17" d="M747.66,726.13h45.13l10.94-151.8,131.97-56.07v-38.98h-71.8l-109.85,55.51c-10.52,5.32-16.88,16.38-16.18,28.15l9.78,163.18Z"/><path class="cls-8" d="M836.21,726.81h45.13l3.42-147.7s58.12-23.25,73.17-37.61c0,0,12.31-10.94,0-58.81h-32.82l-86.83,52.68c-9.65,5.86-15.2,16.64-14.35,27.89l12.3,163.54Z"/><path class="cls-26" d="M1019.64,440.57l-36.79-109.52c-1.82-5.41-5.86-9.79-11.1-12.04l-50.4-21.61s-12.65,57.81-16.41,75.02c-2.81,12.88-11.26,76.14-11.26,76.14,0,0-5.65-68.02-6.63-80.43-1.24-15.85-.88-65.47-.88-65.47l-47.63,18.98c-4.98,1.99-8.95,5.91-11,10.88l-31.34,76.34-56.75,21.2,5.13,25.3,77.61-11.62,17.78-34.87s.59,27.24,1.57,36.24c1.85,17.09-.89,37.61-.89,37.61l-89.58,53.34s13.63,1.11,23.93-.68c11.23-1.96,17.09,8.21,17.09,8.21l93.68-45.13-18.78,19.78c-4.79,5.03-9,10.59-12.55,16.55l-15.84,26.58s29.71,12.64,38.29,21.88c5.52,5.94,9.39,14.18,12.1,22.73,6.04,19,6.37,39.5,6.37,39.5,0,0,69.01-98.73,71.8-125.13,1.31-12.39.96-35.66.12-58.81-.06-1.5-.12-2.99-.18-4.49l44.92-4.62c5.74-.59,9.46-6.35,7.62-11.83ZM965.73,428.05c-1.02-18.91-1.99-32.88-1.99-32.88l12.99,31.45-11,1.42Z"/><path class="cls-31" d="M891.94,463.55l34.8-160.46-.68-1.64s-8.15,18.2-25.91,19.18c-12.31.68-14.66-15.38-14.66-15.38l.68,18.12s-.29,36.15.53,48.21c.97,14.27,5.24,91.97,5.24,91.97Z"/><rect class="cls-20" x="863.48" y="472.72" width="51.94" height="1.37" transform="translate(295.69 1287.45) rotate(-81.92)"/><path class="cls-20" d="M892.49,455.98l-23.9-113.16,10.35-4.87-13.11-3.12.14-.65c.02-.1,2.12-9.75,5.94-16.99,3.65-6.91,9.73-12.54,9.99-12.78l.93,1.01c-.06.06-6.17,5.72-9.71,12.41-3.17,6-5.13,13.72-5.67,15.98l15.6,3.71-12.9,6.07,22.6,107.02c2.89-9.09,12.95-40.67,17.19-52.26,4.85-13.26,20.6-51.46,22.82-56.84l-13.66-5.75,17.84-9.99c-.61-2.06-3-9.77-5.55-14.39-2.96-5.35-11.02-12.75-11.1-12.82l.92-1.01c.34.31,8.3,7.63,11.37,13.17,3.03,5.48,5.71,14.8,5.82,15.19l.15.52-16.35,9.15,12.33,5.19-.26.63c-.18.43-17.87,43.23-23.05,57.41-4.94,13.5-17.82,54.26-17.95,54.67l-.78,2.48Z"/><path class="cls-35" d="M897.67,322.6l-6.42-4.69-11.62,13.68s-2.39-24.25,8.21-30.77l10.26,19.15s18.46-6.15,22.56-22.56c0,0,8.21,18.46-3.67,34.19l-10.69-12.03-8.63,3.04Z"/><path class="cls-30" d="M908.65,451.93l-7.39.03-65.05.31h-21.54l7.86-6.99,19.07-8.59c.72-.32,1.51-.49,2.3-.49h17.42c.79,0,1.58.16,2.3.48l9.84,4.31,28.49-4.64.91-.15,5.77,15.73Z"/><polygon class="cls-20" points="902.96 435.51 902.8 434.16 976.42 425.38 954.91 376.3 956.16 375.76 978.41 426.52 902.96 435.51"/><path class="cls-24" d="M939.71,418.29l-8.87-2.63c-3.98-1.18-6.36-5.27-5.41-9.31l7.08-30.17,2.62.62-7.08,30.17c-.62,2.65.94,5.34,3.55,6.11l8.87,2.63-.76,2.58Z"/><path class="cls-24" d="M955.13,420.42l9.25-.13c4.15-.06,7.55-3.35,7.73-7.5l1.35-30.96-2.69-.12-1.35,30.96c-.12,2.72-2.35,4.88-5.07,4.92l-9.25.13.04,2.69Z"/><rect class="cls-35" x="938.16" y="413.42" width="5" height="7.31" rx="2.5" ry="2.5" transform="translate(291.34 1215.31) rotate(-74.79)"/><rect class="cls-35" x="952.04" y="415.33" width="5" height="7.31" rx="2.5" ry="2.5" transform="translate(527.36 1369.89) rotate(-89.51)"/><path class="cls-20" d="M849.55,393.17c-1.43-40.66,8.99-63.72,17.99-75.91,9.86-13.36,20-16.92,20.43-17.07l.88,2.59-.44-1.29.44,1.29c-.1.03-9.9,3.52-19.25,16.29-8.67,11.84-18.71,34.28-17.32,74l-2.73.1Z"/><circle class="cls-24" cx="851.17" cy="394.06" r="7.95"/><circle class="cls-35" cx="851.17" cy="394.06" r="4.37"/><path class="cls-20" d="M893.99,434.17l-1.37-.03c.02-.84,1.8-83.9,4.31-112.59l1.36.12c-2.5,28.64-4.28,111.67-4.3,112.5Z"/><path class="cls-20" d="M968.04,361.69c-2.97-3.68-7.08-6.05-11.7-6.79.34-25.82-8.91-40.13-16.97-47.66-9.25-8.64-18.75-10.44-19.15-10.52l-.49,2.69c.09.02,9.22,1.78,17.89,9.93,10.72,10.08,16.21,25.69,15.99,45.31-6.89-.09-12.85,3.78-17.31,11.29-2.61,4.4-4,8.84-4.53,10.79-.15.55.19,1.12.75,1.24l1.8.4c.52.12,1.04-.2,1.19-.71,1.1-3.96,6.12-19.25,17.98-19.17,0,.12,0,.23-.01.35l2.73.14c0-.07,0-.14,0-.21,5.22,1.01,13.84,5.45,13.96,23.73,0,.55.44.99.99,1l1.84.02c.56,0,1.02-.45,1.02-1.01-.05-8.96-2.07-15.96-5.99-20.83Z"/><circle class="cls-20" cx="892.63" cy="328.85" r="1.37"/><circle class="cls-20" cx="891.94" cy="346.63" r="1.37"/><circle class="cls-20" cx="891.26" cy="363.72" r="1.37"/><rect class="cls-20" x="839.4" y="389.7" width="1.37" height="33.28" transform="translate(-2.76 5.76) rotate(-.39)"/><rect class="cls-20" x="773.61" y="394.83" width="56.71" height="1.37" transform="translate(136.84 993.17) rotate(-68.19)"/><polygon class="cls-40" points="908.65 451.93 901.26 451.96 901.97 436.35 902.88 436.2 908.65 451.93"/></g><g id="Table"><rect class="cls-9" x="584.24" y="466.63" width="21.88" height="297.79"/><rect class="cls-9" x="1012.29" y="465.95" width="21.88" height="297.79"/><rect class="cls-29" x="545.95" y="451.59" width="515.92" height="21.88"/></g><g id="Laptop"><path class="cls-21" d="M729.03,369.19h-5.59l36.57,82.74h89.55v-7.04h-80.61l-32.82-71.16c-1.27-2.76-4.04-4.53-7.08-4.53Z"/><path class="cls-28" d="M729.51,371.93l32.84,73.5c1.37,3.06-.87,6.5-4.22,6.5h-114.87c-1.82,0-3.47-1.07-4.22-2.74l-32.84-73.5c-1.37-3.06.87-6.5,4.22-6.5h114.87c1.82,0,3.47,1.07,4.22,2.74Z"/><ellipse class="cls-22" cx="679.65" cy="410.23" rx="5.43" ry="7.55" transform="translate(-112.83 363.45) rotate(-27.74)"/></g><g id="Patient"><path class="cls-30" d="M450,299.54c-5.72,24.34-22.33,16.98-22.33,16.98v.24s.01.08.01.08l.37,7.87v.14s.64,13.66.64,13.66l-32.73-1.29,4.68-43.64c-5.77-5.01-8.01-9.24-8.49-12.65,0,0,0-.02,0-.03-.84-6.17,4.13-9.53,4.13-9.53l5.31-22.75,47.96,8.92c.81,5.95,1.37,11.47,1.68,16.52.65,10.84.17,19.51-1.23,25.48Z"/><path class="cls-20" d="M406.88,242.56s17.86-16.93,32.64-6.81c0,0,11.09,13.82,23.08,9.19,0,0,.01,7.38-4.6,9.23,0,0,6.47,4.6,12,2.75,0,0-6.41,29.53-34.12,11.12l.93,6.46s-18.45,1.87-21.24-14.73l-6.91,20.05-4.28-1.72s-.36-2.85-3.58-4.63c-3.21-1.78-8.47-1.74-8.45,8.25,0,0-10.84-41.43,14.53-39.16Z"/><polygon class="cls-30" points="569 745.62 539.59 745.62 539.59 717.58 565.58 714.85 567.34 730.74 569 745.62"/><path class="cls-20" d="M568.31,738.78s-15.04,15.73-28.72-3.42l-4.79,29.4h71.39c3.08,0,4.15-4.08,1.48-5.6l-39.36-20.38Z"/><polygon class="cls-16" points="481.47 715.53 479.23 729.3 476.69 744.93 447.28 744.93 451.45 723.56 452.75 716.9 481.47 715.53"/><path class="cls-20" d="M477.37,738.09s-15.04,15.73-28.72-3.42l-4.79,29.4h71.39c3.08,0,4.15-4.08,1.48-5.6l-39.36-20.38Z"/><polygon class="cls-40" points="567.34 730.74 539.59 723.34 539.59 717.58 565.58 714.85 567.34 730.74"/><path class="cls-30" d="M559.59,341.62l-5.78,9.45-19.15,15.04-37.66,78.32c-2.42,5.03-9.37,5.59-12.55,1.01l-34.9-50.07-5.14-7.38,32.14-16.41,4.9,10.2,2.53,5.27,8.99,18.72,25.3-44.45s.68-12.99,5.47-18.46c4.79-5.47,6.15-12.31,6.15-12.31,0,0,6.84,4.1,2.05,12.31l15.73-7.52,9.89-9.89c.77-.77,2.08-.42,2.36.63l1.24,4.66c.55,2.07-.45,9.05-1.57,10.88Z"/><path class="cls-37" d="M533.98,722.37h42.39l-6.15-171.04c0-10.86-6.07-20.81-15.73-25.78l-126.5-65.08h-37.61l128.55,114.88,15.04,147.01Z"/><polygon class="cls-40" points="483.97 387.05 449.55 395.37 444.4 388 476.54 371.59 481.44 381.79 483.97 387.05"/><polygon class="cls-40" points="481.47 715.53 479.23 729.3 451.45 723.56 452.75 716.9 481.47 715.53"/><path class="cls-15" d="M450.22,722.71h43.08l36.71-151.1c2.61-10.75-1.56-22.02-10.55-28.47l-106.15-76.17-48.21-6.5s-14.49,85.39,21.88,94.36c52.65,12.99,83.42,22.56,83.42,22.56l-20.17,145.3Z"/><path class="cls-1" d="M358.93,520.65c0-1.37.68-120.35.68-120.35l-34.87-4.1,22-51.34c2.92-6.82,8.98-11.8,16.24-13.35l34.24-6.42s21.2,28.04,30.77,0l16.93,3.29c4.9.95,9.19,3.89,11.84,8.12l24.56,39.18-28.04,15.04,13.68,90.94-108.04,38.98Z"/><path class="cls-30" d="M473.1,516.27c.01,1.52-1.42,2.64-2.89,2.26l-23.75-7.46s-15.73,4.1-21.88-2.05l-92.89-55.97c-6.26-3.77-9.6-10.98-8.43-18.2l6.2-38.18.08-.48,32.14,4.1-1.38,9.49-3.41,23.33,65.64,54.02,26.68,4.34c1.78.29,3.45,1.06,4.83,2.22l16.96,14.26c1.31,1.1,2.07,2.73,2.09,4.44v3.88Z"/><polygon class="cls-4" points="541.59 347.16 540.73 346.1 551.59 337.28 559.05 325.74 560.2 326.48 552.53 338.27 541.59 347.16"/><polygon class="cls-4" points="544.38 353.26 543.41 352.3 555.66 340.05 561.08 330.56 562.27 331.24 556.69 340.96 544.38 353.26"/><polygon class="cls-4" points="537.34 341.33 536.77 340.09 547.58 335.13 555.68 325.67 556.72 326.56 548.42 336.25 537.34 341.33"/><path class="cls-4" d="M529.36,348.45l-1.02-.91c5.8-6.45,4.4-11.91,4.34-12.14l1.32-.37c.07.26,1.7,6.38-4.64,13.42Z"/><rect class="cls-4" x="459.79" y="489.63" width="1.37" height="29.21" transform="translate(-212.36 620.8) rotate(-57.43)"/><rect class="cls-4" x="458.42" y="493.29" width="1.37" height="31.64" transform="translate(-211.77 650.19) rotate(-59.83)"/><rect class="cls-4" x="451.58" y="502.76" width="1.37" height="15.95" transform="translate(-218.37 635.78) rotate(-59.04)"/><rect class="cls-4" x="455.21" y="365.37" width="1.37" height="80.8" transform="translate(-52.5 68.09) rotate(-8.08)"/><rect class="cls-22" x="455.48" y="632.58" width="119.08" height="1.37" transform="translate(-221.86 984.39) rotate(-76.36)"/><rect class="cls-4" x="354.29" y="383.89" width="31.85" height="1.37" transform="translate(-96.8 643.14) rotate(-75.06)"/><path class="cls-40" d="M428.05,324.85c-13.04-6.12-16.13-23.35-16.13-23.35,3.17,6.75,10.81,12.27,15.75,15.26v.08s.38,7.87.38,7.87v.14Z"/><polygon class="cls-40" points="361.67 400.3 360.28 409.8 329.45 396.68 329.53 396.2 361.67 400.3"/></g><path class="cls-12" d="M1012.06,227.72c20.65,0,37.4-16.75,37.4-37.4s-16.75-37.4-37.4-37.4-37.4,16.74-37.4,37.4,16.75,37.4,37.4,37.4Z"/><path class="cls-45" d="M1028.38,200.13c-.05-.38.24-.85.5-1.18.08-.1.16-.19.25-.28,2.17-2.44,3.56-5.47,4-8.71,1.28-9.27-5.53-17.84-15.21-19.15-8.44-1.14-16.25,3.66-18.93,11.06-.4,1.1-.68,2.23-.84,3.39-1.25,9.28,5.23,18.02,14.91,19.32,1.54.21,3.67.02,4.85-.14,1.18-.16,2.36-.42,2.67-.49.31-.07.64-.09.96-.05.35.05.68.16.99.34l5.43,2.79c.12.07.25.12.38.15.21.03.43-.03.6-.16.17-.13.28-.32.31-.54,0-.09,0-.19-.01-.28l-.86-6.09Z"/><path class="cls-45" d="M994.12,185.7c-1.64,2.19-2.64,4.79-2.89,7.52-.25,2.72.26,5.47,1.47,7.92.19.38.28.67.21.85-.06.18-2.04,6.06-2.04,6.06-.05.14-.06.29-.03.43.03.14.1.27.19.38.13.14.31.22.49.25.1.01.2,0,.3-.02l5.95-1.45c.41-.1.84-.04,1.2.18,1.8,1,3.85,1.75,5.96,2.03,2.83.38,5.7.01,8.34-1.08"/><path class="cls-14" d="M803.39,187c22.51,0,40.76-18.25,40.76-40.76s-18.25-40.76-40.76-40.76-40.76,18.25-40.76,40.76,18.25,40.76,40.76,40.76Z"/><path class="cls-44" d="M789.9,154.37v-29.28l3.25,1.63,3.25-1.63,3.25,1.63,3.29-1.63,3.22,1.63,3.23-1.63,3.25,1.63,3.28-1.63,3.25,1.63,3.25-1.63v22.77"/><path class="cls-44" d="M822.43,147.86v11.39c0,2.16-.86,4.23-2.38,5.75-1.53,1.53-3.59,2.38-5.75,2.38M814.3,167.38c-2.16,0-4.23-.86-5.75-2.38-1.53-1.53-2.38-3.59-2.38-5.75v-4.88h-27.65c-.21,0-.43.04-.62.12-.2.08-.38.2-.53.35-.15.15-.27.33-.35.53-.08.2-.12.41-.12.62,0,6.51.69,11.39,8.13,11.39h29.28Z"/><path class="cls-43" d="M796.41,134.85h19.52"/><path class="cls-43" d="M802.91,142.99h13.01"/><path class="cls-18" d="M332.83,163.11l-50.14,21.21c-2.74,1.16-4.02,4.31-2.86,7.05l21.21,50.14c1.16,2.74,4.31,4.02,7.05,2.86l50.14-21.21c2.74-1.15,4.02-4.31,2.86-7.05l-21.21-50.14c-1.16-2.74-4.31-4.02-7.05-2.86Z"/><path class="cls-6" d="M312.17,244.39c-2.62.59-5.36.36-7.9-.67-3.31-1.34-5.9-3.89-7.29-7.18l-16.43-38.84c-2.87-6.79.31-14.64,7.1-17.51l38.84-16.43c6.78-2.87,14.64.31,17.51,7.1l16.43,38.84c2.87,6.79-.31,14.64-7.1,17.51l-38.84,16.43c-.76.32-1.54.57-2.33.74h0ZM329.61,166.63c-.57.13-1.14.31-1.68.54l-38.84,16.43c-2.38,1.01-4.23,2.88-5.19,5.28-.97,2.4-.95,5.03.06,7.4l16.43,38.84c1.01,2.38,2.88,4.23,5.28,5.19,2.4.97,5.03.95,7.4-.06l38.84-16.43c4.91-2.08,7.22-7.77,5.14-12.68l-16.43-38.84c-1.01-2.38-2.88-4.23-5.28-5.19-1.84-.75-3.82-.91-5.72-.48h0Z"/><path class="cls-42" d="M326.95,181.05l-28.72,12.5c-2.38,1.04-3.47,3.8-2.43,6.18l11.25,25.85c1.04,2.38,3.8,3.47,6.18,2.43l28.72-12.5c2.38-1.04,3.47-3.8,2.43-6.18l-11.25-25.85c-1.04-2.38-3.8-3.47-6.18-2.43Z"/><path class="cls-41" d="M299.85,189.43l1.25,2.87"/><path class="cls-41" d="M322.83,179.43l1.25,2.87"/><path class="cls-41" d="M334.38,186.36l-37.34,16.25"/><path class="cls-41" d="M323.93,201.58l2.65-4.57.41-.18,6.56,15.08"/><path class="cls-41" d="M315.69,210.15c.82-.36,2.15-1.39,2.69-2.82.18-.46.27-.95.26-1.45-.01-.49-.12-.98-.32-1.43-1.02-2.34-3.59-2.7-5.86-1.71-1.92.84-2.56,2.35-2.66,3.18"/><path class="cls-41" d="M314.48,217.88c.76.55,2.78,1.55,4.95.61,2.57-1.12,4.06-3.47,2.97-5.97-.49-1.13-1.27-2.01-2.29-2.43-1.6-.65-3.49-.35-4.41.05"/></g></svg>