<?xml version="1.0" encoding="UTF-8"?><svg id="Ebene_2" xmlns="http://www.w3.org/2000/svg" viewBox="0 0 966.67 1105.77"><defs><style>.cls-1{fill:#2d3646;}.cls-1,.cls-2,.cls-3,.cls-4,.cls-5,.cls-6,.cls-7,.cls-8,.cls-9,.cls-10,.cls-11,.cls-12{stroke-width:0px;}.cls-1,.cls-2,.cls-3,.cls-4,.cls-5,.cls-7,.cls-9,.cls-11,.cls-12{fill-rule:evenodd;}.cls-2{fill:#d7e9ff;}.cls-3{fill:#0c2f3d;}.cls-4{fill:#f3b8a5;}.cls-5{fill:#143847;}.cls-6{fill:#fff;}.cls-7{fill:#f9b795;}.cls-8{fill:#4e52b5;}.cls-9{fill:#3d5d8a;}.cls-10{fill:#afafaf;}.cls-11{fill:#f09f84;}.cls-12{fill:#eee;}</style></defs><g id="Layer_1"><polygon class="cls-9" points="402.07 364.76 473.5 321.67 512.79 322.33 551.84 363.53 623.3 390.94 582 1050.63 406 1059.3 372.58 451.03 402.07 364.76 402.07 364.76"/><path class="cls-11" d="M438.83,203.84c2.88,48.37.99,131.14-7.9,138.16-8.92,7.01-.59,5.74-18.28,11.26,0,0,6.08,21.59,75.52,28.75,3.95-.12,23.7,13.74,28.61,11.79,39.46-15.47,56.77-26.01,56.68-34.52l-25.86-14.67s1.43-22.5,1.43-44.49c0-32.94-17-95.67-17-95.67l-93.2-.61h0Z"/><path class="cls-7" d="M413.15,147.99c3.48,54.87,50.77,96.53,105.63,93.03,54.87-3.48,97.55-56.16,94.06-111.02-.73-11.84-1-31.1-5.49-41.39-27.07-62.39-125.98-73.64-176.76-15.27-17.72,20.35-19.01,49.95-17.45,74.66h0Z"/><path class="cls-7" d="M611.43,152.54c.22,52.57-23.04,141.57-69.37,152.4-21.74,5.06-76.95-29.51-82.03-65.94-5.09-36.41-10.41-76.19-10.41-76.19l161.81-10.27h0Z"/><path class="cls-3" d="M607.93,147.79s-5.69-56.03-10.09-53c0,0-55.71,19.31-96.98-5.82-24.36-14.84-38.04,15.59-38.21,47.36-9.69-7.01-51.37-21.27-59.55-29.68,4.33-32.88,23.2-34.86,49.69-47.95,32.38-16.02,83.48-32.87,117.64-21.39,57.82,19.4,57.82,82.22,37.51,110.48h0Z"/><path class="cls-3" d="M470.29,99.27c-9.21,18.96-10.43,74.56-8.06,96.55,1.79,7.72-12.85,2.2-13.49-3.73-.66-5.97-3.15-25.62-18.62-28.61-14.76-2.84,9.27,43.59,9.75,45-18.14-25.12-44.05-65.29-36.46-104.42l32.51-6.75,34.36,1.95h0Z"/><path class="cls-3" d="M609.47,141.35c2.2-12.39-9.88-61.45-36.28-103.05-29.28-46.15-81.36-53.13-129.03-6.94,0,0-49.18,0-41.07,52.11-20.45,13.86-21.11,42.61-20.39,58.69,1.6,35.38,30.91,53.69,30.91,53.69l50.7-109.58,34.04-19.01,79.7,9.52,29.87,20.54,1.54,44.03h0Z"/><path class="cls-2" d="M676.15,998.32c-6.51-69.91,30.11-18.12,27-88.67-6.12-139.04.74-290.74-3.58-324.69l-18.4-196.51c-54.11-26.05-84.4-27.29-126.5-43.14,27.03,10.17,30.64,56.07,32.48,80.1,6.74,87.61-83.01,338.75-82.42,380.65,0,.01-1.73,107.45,2.5,267.57l168.92-75.32Z"/><path class="cls-2" d="M287.97,883.62c4.66,77.38,29.3,74.96,22.58,154.34l203.76,35.68-9.58-267.57c-28.01-90.59-59.34-166.43-83.08-259.14-14.97-58.49-49.73-166.1,8.23-215.64-21.77,18.63-115.36,43.68-145.7,62.52l14.95,217.91c3.49,48.53-18.08,157.1-11.16,271.91Z"/><path class="cls-1" d="M529.05,906.19c0,6.7,5.42,12.13,12.12,12.13,6.71,0,12.14-5.43,12.14-12.13s-5.43-12.12-12.14-12.12-12.12,5.42-12.12,12.12h0Z"/><path class="cls-1" d="M531.65,1039.22c0,6.7,5.43,12.14,12.11,12.14s12.13-5.44,12.13-12.14-5.43-12.13-12.13-12.13-12.11,5.44-12.11,12.13h0Z"/><path class="cls-5" d="M477.48,384.28l10.92,34.71-8.54,311.51,24.32,74.67,17.51-76.47-16.68-309.71,10.25-34.71c-3.93-3.41-35.04-3.81-37.79,0h0Z"/><path class="cls-12" d="M506.51,868.28l-105.14-204.39,22.48-29.03-36.3-8.3s-53.51-161.22-21.57-266.2l47.49-19.21s-33.62,46.96.97,178.36c26.6,101.15,89.73,285.67,89.73,285.67l2.33,63.11h0Z"/><path class="cls-5" d="M495.81,382.01l-61.78,61.94s-38.24-48.96-31.96-79.19c6.28-30.24,32.89-38.95,32.89-38.95,0,0-.93,42.58,60.85,56.2h0Z"/><path class="cls-12" d="M511.92,1073.64l-5.41-205.35s-8.48,67.07-2.48,205.35h7.89Z"/><path class="cls-12" d="M701.22,709.69l-17.31-77.43s-24.87,48.98,23.62,356.65c0,0-12.56-162.92-6.31-279.22h0Z"/><path class="cls-12" d="M290.47,739.64l11.96-72.27s32.26,238.28,8.64,364.43c0,0-18.41-70.46-22.54-137.72-5.17-84.51,1.93-154.43,1.93-154.43h0Z"/><path class="cls-7" d="M413.44,189.92c3.48,17.54,18.62,39.32,31.33,31.67,10.22-6.18,1.8-59.1-12.45-61.05-15.34-2.08-22.38,11.83-18.88,29.38h0Z"/><path class="cls-6" d="M508.27,245.16s34.36-1.6,45.82,11.52c11.46,13.12-25.89,50.09-45.82-11.52Z"/><path class="cls-12" d="M570.93,351.55l30.96,9.46s52.11,121.95,17.91,244.82l-37.44,17.11,21.87,24.88-97.73,220.47-2.33-63.11s78.02-299.87,82.48-351.2c4.44-51.33-15.73-102.42-15.73-102.42h0Z"/><g id="Clock"><circle class="cls-8" cx="482.61" cy="809.81" r="295.95"/><circle class="cls-6" cx="482.61" cy="809.93" r="249.07"/><path class="cls-10" d="M617.04,926.62l-145.55-111.96v-167.4c0-6.94,5.62-12.56,12.56-12.56h0c6.94,0,12.56,5.62,12.56,12.56v155.03l135.74,104.42c5.5,4.23,6.53,12.12,2.3,17.61h0c-4.23,5.5-12.12,6.53-17.61,2.3Z"/></g><path class="cls-4" d="M798.33,920.93c-16.27,11.32-44.15,11.03-69.03,29.12-24.88,18.13-43.46,61.71-69.52,91.34-9.82,11.16-14.76,40.23-9.63,50.31,5.13,10.07,63.63-35.61,79.34-46.24,15.73-10.6,55.79-71.3,85.76-87.91,0,0-10.84-40.08-16.91-36.61h0Z"/><path class="cls-7" d="M748.6,1015.94s-60.34-1.16-107.8,27.83c-47.46,28.99-15.24,59.43,13.57,50.03l94.23-77.86h0Z"/><path class="cls-2" d="M682.49,389.22c22.51,17.73,216.14,210.14,272.46,279.03,13.14,16.08,12.97,32.42,10.23,41.15-23.56,74.97-156.37,302.78-156.37,302.78l-99.03-62.56,126.44-235.23s2.56-6.49-4.06-12.43c-6.62-5.93-195.05-174.9-195.05-174.9l45.38-137.84h0Z"/><path class="cls-7" d="M244.71,970.01c42.36-1.78,61.58,31.31,81.49,46.75,13.54,10.48,33.72,17.57,19.48,23.58-25.53,10.75-52.22-22.84-52.22-22.84,0,0-3.26,8.79,3.32,17.59,11.35,15.19,54.54,27.66,69.41,39.37,15.84,12.44-25.64,28.8-52.72,24.1-47.98-6.44-94.21-54.47-98.45-58.96-9.12-9.7-35.4-36.73-35.4-36.73l20.09-86s38.17,53.22,45,53.14h0Z"/><path class="cls-2" d="M284.18,393.8c-22.51,17.73-216.14,210.14-272.46,279.03-13.14,16.08-12.97,32.42-10.23,41.15,23.56,74.97,156.37,302.78,156.37,302.78l99.03-62.56-126.44-235.23s-2.56-6.49,4.06-12.43c6.62-5.93,195.05-174.9,195.05-174.9l-45.38-137.84h0Z"/><path class="cls-5" d="M495.81,382.01l60.41,59.47s31.61-35.04,25.32-65.28c-6.27-30.24-34.23-54.54-34.23-54.54,0,0-1.24,44.31-51.5,60.35h0Z"/></g></svg>