<?xml version="1.0" encoding="UTF-8"?><svg id="Ebene_2" xmlns="http://www.w3.org/2000/svg" xmlns:xlink="http://www.w3.org/1999/xlink" viewBox="0 0 778.62 1126.21"><defs><style>.cls-1{fill:url(#linear-gradient);}.cls-1,.cls-2,.cls-3,.cls-4,.cls-5,.cls-6,.cls-7,.cls-8,.cls-9,.cls-10,.cls-11,.cls-12,.cls-13{stroke-width:0px;}.cls-2{fill:#d3253c;}.cls-3{fill:#a91e30;}.cls-4{fill:#bac5ea;}.cls-5{fill:#0c2f3d;}.cls-6{fill:#d6e3f8;}.cls-7{fill:#fff;}.cls-8{fill:url(#linear-gradient-2);}.cls-9{fill:#173a49;}.cls-10{fill:#4e52b5;}.cls-14{fill:none;stroke:#1f2021;stroke-linecap:round;stroke-linejoin:round;stroke-width:1.83px;}.cls-11{fill:#f3b8a5;}.cls-12{fill:#afafaf;}.cls-13{opacity:.1;}</style><linearGradient id="linear-gradient" x1="54.29" y1="512.49" x2="120.72" y2="512.49" gradientUnits="userSpaceOnUse"><stop offset="0" stop-color="#dbe8ff"/><stop offset="1" stop-color="#b5d1ff"/></linearGradient><linearGradient id="linear-gradient-2" x1="177.66" y1="483.65" x2="183.52" y2="925.88" xlink:href="#linear-gradient"/></defs><g id="Layer_1"><g id="Mobile"><path class="cls-3" d="M255.92,58.35v767.26c0,35.17,28.51,63.68,63.68,63.68h336.29c35.17,0,63.68-28.51,63.68-63.68V64.22c0-35.17-28.51-63.68-63.68-63.68h-342.15c-31.93,0-57.82,25.89-57.82,57.82Z"/><path class="cls-2" d="M295,57.82v767.26c0,35.17,28.51,63.68,63.68,63.68h336.29c35.17,0,63.68-28.51,63.68-63.68V63.68c0-35.17-28.51-63.68-63.68-63.68h-342.15c-31.93,0-57.82,25.89-57.82,57.82Z"/><rect class="cls-7" x="316.95" y="68" width="418.68" height="745.81"/></g><path class="cls-14" d="M374.5,110.51l-5.49,5.49,5.49,5.49"/><path class="cls-14" d="M685.28,110.51l5.49,5.49-5.49,5.49"/><rect class="cls-12" x="457.83" y="109.16" width="137.98" height="15.52" rx="7.76" ry="7.76"/><g id="Calendar"><path class="cls-6" d="M353.3,208.37h151.39c4.77,0,8.65,3.88,8.65,8.65v141c0,4.77-3.88,8.65-8.65,8.65h-151.39c-4.77,0-8.65-3.88-8.65-8.65v-141c0-4.78,3.88-8.65,8.65-8.65Z"/><path class="cls-10" d="M513.33,217.01v31.32h-168.69v-31.32c0-4.78,3.87-8.65,8.65-8.65h151.39c4.78,0,8.65,3.87,8.65,8.65Z"/><rect class="cls-7" x="361.28" y="237.16" width="6.59" height="20.5"/><rect class="cls-7" x="386.91" y="237.16" width="6.59" height="20.5"/><rect class="cls-7" x="412.54" y="237.16" width="6.59" height="20.5"/><rect class="cls-7" x="438.17" y="237.16" width="6.59" height="20.5"/><rect class="cls-7" x="464.17" y="237.16" width="6.59" height="20.5"/><rect class="cls-7" x="489.8" y="237.16" width="6.59" height="20.5"/></g><g id="Calendar-2"><path class="cls-6" d="M577.2,548.21v166.45c0,5.64-4.57,10.21-10.21,10.21h-178.72c-5.64,0-10.21-4.57-10.21-10.21v-166.45c0-5.64,4.57-10.21,10.21-10.21h178.72c5.64,0,10.21,4.57,10.21,10.21Z"/><path class="cls-10" d="M577.2,548.21v36.97h-199.14v-36.97c0-5.64,4.57-10.21,10.21-10.21h178.72c5.64,0,10.21,4.57,10.21,10.21Z"/><rect class="cls-7" x="397.7" y="572" width="7.78" height="24.21"/><rect class="cls-7" x="427.95" y="572" width="7.78" height="24.21"/><rect class="cls-7" x="458.21" y="572" width="7.78" height="24.21"/><rect class="cls-7" x="488.47" y="572" width="7.78" height="24.21"/><rect class="cls-7" x="519.15" y="572" width="7.78" height="24.21"/><rect class="cls-7" x="549.41" y="572" width="7.78" height="24.21"/></g><path class="cls-6" d="M778.62,307.84v191.19c0,6.47-5.25,11.73-11.73,11.73h-205.28c-6.48,0-11.73-5.25-11.73-11.73v-191.19c0-6.48,5.25-11.73,11.73-11.73h205.28c6.48,0,11.73,5.25,11.73,11.73Z"/><path class="cls-10" d="M778.62,307.84v42.46h-228.74v-42.46c0-6.48,5.25-11.73,11.73-11.73h205.28c6.48,0,11.73,5.25,11.73,11.73Z"/><rect class="cls-7" x="572.44" y="335.16" width="8.94" height="27.8"/><rect class="cls-7" x="607.19" y="335.16" width="8.94" height="27.8"/><rect class="cls-7" x="641.95" y="335.16" width="8.94" height="27.8"/><rect class="cls-7" x="676.7" y="335.16" width="8.94" height="27.8"/><rect class="cls-7" x="711.95" y="335.16" width="8.94" height="27.8"/><rect class="cls-7" x="746.7" y="335.16" width="8.94" height="27.8"/><rect class="cls-7" x="580.76" y="402.3" width="170.47" height="5.35"/><rect class="cls-7" x="581.62" y="425.85" width="170.47" height="5.35"/><rect class="cls-7" x="581.62" y="449.41" width="170.47" height="5.35"/><rect class="cls-7" x="400.31" y="631.74" width="154.86" height="4.86"/><rect class="cls-7" x="401.09" y="653.14" width="154.86" height="4.86"/><rect class="cls-7" x="401.09" y="674.54" width="154.86" height="4.86"/><rect class="cls-7" x="360.93" y="286.65" width="137.17" height="4.31"/><rect class="cls-7" x="361.62" y="305.61" width="137.17" height="4.31"/><rect class="cls-7" x="361.62" y="324.56" width="137.17" height="4.31"/><path class="cls-11" d="M123.63,948.33c-15.11,65.58-29.97,131.47-30.76,140.44-.55,6.13,24.96,18.72,24.96,18.72l-58.67-1.25,18.8-160.44,16.03-136.83h62.1s-16.38,69.51-32.47,139.36Z"/><path class="cls-9" d="M57.71,1091.6l-3.43,23.54c-.85,5.84,3.68,11.07,9.58,11.07h84.19c2.24,0,2.96-3.02.95-4.03l-38.11-19.06c-.4-.2-.85-.27-1.3-.2-5.08.86-37.74,5.59-47.94-12.08-1.01-1.75-3.65-1.25-3.94.75Z"/><path class="cls-11" d="M224.23,1107.49l-58.67-1.25,2.49-161.68,2.08-135.59h62.1s-7.42,61.85-15.21,127.49c-8.25,69.29-16.92,142.8-17.76,152.31-.55,6.13,24.96,18.72,24.96,18.72Z"/><path class="cls-9" d="M164.11,1091.6l-3.43,23.54c-.85,5.84,3.68,11.07,9.58,11.07h84.19c2.24,0,2.96-3.02.95-4.03l-38.11-19.06c-.4-.2-.85-.27-1.3-.2-5.08.86-37.74,5.59-47.94-12.08-1.01-1.75-3.65-1.25-3.94.75Z"/><path class="cls-1" d="M95.61,537.59l13.15,32.27-15.53,59.76-37.46-90.34c-2.03-4.9-1.96-10.42.18-15.27l38.96-88.29,17.81-40.36,8,106.37-13.04,18.62-12.07,17.24Z"/><path class="cls-13" d="M232.23,808.97s-7.42,61.85-15.21,127.49c-11.9,3.69-30.49,8.28-48.97,8.1l2.08-135.59h62.1Z"/><path class="cls-13" d="M156.09,808.97s-16.38,69.51-32.47,139.36c-10.12.41-26.64.36-45.66-2.53l16.03-136.83h62.1Z"/><path class="cls-13" d="M120.72,501.73l-13.04,18.62c-15.34-29.52-16.29-60.07-12.78-84.63l17.81-40.36,8,106.37Z"/><path class="cls-11" d="M373.19,334.34l-4.81,12.3-9.26,15.04-4.5,11.26-4.75,11.89-25.47-12.73,1-2.98.74-2.24,2.31-9.26s-.46-10.86,2.31-24.31l2.11-22.68s9.76,7.81,7.37,17.47l13.1-26.62,9.79-15.26s5.86,5.86-.54,17.57l-4.45,14.32s6.95-1.16,6.95,4.63c0,0,5.79,1.16,4.63,5.79,0,0,4.64,1.16,3.48,5.79Z"/><polygon class="cls-13" points="354.61 372.95 349.86 384.84 324.39 372.11 325.39 369.13 354.61 372.95"/><path class="cls-11" d="M180.71,271.63s43.91,83.11-18.47,76.69l4.55,57.65-42.87,4.43-7.74-90.38s-10.08-60.21,64.52-48.39Z"/><path class="cls-4" d="M200.8,395.36s-17.93-27.49-58.57-27.49c0,0-17.57-.12-27.31,6.51,0,0-3.76,9.02,2.21,20.98h83.66Z"/><path class="cls-8" d="M359.75,384.6l-16.03,84.17c-1.68,8.79-10.43,14.34-19.08,12.1l-99.95-25.76v131.48l43.03,331.21s-137.45,40.64-267.72,0c0,0,83.66-297.75,112.35-407.71,0,0-29.88-78.88-2.39-112.34,0,0,15.54-17.93,65.73-13.15,34.71,3.31,132.67,43.03,132.67,43.03l11.96-59.76,39.44,16.73Z"/><path class="cls-5" d="M190.68,630.35l-1.29-1.47c29.01-25.53,20.13-53.66,20.04-53.94l1.85-.62c.1.29,9.42,29.61-20.6,56.02Z"/><path class="cls-5" d="M157.34,251.25c-78.69-15.27-65.34,87.53-65.34,87.53-36.69,14.52-45.68,38.38-48.56,51.42-3.66,16.55,13.79,52.08,58.1,46.77,39.55-4.74,36.36-63.85,35.22-76.49,2.52,12.07,6,38.99-6.45,60.96,0,0,16.36-18.31,11.32-66.38,23.85-15.55,18.34-33.1,18.34-33.1,0,0-13.75-14.38-4.54-21.99,6.47-5.35,9.31-.66,10.42,2.61.55,1.62,1.93,2.83,3.6,3.23l1.05.25c1.36.33,2.59-.89,2.28-2.26l-1.72-7.44c7.49-5.57,10.29-17.19,10.29-17.19,0,0,16.27,3.92,16.1-15.79-.17-19.71-38.45-11.8-40.11-12.12Z"/><path class="cls-13" d="M224.7,455.66v117.18c-5.05-23.92-11.77-62.85-18.24-122.1l18.24,4.93Z"/></g></svg>