<?xml version="1.0" encoding="UTF-8"?>
<svg id="Ebene_1" xmlns="http://www.w3.org/2000/svg" viewBox="0 0 1649.72 379.7">
    <defs>
        <style>.cls-1{fill:#d7263d;stroke-width:0px;}</style>
    </defs>
    <path class="cls-1"
          d="m434.22,126.81c-69.84,0-126.45,56.61-126.45,126.45s56.61,126.45,126.45,126.45c45.24,0,84.91-23.75,107.25-59.47-.36-.23-.72-.46-1.06-.68l-30.13-18.41c-2.52,4.1-5.35,8.01-8.49,11.67-5.81,6.8-12.72,12.7-20.43,17.26-7.71,4.57-16.19,7.82-24.94,9.76-8.75,1.94-17.77,2.56-26.69,1.96-8.96-.61-17.86-2.43-26.35-5.39-8.45-2.96-16.55-7.06-23.82-12.28-9.93-7.12-20.08-21.05-20.46-21.51-.17-.19-.53-.82-.68-1.04-.02-.04.17.36.13.32-3.36-4.73-9.38-15.66-11.41-22.7-1.82-6.38-3.95-21.41-3.44-30.3.53-8.94,2.3-17.81,5.24-26.25,2.94-8.47,7-16.55,12.11-23.94,5.09-7.33,11.18-13.99,18.15-19.55,6.99-5.6,14.81-10.02,23.25-12.98,8.41-2.94,17.29-4.5,26.18-4.78,8.98-.28,18,.76,26.71,2.89,8.73,2.13,17.08,5.47,24.94,9.85,7.78,4.35,14.98,9.81,21.18,16.23,6.23,6.44,11.41,13.88,15.21,21.98,1.41,3.01,2.64,6.11,3.68,9.26-42.63-.1-116.44,0-138.34-.22.09,7.1,0,27.79,0,35.92,48.12,1.01,94.75-.63,142.49-.29,0,.04,0,.09,0,.13,1.14.04,33.62.34,36.14.34.06-1.67.02-2.52.02-4.2,0-69.84-56.61-126.45-126.45-126.45Z"/>
    <path class="cls-1"
          d="m1523.27,121.05c-69.84,0-126.45,56.61-126.45,126.45s56.61,126.45,126.45,126.45,126.45-56.61,126.45-126.45-56.61-126.45-126.45-126.45Zm89.43,137.8c-1.29,8.83-3.85,17.5-7.57,25.68-3.68,8.12-8.49,15.79-14.29,22.57-5.81,6.8-12.72,12.7-20.43,17.26-7.71,4.57-16.19,7.82-24.94,9.76-8.75,1.94-17.77,2.56-26.69,1.96-8.96-.61-17.86-2.43-26.35-5.39-8.45-2.96-16.55-7.06-23.82-12.28-9.93-7.12-20.08-21.05-20.46-21.51-.17-.19-.53-.82-.68-1.04-.02-.04.15.36.13.32-3.36-4.73-9.38-15.66-11.41-22.7-1.82-6.38-3.95-21.41-3.44-30.3.53-8.94,2.3-17.81,5.24-26.25,2.94-8.47,7-16.55,12.11-23.94,5.09-7.33,11.18-13.99,18.15-19.55,6.99-5.6,14.81-10.02,23.25-12.98,8.41-2.94,17.29-4.5,26.18-4.78,8.98-.28,18,.76,26.71,2.89,8.73,2.13,17.08,5.47,24.94,9.85,7.78,4.35,14.98,9.81,21.19,16.23,6.23,6.44,11.41,13.88,15.21,21.98,3.78,8.05,6.21,16.69,7.35,25.51,1.16,8.88.97,17.88-.36,26.73Z"/>
    <path class="cls-1"
          d="m.33,1.9C-.81,129.31,1.47,252.25.33,379.66l35.4-.32c.28-63.31.06-314.13.34-377.44-7.06.23-27.66,0-35.74,0Z"/>
    <path class="cls-1"
          d="m219.32,0c-.52,57.63-.33,114.34-.08,170.96-49.77-.08-128.23,0-152.28-.21.11,7.06,0,27.66,0,35.74,51.48.92,101.5-.38,152.43-.3.25,56.83.44,113.73-.07,171.56l35.4-.32c.13-29.26.15-98.59.17-170.94h0v-.72c.01-83.96.02-171.82.17-205.77-7.06.23-27.66,0-35.74,0Z"/>
    <path class="cls-1"
          d="m875.06,107.97c-32.67,0-59.19,15.04-79.57,45.12-5.01-14.23-13.63-25.31-25.83-33.23-12.21-7.92-27.86-11.89-46.94-11.89-17.14,0-32.43,3.84-45.85,11.52-13.43,7.68-24.18,17.83-32.26,30.44v-36.15h-39.06v257.63h43.67v-133.66c0-23.45,2.34-41.4,7.04-53.85,4.69-12.45,12.25-21.91,22.68-28.38,10.43-6.47,21.79-9.7,34.08-9.7,16.17,0,27.81,4.85,34.93,14.56,7.11,9.7,10.67,24.26,10.67,43.67v167.38h43.66v-149.68c0-26.52,5.98-45.81,17.95-57.86,11.97-12.05,27.01-18.07,45.12-18.07,10.03,0,18.76,2.35,26.2,7.04,7.44,4.69,12.57,10.88,15.41,18.56,2.83,7.68,4.25,20.26,4.25,37.72v162.29h43.42v-176.84c0-29.43-6.88-51.22-20.62-65.38-13.75-14.15-33.4-21.23-58.95-21.23Z"/>
    <path class="cls-1"
          d="m1271.81,107.97c-32.67,0-59.19,15.04-79.57,45.12-5.01-14.23-13.63-25.31-25.83-33.23-12.21-7.92-27.86-11.89-46.94-11.89-17.14,0-32.43,3.84-45.85,11.52-13.43,7.68-24.18,17.83-32.26,30.44v-36.15h-39.06v257.63h43.67v-133.67c0-23.45,2.34-41.4,7.04-53.85,4.69-12.45,12.25-21.91,22.68-28.38,10.43-6.47,21.79-9.7,34.08-9.7,16.17,0,27.81,4.85,34.93,14.56,7.11,9.7,10.67,24.26,10.67,43.67v167.39h43.66v-149.68c0-26.52,5.98-45.81,17.95-57.86,11.97-12.05,27.01-18.07,45.12-18.07,10.03,0,18.76,2.35,26.2,7.04,7.44,4.69,12.57,10.88,15.41,18.56,2.83,7.68,4.25,20.26,4.25,37.72v162.29h43.42v-176.85c0-29.43-6.88-51.22-20.62-65.38-13.75-14.15-33.4-21.23-58.95-21.23Z"/>
</svg>