<?xml version="1.0" encoding="utf-8"?>
<!-- Generator: Adobe Adobe Illustrator 24.2.0, SVG Export Plug-In . SVG Version: 6.00 Build 0)  -->
<svg version="1.1" id="Ebene_1" xmlns="http://www.w3.org/2000/svg" xmlns:xlink="http://www.w3.org/1999/xlink" x="0px"
     y="0px"
     width="1566px" height="396px" viewBox="0 0 1566 396" style="enable-background:new 0 0 1566 396;"
     xml:space="preserve">
<style type="text/css">
	.st0{fill:#D7263D;}
</style>
    <path class="st0" d="M67.77,42.37c0-6.36,4.66-11.45,11.03-11.45c6.37,0,11.03,5.09,11.03,11.45V171.7h152.66V42.37
	c0-6.36,5.09-11.45,11.02-11.45c6.36,0,11.45,5.09,11.45,11.45v279.87c0,5.94-5.09,11.45-11.45,11.45
	c-5.94,0-11.02-5.51-11.02-11.45V192.47H89.83v129.76c0,5.94-4.66,11.45-11.03,11.45c-6.37,0-11.03-5.51-11.03-11.45L67.77,42.37
	L67.77,42.37z"/>
    <path class="st0" d="M329.84,222.59c0-62.76,48.77-112.38,111.1-112.38c28.84,0,54.71,10.6,73.79,27.99
	c2.11,2.12,3.82,5.09,3.82,8.48c0,2.54-0.85,5.09-3.82,8.48l-86.08,102.62c-2.12,2.54-4.66,3.82-7.63,3.82
	c-5.94,0-10.17-4.23-10.17-9.75c0-2.12,0.85-4.66,2.54-6.78l81.42-95.84c-15.26-13.57-35.2-19.51-53.85-19.51
	c-50.04,0-89.9,40.71-89.9,92.87s39.86,92.87,89.9,92.87c28.42,0,51.74-12.72,67.85-32.23c2.97-2.54,5.51-4.66,8.91-4.66
	c5.94,0,10.6,4.24,10.6,10.18c0,2.12-1.69,5.51-3.4,7.63c-19.51,22.9-48.77,38.59-83.96,38.59
	C378.62,334.96,329.85,285.34,329.84,222.59L329.84,222.59z"/>
    <path class="st0" d="M592.75,189.1c0-51.31,32.65-78.88,73.78-78.88c28.84,0,52.59,13.14,63.19,39.02
	c10.6-25.86,35.19-39.02,63.18-39.02c41.56,0,74.21,27.57,74.21,78.88v133.58c0,5.94-4.66,11.03-10.6,11.03
	c-6.36,0-10.6-5.09-10.6-11.03V189.1c0-39.02-23.32-59.37-53-59.37s-52.59,20.35-52.59,59.37v133.58c0,5.94-4.66,11.03-10.6,11.03
	c-5.94,0-10.6-5.09-10.6-11.03V189.1c0-39.02-22.91-59.37-52.59-59.37s-52.59,20.35-52.59,59.37v133.58
	c0,5.94-4.66,11.03-10.6,11.03c-6.36,0-10.6-5.09-10.6-11.03V189.1H592.75z"/>
    <path class="st0" d="M942.18,189.1c0-51.31,32.65-78.88,73.78-78.88c28.83,0,52.59,13.14,63.18,39.02
	c10.6-25.86,35.2-39.02,63.18-39.02c41.56,0,74.22,27.57,74.22,78.88v133.58c0,5.94-4.66,11.03-10.61,11.03
	c-6.36,0-10.6-5.09-10.6-11.03V189.1c0-39.02-23.32-59.37-53-59.37c-29.68,0-52.59,20.35-52.59,59.37v133.58
	c0,5.94-4.66,11.03-10.6,11.03s-10.6-5.09-10.6-11.03V189.1c0-39.02-22.9-59.37-52.59-59.37c-29.69,0-52.59,20.35-52.59,59.37
	v133.58c0,5.94-4.66,11.03-10.6,11.03c-6.36,0-10.6-5.09-10.6-11.03V189.1H942.18z"/>
    <path class="st0" d="M1281.41,222.59c0-62.76,48.77-112.38,111.1-112.38s110.68,49.62,110.68,112.38s-48.34,112.38-110.68,112.38
	S1281.41,285.35,1281.41,222.59z M1481.99,222.59c0-51.73-39.43-92.87-89.48-92.87s-89.9,41.13-89.9,92.87s39.86,92.87,89.9,92.87
	S1481.99,273.9,1481.99,222.59z"/>
</svg>
